<?xml version="1.0" encoding="utf-8"?>
<!-- Generator: Adobe Illustrator 23.0.6, SVG Export Plug-In . SVG Version: 6.00 Build 0)  -->
<svg version="1.1" id="OBJECTS" xmlns="http://www.w3.org/2000/svg" xmlns:xlink="http://www.w3.org/1999/xlink" x="0px" y="0px"
	 viewBox="0 0 500 500" style="enable-background:new 0 0 500 500;" xml:space="preserve">
<ellipse style="fill:#D6EFF7;" cx="237.76" cy="244.01" rx="214.42" ry="193.48"/>
<g>
	
		<rect x="150.17" y="74.41" transform="matrix(-1 -1.224647e-16 1.224647e-16 -1 392.5691 173.7718)" style="fill:#141413;" width="92.23" height="24.95"/>
	<g>
		<polygon style="fill:#0C7A93;" points="77.66,410.94 299.49,410.94 308.8,404.13 308.8,87.21 87.31,87.21 77.66,95.35 		"/>
		
			<rect x="87.31" y="87.21" transform="matrix(-1 -1.224647e-16 1.224647e-16 -1 396.1176 491.3389)" style="fill:#5AA4AB;" width="221.49" height="316.92"/>
		<g>
			<g>
				
					<rect x="101.69" y="112.27" transform="matrix(1 -3.706626e-03 3.706626e-03 1 -0.9098 0.7398)" style="fill:#F7F9F8;" width="194.91" height="267.12"/>
			</g>
		</g>
		<g>
			<rect x="87.31" y="86.39" style="fill:#30AFD8;" width="221.38" height="317.74"/>
			<g>
				<path style="fill:#199DC1;" d="M245.75,100.81c20.99,0.07,41.97,0.73,62.94,1.16V86.39H87.31v15.23
					C140.13,101.48,192.94,100.64,245.75,100.81z"/>
				<rect x="87.31" y="132.66" style="fill:#199DC1;" width="221.38" height="17.45"/>
				<path style="fill:#199DC1;" d="M308.7,248.47v-28.58H87.31v28.07C161.1,246.43,234.9,247.69,308.7,248.47z"/>
				<rect x="87.31" y="281.92" style="fill:#199DC1;" width="221.38" height="25.2"/>
				<path style="fill:#199DC1;" d="M252.59,331.84c18.7,0.18,37.4,0.16,56.1,0.24v-19.15H87.31v17.48
					C142.41,330.5,197.5,331.3,252.59,331.84z"/>
				<path style="fill:#199DC1;" d="M308.7,378.83v-17.12c-12.84,0.48-25.68,1.02-38.51,1.62c-60.91,2.83-121.94,6.81-182.88,3.68
					v11.82H308.7z"/>
				<rect x="87.31" y="384.65" style="fill:#199DC1;" width="221.38" height="19.48"/>
				<rect x="87.31" y="196.63" style="fill:#199DC1;" width="221.38" height="17.45"/>
			</g>
			<path style="fill:#FFFFFF;" d="M273.31,389.5H122.74c-12.84,0-23.35-10.51-23.35-23.35V125.98c0-12.84,10.51-23.35,23.35-23.35
				h150.57c12.84,0,23.35,10.51,23.35,23.35v240.16C296.66,378.99,286.15,389.5,273.31,389.5z"/>
			<g>
				<g>
					
						<path style="fill:none;stroke:#C12736;stroke-width:3.9954;stroke-linecap:round;stroke-linejoin:round;stroke-miterlimit:10;" d="
						M116.82,356.65c-0.79,1.29-0.46,7.17,0.72,8.1c4.73-5.29,9.82-10.22,15.24-14.76"/>
				</g>
			</g>
			<g>
				<g>
					
						<path style="fill:none;stroke:#C12736;stroke-width:3.9954;stroke-linecap:round;stroke-linejoin:round;stroke-miterlimit:10;" d="
						M116.82,332.51c-0.79,1.29-0.46,7.17,0.72,8.1c4.73-5.29,9.82-10.22,15.24-14.76"/>
				</g>
			</g>
			<g>
				<g>
					
						<path style="fill:none;stroke:#C12736;stroke-width:3.9954;stroke-linecap:round;stroke-linejoin:round;stroke-miterlimit:10;" d="
						M116.82,308.36c-0.79,1.29-0.46,7.17,0.72,8.1c4.73-5.29,9.82-10.22,15.24-14.76"/>
				</g>
			</g>
			<g>
				<g>
					
						<path style="fill:none;stroke:#C12736;stroke-width:3.9954;stroke-linecap:round;stroke-linejoin:round;stroke-miterlimit:10;" d="
						M116.82,284.21c-0.79,1.29-0.46,7.17,0.72,8.1c4.73-5.29,9.82-10.22,15.24-14.76"/>
				</g>
			</g>
			<g>
				<g>
					
						<path style="fill:none;stroke:#C12736;stroke-width:3.9954;stroke-linecap:round;stroke-linejoin:round;stroke-miterlimit:10;" d="
						M116.82,260.06c-0.79,1.29-0.46,7.17,0.72,8.1c4.73-5.29,9.82-10.22,15.24-14.76"/>
				</g>
			</g>
			<g>
				<g>
					
						<path style="fill:none;stroke:#C12736;stroke-width:3.9954;stroke-linecap:round;stroke-linejoin:round;stroke-miterlimit:10;" d="
						M116.82,235.92c-0.79,1.29-0.46,7.17,0.72,8.1c4.73-5.29,9.82-10.22,15.24-14.76"/>
				</g>
			</g>
			<g>
				<g>
					
						<path style="fill:none;stroke:#C12736;stroke-width:3.9954;stroke-linecap:round;stroke-linejoin:round;stroke-miterlimit:10;" d="
						M116.82,211.77c-0.79,1.29-0.46,7.17,0.72,8.1c4.73-5.29,9.82-10.22,15.24-14.76"/>
				</g>
			</g>
			<g>
				<g>
					
						<path style="fill:none;stroke:#C12736;stroke-width:3.9954;stroke-linecap:round;stroke-linejoin:round;stroke-miterlimit:10;" d="
						M116.82,187.62c-0.79,1.29-0.46,7.17,0.72,8.1c4.73-5.29,9.82-10.22,15.24-14.76"/>
				</g>
			</g>
			<g>
				<g>
					
						<path style="fill:none;stroke:#C12736;stroke-width:3.9954;stroke-linecap:round;stroke-linejoin:round;stroke-miterlimit:10;" d="
						M116.82,163.47c-0.79,1.29-0.46,7.17,0.72,8.1c4.73-5.29,9.82-10.22,15.24-14.76"/>
				</g>
			</g>
			<g>
				<g>
					
						<path style="fill:none;stroke:#C12736;stroke-width:3.9954;stroke-linecap:round;stroke-linejoin:round;stroke-miterlimit:10;" d="
						M116.82,139.33c-0.79,1.29-0.46,7.17,0.72,8.1c4.73-5.29,9.82-10.22,15.24-14.76"/>
				</g>
			</g>
			<g>
				<g>
					<path style="fill:#DFCAC2;" d="M149.29,172.39c41.11,0,82.22,0,123.33,0c1.23,0,1.23-1.91,0-1.91c-41.11,0-82.22,0-123.33,0
						C148.06,170.47,148.06,172.39,149.29,172.39L149.29,172.39z"/>
				</g>
			</g>
			<g>
				<g>
					<path style="fill:#DFCAC2;" d="M149.29,149.4c41.11,0,82.22,0,123.33,0c1.23,0,1.23-1.91,0-1.91c-41.11,0-82.22,0-123.33,0
						C148.06,147.49,148.06,149.4,149.29,149.4L149.29,149.4z"/>
				</g>
			</g>
			<g>
				<g>
					<path style="fill:#DFCAC2;" d="M147.41,193.68c33.25,0,66.5,0,99.75,0c9.43,0,18.86,0,28.29,0c1.23,0,1.23-1.91,0-1.91
						c-33.25,0-66.5,0-99.75,0c-9.43,0-18.86,0-28.29,0C146.18,191.77,146.18,193.68,147.41,193.68L147.41,193.68z"/>
				</g>
			</g>
			<g>
				<g>
					<path style="fill:#DFCAC2;" d="M148.35,214.98c42.36,0,84.73,0,127.09,0c1.23,0,1.23-1.91,0-1.91c-42.36,0-84.73,0-127.09,0
						C147.12,213.07,147.12,214.98,148.35,214.98L148.35,214.98z"/>
				</g>
			</g>
			<g>
				<g>
					<path style="fill:#DFCAC2;" d="M149.29,236.28c41.11,0,82.22,0,123.33,0c1.23,0,1.23-1.91,0-1.91c-41.11,0-82.22,0-123.33,0
						C148.06,234.37,148.06,236.28,149.29,236.28L149.29,236.28z"/>
				</g>
			</g>
			<g>
				<g>
					<path style="fill:#DFCAC2;" d="M147.41,257.57c33.25,0,66.5,0,99.75,0c9.43,0,18.86,0,28.29,0c1.23,0,1.23-1.91,0-1.91
						c-33.25,0-66.5,0-99.75,0c-9.43,0-18.86,0-28.29,0C146.18,255.66,146.18,257.57,147.41,257.57L147.41,257.57z"/>
				</g>
			</g>
			<g>
				<g>
					<path style="fill:#DFCAC2;" d="M148.35,278.87c42.36,0,84.73,0,127.09,0c1.23,0,1.23-1.91,0-1.91c-42.36,0-84.73,0-127.09,0
						C147.12,276.96,147.12,278.87,148.35,278.87L148.35,278.87z"/>
				</g>
			</g>
			<g>
				<g>
					<path style="fill:#DFCAC2;" d="M149.29,300.17c41.11,0,82.22,0,123.33,0c1.23,0,1.23-1.91,0-1.91c-41.11,0-82.22,0-123.33,0
						C148.06,298.26,148.06,300.17,149.29,300.17L149.29,300.17z"/>
				</g>
			</g>
			<g>
				<g>
					<path style="fill:#DFCAC2;" d="M147.41,321.46c33.25,0,66.5,0,99.75,0c9.43,0,18.86,0,28.29,0c1.23,0,1.23-1.91,0-1.91
						c-33.25,0-66.5,0-99.75,0c-9.43,0-18.86,0-28.29,0C146.18,319.55,146.18,321.46,147.41,321.46L147.41,321.46z"/>
				</g>
			</g>
			<g>
				<g>
					<path style="fill:#DFCAC2;" d="M148.35,342.76c42.36,0,84.73,0,127.09,0c1.23,0,1.23-1.91,0-1.91c-42.36,0-84.73,0-127.09,0
						C147.12,340.85,147.12,342.76,148.35,342.76L148.35,342.76z"/>
				</g>
			</g>
			<g>
				<g>
					<path style="fill:#DFCAC2;" d="M148.35,364.06c42.36,0,84.73,0,127.09,0c1.23,0,1.23-1.91,0-1.91c-42.36,0-84.73,0-127.09,0
						C147.12,362.15,147.12,364.06,148.35,364.06L148.35,364.06z"/>
				</g>
			</g>
		</g>
	</g>
	
		<rect x="155.17" y="74.41" transform="matrix(-1 -1.224647e-16 1.224647e-16 -1 402.5755 173.7718)" style="fill:#333333;" width="92.23" height="24.95"/>
	<polygon style="fill:#232323;" points="155.17,99.36 247.4,99.36 155.17,74.41 	"/>
	
		<ellipse transform="matrix(0.9736 -0.2283 0.2283 0.9736 -9.992 47.6677)" style="fill:none;stroke:#333333;stroke-width:9;stroke-miterlimit:10;" cx="201.07" cy="67.03" rx="15.22" ry="15.22"/>
</g>
<g>
	<g>
		<path style="fill:#5884C2;" d="M370.49,260.14c0,0,32.47-1.95,33.75-2.69c0,0,7.85,17.77-15.51,21.52
			C365.37,282.71,370.49,260.14,370.49,260.14z"/>
		<g>
			<path style="fill:#452E22;" d="M402.26,406.47h14.72c0,0,0.94-4.33-2.41-9.95l-10.82,0.17
				C403.76,396.68,401.98,401.12,402.26,406.47z"/>
			<polygon style="fill:#42475A;" points="417.27,409 402.23,408.85 402.23,406.32 417.27,406.47 			"/>
		</g>
		<g>
			<path style="fill:#452E22;" d="M382.05,396.77c0,0,2.21,6.36,1.28,10.82h-29.91c0,0-0.02-3.68,11.98-6.53l8.34-5.63
				L382.05,396.77z"/>
			<path style="fill:#42475A;" d="M383.51,410.09h-10l-0.07-1.09c0,0-4.14,0.95-9.81,0.95c-2.76,0-9.93,0.08-9.93,0.08v-2.44h29.82
				V410.09z"/>
		</g>
		<path style="fill:#69696D;" d="M368.54,333.15l0.7,65.9c0,0,5.57,2.28,13.31-0.94l3.31-61.09
			C379.93,337.98,373.45,336.21,368.54,333.15z"/>
		<path style="fill:#69696D;" d="M410.6,329.93l-4.17-67.5h-37.61l-0.28,70.72c4.91,3.06,11.39,4.82,17.32,3.88l1.32-56.22
			l2.29-0.12l4.84,54.89C399.9,337.66,407.02,334.82,410.6,329.93z"/>
		<path style="fill:#69696D;" d="M410.6,329.93c-3.58,4.89-10.71,7.73-16.31,5.65l8.45,62.54c0,0,3.81,2.78,12.54-0.43L410.6,329.93
			z"/>
		<path style="opacity:0.24;fill:#464658;" d="M406.43,262.43H369.1v14.53c3.1,1.35,9.15,3.52,18.15,5.1l-0.01-1.26l2.25-0.11
			l0.24,1.8c5.24,0.8,11.35,1.42,18.35,1.54L406.43,262.43z"/>
		<g>
			<path style="fill:#69696D;" d="M346.66,232.64c1.71,3.18,6.05,3.69,8.47,1.01c15.69-17.33,24.47-44.85,21.58-50.93
				c-0.09-0.19-0.19-0.36-0.3-0.52c-0.63-0.91-1.57-1.27-2.65-1.01c-4.3,1.04-10.94,13.05-13.6,18.16
				c-4.05,7.79-11.33,21.22-13.89,27.78C345.68,228.7,345.87,231.18,346.66,232.64L346.66,232.64z"/>
			<path style="fill:#69696D;" d="M304.54,244.78c9.08,0.47,34.4-6.14,38.89-6.89c3.17-0.53,7.34-1.6,9.97-3.86
				c8.04-6.94-1.27-10.13-4.5-9.43c-5.62,1.23-47.25,12.48-47.12,12.99C301.77,237.6,304.14,244.76,304.54,244.78z"/>
		</g>
		<path style="fill:#69696D;" d="M421.3,188.49c0.52-3.59-1.84-6.94-5.39-7.68c-3.2-0.66-7.04-1.81-10.19-3.81
			c-6.02-3.82-24.31-1.88-33.24,4.78c-2.72,5.59-2.77,17.48-4.22,29.23c-1.49,12.15-2.2,57.95-2.2,57.95
			c12.09,7.1,43.14,3.36,43.42,0.94C409.7,267.9,418.32,208.83,421.3,188.49z"/>
		<path style="fill:#535354;" d="M384.66,177.3l-5.13,15.12l2.26,1.12l-2.47,0.44l1.89,45.9l2.93-44.14l6.3-20.31h-3.95l-0.3,0.15
			C385.47,175.92,384.92,176.55,384.66,177.3z"/>
		<polygon style="fill:#FBF8F4;" points="392.94,175.48 387.52,179.93 388.42,173.3 393.35,170.03 		"/>
		<path style="fill:#EDBC7E;" d="M401.74,178.21c-5.61,6.38-11.58,3.22-9.26-3.55l2.34-11.99l9.72,0.89l-2.1,13.16
			C402.34,177.27,402.11,177.79,401.74,178.21z"/>
		<polygon style="opacity:0.72;fill-rule:evenodd;clip-rule:evenodd;fill:#C4833B;" points="392.59,173.71 404.35,164.94 
			404.59,163.13 394.26,161.7 392.98,171.02 		"/>
		<path style="fill:#F6E9E9;" d="M392.48,167.36L392.48,167.36c-12.64-2.81-14.72-15.61-9.64-22.86c2.91-4.15,2.97-11.1,2.97-11.1
			c1.79-7.53,10.58-15.34,18.56-13.57l0,0c7.98,1.77,13,9.32,11.21,16.86C415.57,136.7,411.59,171.11,392.48,167.36z"/>
		<path style="fill:#EDBC7E;" d="M424.47,127c-3.57-3.7-12.15-6.12-16.81-7.15c-4.2-0.94-8.37-0.19-11.69,1.76
			c-4.6,2.54-8.37,7.29-9.47,11.94c0,0-0.06,6.95-2.97,11.1c-2.71,3.87-3.62,9.11-2.12,13.62c0.57,1.7,1.83,3.01,2.45,4.67
			c0.51,1.38,0.94,2.04,2.37,2.69c1.97,0.89,4.15,1.27,6.25,1.73c0.24,0.05,0.24,0.05,0.69,0.15c1.11,0.24,2.25,0.32,3.39,0.26
			c7.91,1.41,15.28-2.01,19.21-9.8l9.61-17.99C427.23,135.72,427.68,130.34,424.47,127z"/>
		<path d="M402.78,145.1c-0.07,0.5,0.26,0.97,0.73,1.03c0.47,0.07,0.91-0.29,0.98-0.8c0.07-0.5-0.26-0.97-0.73-1.03
			C403.29,144.24,402.85,144.6,402.78,145.1z"/>
		<path d="M386.92,141.12c-0.07,0.5,0.26,0.97,0.73,1.03c0.47,0.07,0.91-0.29,0.98-0.8c0.07-0.5-0.26-0.97-0.73-1.03
			C387.42,140.26,386.99,140.62,386.92,141.12z"/>
		<polygon style="fill:#C4833B;" points="395.62,141.39 389.63,149.69 392.93,150.77 		"/>
		<g>
			<path style="fill:#1C1512;" d="M386.53,130.99c3.78-1.34,7.57-2.68,11.35-4.02c-1.62,0.43-6.37,2.85-6.77,4.48
				c3.27-1.06,10.03-2.95,13.41-3.54c-0.73,0.49-6.32,2.88-6.43,3.75c2.55-1.28,10.36-3.79,13.15-4.37c0,0-6.7,4.03-6.66,6.25
				c1.37-0.95,7.76-3.92,12.27-4.37c1.11,3.85-0.67,10.58-0.92,14.58c0.72-1.87,1.49-5.36,2.21-7.23c0.21,4.06,0.43,8.13,0.64,12.19
				c0.65-1.32,2.86-6.01,3.51-7.33c0.05,1.51-5.43,15.75-10.87,22.34c4.51,0,11.61-4.85,14.51-8.5c8.69-10.93,7.7-26.67,0.89-33.75
				c-8.38-8.7-30.04-10.08-38.19,3.26L386.53,130.99z"/>
		</g>
		<g>
			<path style="fill:#EDBC7E;" d="M413.22,152.78c-2.23,2.88-2.4,6.31-0.39,7.66c2.01,1.35,5.45,0.12,7.67-2.76
				c2.23-2.88,2.4-6.31,0.39-7.66C418.88,148.67,415.45,149.91,413.22,152.78z"/>
			<path style="fill-rule:evenodd;clip-rule:evenodd;fill:#C4833B;" d="M416.06,152.02c0.49-0.66,1.05-1.18,2.02-1.25
				c0.97-0.07,2.28,0.59,1.9,3.25c-0.37,2.66-2.57,4.7-3.94,4.18c-0.43-0.16-0.59-0.84-0.6-1.69c0.89-0.13,1.56-1.05,1.53-2.15
				c-0.02-0.82-0.43-1.53-1.02-1.87C416.02,152.19,416.06,152.02,416.06,152.02z"/>
		</g>
		<polygon style="fill:#A03F3F;" points="393.36,174.22 395.48,181.44 391.61,184.15 389.53,196.68 381.45,234.18 383.93,196.05 
			388.95,183.81 387.19,179.7 391.42,173.57 		"/>
		<polygon style="fill:#FBF8F4;" points="394.09,175.26 393.3,183.78 406.88,176.33 405.66,170.03 		"/>
		<polygon style="fill:#535354;" points="406.42,177.5 397.74,197.54 394.43,196.61 396.32,200.23 381.45,237.96 382.77,229.42 
			388.76,196.38 398.93,179.09 		"/>
		<polygon style="fill:#303030;" points="400.09,140.04 411.43,144.3 412.42,142.16 402.77,136.76 		"/>
		<polygon style="fill:#1C1512;" points="391.96,136.76 393.71,133.65 386.5,133.55 386.5,136.01 		"/>
		<path style="fill:#C4833B;" d="M388.46,154.52c0,0,5.54,1.23,8.64-0.94C397.1,153.57,394.4,159.65,388.46,154.52z"/>
		<g>
			<path style="fill:#5A5A5E;" d="M427.28,240.36c3.33,1.4,7.02-0.93,7.23-4.53c1.34-23.34-9.11-50.28-15.17-53.19
				c-0.19-0.09-0.37-0.16-0.56-0.22c-1.07-0.31-2.03,0-2.7,0.88c-2.69,3.51-0.33,17.03,0.82,22.67c1.74,8.61,4.5,23.63,6.63,30.34
				C424.04,237.9,425.75,239.71,427.28,240.36L427.28,240.36z"/>
		</g>
	</g>
	<g>
		
			<rect x="274.2" y="210.39" transform="matrix(0.4263 -0.9046 0.9046 0.4263 -41.7269 380.7958)" style="fill:#333333;" width="10.28" height="25.8"/>
		<path style="fill:#333333;" d="M393.3,268.64c4.67,2.2,7.69,5.63,6.73,7.66l-2.52,5.35c-0.96,2.03-5.52,1.89-10.19-0.31
			l-92.58-43.65c-4.67-2.2-7.68-5.63-6.73-7.66l2.52-5.35c0.96-2.03,5.52-1.88,10.19,0.32L393.3,268.64z"/>
		<path style="fill:#0C7A93;" d="M341.34,244.15L300.71,225c-4.67-2.2-9.23-2.34-10.19-0.32l-2.52,5.35
			c-0.96,2.03,2.06,5.46,6.73,7.66l40.62,19.15L341.34,244.15z"/>
		<path style="opacity:0.25;fill:#30AFD8;" d="M241.78,148.74c25.18,11.87,35.96,41.9,24.1,67.07
			c-11.87,25.17-41.89,35.96-67.07,24.09c-25.17-11.87-35.96-41.89-24.09-67.07C186.59,147.66,216.61,136.87,241.78,148.74z"/>
		<path style="fill:#0C7A93;" d="M165.44,169.66c-14.18,30.08-1.29,65.95,28.78,80.12c30.07,14.18,65.94,1.29,80.12-28.79
			c14.18-30.07,1.29-65.94-28.78-80.12C215.48,126.7,179.61,139.59,165.44,169.66z M263.13,215.71
			c-11.26,23.88-39.74,34.11-63.62,22.86c-23.88-11.26-34.11-39.74-22.85-63.62c11.26-23.88,39.74-34.11,63.62-22.86
			C264.15,163.35,274.38,191.84,263.13,215.71z"/>
		<path style="opacity:0.5;fill:#FFFFFF;" d="M202.19,188.89c5.23,3.02,7.01,9.71,3.99,14.94c-3.03,5.22-9.72,7.01-14.94,3.98
			c-5.23-3.02-7.01-9.7-3.99-14.93C190.28,187.65,196.96,185.87,202.19,188.89z"/>
	</g>
	<path style="fill:#EDBC7E;" d="M387.03,263.88c-1.81,0.04-3.65,0.03-5.4,0.52c-0.69,0.2-1.63,0.33-2.19,0.81
		c-0.32,0.28-0.46,0.71-0.63,1.08c-0.22,0.46-0.45,0.91-0.72,1.34c-0.45,0.71-6.31,6.52-6.49,6.22c0,0-1.15-1.84-1.97-1.1
		c-0.82,0.74,0.41,3.56,1.53,4.1c1.13,0.54,7.45,1.16,9.12-0.19c1.66-1.35,7.43-8.77,7.57-9.35c0,0,0.05-0.04,0.14-0.12
		L387.03,263.88z"/>
	<g>
		<path style="fill:#EDBC7E;" d="M381.62,264.84c-2.51-0.22-5.02-0.33-7.54-0.35c-0.37,0-0.75,0-1.07,0.22
			c-0.32,0.22-0.55,0.72-0.4,1.14c0.08,0.24,0.27,0.39,0.45,0.53c2.27,1.71,5.06,1.79,7.71,1.81"/>
	</g>
	<path style="fill:#5A5A5E;" d="M387.54,269.78c9.25-3.24,43.13-26.62,44.92-29.78c5.5-9.72-4.99-8.91-7.96-6.95
		c-5.17,3.42-42.68,30.74-42.37,31.16C382.14,264.21,387.14,269.92,387.54,269.78z"/>
	<g>
		<path style="fill:#EDBC7E;" d="M302,242.97c0,0-4.98-0.18-6.94,0.17c-1.21,0.22-1.71,0.4-1.71,0.4s-0.7-2.07,0.02-2.28
			c0.72-0.21,4.65,0.22,4.65,0.22L302,242.97z"/>
		<path style="fill:#EDBC7E;" d="M300.03,239.2c-0.06-0.02-0.13-0.04-0.18-0.06c-1.54-0.79-1.69-3.18-1.49-4.18
			c0.41-2.03-1.84-3.43-1.84-3.43l-0.08,5.27l0.79,1.81l-2.82-2.54c0,0-0.59-2.14-0.38-2.86c0.21-0.72,0.57-2.48-1.44-3.3
			c-0.51,2.21-0.71,3.53-0.71,3.53s0.6,2.68,0.88,3.54c-0.53-0.82-2.56-3.26-2.51-3.19c0.05,0.08,0.79-2.9-0.4-3.76
			c-0.98,1.16-1.45,3.79-1.45,3.79s-1.08-2.74-2.82-2.88c-0.04,1.22,0.86,3.85,0.86,3.85s3.41,4.7,4.27,5.15
			c0.86,0.45,15.92,4.18,15.92,4.18s0.35-0.37,0.72-0.89c-0.15-0.12-0.31-0.24-0.47-0.37C304.34,242.17,301.96,240.93,300.03,239.2z
			"/>
	</g>
</g>
</svg>
