<?xml version="1.0" encoding="utf-8"?>
<!-- Generator: Adobe Illustrator 23.0.6, SVG Export Plug-In . SVG Version: 6.00 Build 0)  -->
<svg version="1.1" xmlns="http://www.w3.org/2000/svg" xmlns:xlink="http://www.w3.org/1999/xlink" x="0px" y="0px"
	 viewBox="0 0 500 500" style="enable-background:new 0 0 500 500;" xml:space="preserve">
<g id="Background_Complete">
	<g>
		<g>
			<g>
				<g>
					<g>
						<path style="fill:#E0E0E0;" d="M388.64,242.6c1.73-2.02,3.69-3.76,5.84-5.22l-0.83-7.21l11.34-3.97l3.86,6.15
							c2.58-0.2,5.21-0.07,7.82,0.43l4.51-5.69l10.83,5.21l-1.62,7.07c2.02,1.73,3.76,3.7,5.22,5.84l7.21-0.83l3.97,11.34
							l-6.15,3.86c0.2,2.58,0.07,5.21-0.43,7.82l5.68,4.51l-5.21,10.83l-7.07-1.62c-1.73,2.02-3.69,3.76-5.84,5.22l0.83,7.21
							l-11.34,3.97l-3.86-6.15c-2.58,0.2-5.21,0.06-7.82-0.43l-4.51,5.68l-10.83-5.21l1.62-7.07c-2.02-1.73-3.76-3.69-5.22-5.84
							l-7.21,0.83L375.46,268l6.15-3.86c-0.2-2.58-0.06-5.21,0.43-7.82l-5.68-4.51l5.21-10.83L388.64,242.6L388.64,242.6z
							 M398.49,251.67c-7.48,9.52-2.67,23.27,9.12,26.03c5.94,1.39,12.36-0.86,16.13-5.65c7.49-9.52,2.67-23.27-9.13-26.03
							C408.68,244.63,402.27,246.88,398.49,251.67z"/>
					</g>
				</g>
			</g>
		</g>
		<g>
			<g>
				<g>
					<g>
						<path style="fill:#E0E0E0;" d="M80.44,232.11c0.7-0.81,1.49-1.52,2.36-2.11l-0.33-2.91l4.58-1.6l1.56,2.48
							c1.04-0.08,2.1-0.03,3.16,0.17l1.82-2.29l4.37,2.1l-0.66,2.86c0.81,0.7,1.52,1.49,2.11,2.36l2.91-0.33l1.6,4.58l-2.48,1.56
							c0.08,1.04,0.03,2.1-0.17,3.16l2.29,1.82l-2.1,4.37l-2.86-0.66c-0.7,0.81-1.49,1.52-2.36,2.11l0.33,2.91l-4.58,1.6l-1.56-2.48
							c-1.04,0.08-2.1,0.03-3.16-0.17l-1.82,2.29l-4.37-2.1l0.66-2.86c-0.81-0.7-1.52-1.49-2.11-2.36l-2.91,0.33l-1.6-4.58
							l2.48-1.56c-0.08-1.04-0.03-2.1,0.17-3.16l-2.29-1.82l2.1-4.37L80.44,232.11L80.44,232.11z M84.42,235.77
							c-3.02,3.84-1.08,9.39,3.68,10.51c2.4,0.56,4.99-0.35,6.51-2.28c3.02-3.84,1.08-9.39-3.68-10.51
							C88.53,232.93,85.94,233.83,84.42,235.77z"/>
					</g>
				</g>
			</g>
		</g>
		<g>
			<g>
				<g>
					<g>
						<path style="fill:#E0E0E0;" d="M447.56,88.16l-2.59-4.13c-1.56,0.1-3.13,0.01-4.67-0.26l-3.03,3.81l-7.84-3.77l1.09-4.75
							c-1.17-1.04-2.22-2.21-3.12-3.49l-4.84,0.56l-2.88-8.21l4.13-2.59c-0.1-1.56-0.01-3.13,0.26-4.67l-3.82-3.03l3.77-7.84
							l4.75,1.09c1.03-1.17,2.2-2.22,3.49-3.12l-0.56-4.84l8.21-2.88l2.59,4.13c1.56-0.1,3.13-0.01,4.67,0.26l3.03-3.81l7.84,3.77
							l-1.09,4.75c1.17,1.03,2.22,2.2,3.12,3.49l4.84-0.56l2.88,8.21l-4.13,2.59c0.1,1.56,0.01,3.13-0.26,4.67l3.82,3.03l-3.77,7.84
							l-4.75-1.09c-1.04,1.17-2.21,2.22-3.49,3.12l0.55,4.84L447.56,88.16z M445.5,82.99l2.48,3.96l6.7-2.35l-0.53-4.65l0.25-0.17
							c1.39-0.94,2.65-2.07,3.74-3.34l0.2-0.23l4.56,1.05l3.08-6.4l-3.66-2.91l0.06-0.3c0.32-1.65,0.41-3.33,0.28-5.01l-0.02-0.3
							l3.96-2.48l-2.35-6.7l-4.65,0.53l-0.17-0.25c-0.94-1.39-2.07-2.65-3.34-3.74l-0.23-0.2l1.04-4.56l-6.4-3.08l-2.91,3.66
							l-0.3-0.06c-1.65-0.31-3.33-0.41-5.01-0.28l-0.3,0.02l-2.48-3.96l-6.7,2.35l0.53,4.65l-0.25,0.17
							c-1.39,0.94-2.65,2.07-3.74,3.34l-0.2,0.23l-4.56-1.05l-3.08,6.4l3.66,2.91l-0.06,0.3c-0.31,1.65-0.41,3.33-0.28,5.01
							l0.02,0.3l-3.96,2.48l2.35,6.7l4.65-0.53l0.17,0.25c0.94,1.39,2.07,2.65,3.34,3.74l0.23,0.2l-1.04,4.56l6.4,3.08l2.91-3.66
							l0.3,0.06c1.65,0.31,3.33,0.41,5.01,0.28L445.5,82.99z M443.73,75.29c-0.81,0-1.62-0.09-2.41-0.28
							c-3.81-0.89-6.84-3.59-8.11-7.21c-1.27-3.62-0.59-7.62,1.83-10.7h0c2.58-3.28,7.05-4.85,11.11-3.9
							c3.81,0.89,6.84,3.59,8.11,7.21c1.27,3.62,0.58,7.62-1.83,10.7C450.35,73.76,447.06,75.29,443.73,75.29z M443.74,53.93
							c-3.02,0-6.02,1.39-7.91,3.79c-2.21,2.8-2.83,6.45-1.67,9.75c1.16,3.3,3.92,5.75,7.39,6.57c3.69,0.86,7.75-0.56,10.1-3.54
							c2.21-2.8,2.83-6.45,1.67-9.75c-1.16-3.3-3.92-5.76-7.39-6.57C445.2,54.01,444.47,53.93,443.74,53.93z"/>
					</g>
				</g>
			</g>
		</g>
	</g>
	<g>
		<g>
			<g>
				<g>
					<g>
						<path style="fill:#EBEBEB;" d="M155.95,333.86c1.59-1.86,3.41-3.47,5.39-4.82l-0.76-6.66l10.46-3.67l3.56,5.68
							c2.39-0.19,4.81-0.06,7.22,0.4l4.17-5.25l9.99,4.81l-1.5,6.53c1.86,1.59,3.47,3.41,4.82,5.39l6.66-0.76l3.67,10.46l-5.68,3.56
							c0.19,2.38,0.06,4.81-0.4,7.22l5.25,4.17l-4.81,9.99l-6.53-1.5c-1.59,1.86-3.41,3.47-5.39,4.82l0.76,6.66l-10.46,3.67
							l-3.56-5.68c-2.39,0.19-4.81,0.06-7.22-0.4l-4.17,5.25l-9.99-4.81l1.5-6.53c-1.86-1.59-3.47-3.41-4.82-5.39l-6.66,0.76
							l-3.67-10.46l5.68-3.56c-0.19-2.38-0.06-4.81,0.4-7.22l-5.25-4.17l4.81-9.99L155.95,333.86L155.95,333.86z M165.05,342.24
							c-6.91,8.79-2.46,21.47,8.42,24.02c5.48,1.28,11.4-0.79,14.89-5.22c6.91-8.79,2.46-21.48-8.42-24.02
							C174.45,335.73,168.53,337.81,165.05,342.24z"/>
					</g>
				</g>
			</g>
		</g>
		<g>
			<g>
				<g>
					<g>
						<path style="fill:#F5F5F5;" d="M51.75,71.9c1.94-2.27,4.16-4.24,6.57-5.88l-0.93-8.12l12.77-4.47l4.34,6.93
							c2.91-0.23,5.87-0.07,8.81,0.49l5.08-6.4l12.19,5.86l-1.83,7.96c2.27,1.94,4.24,4.16,5.88,6.58l8.12-0.93l4.47,12.77
							l-6.93,4.34c0.23,2.91,0.07,5.87-0.49,8.8l6.4,5.08l-5.86,12.19l-7.97-1.83c-1.94,2.27-4.16,4.24-6.58,5.88l0.93,8.12
							l-12.76,4.47l-4.34-6.93c-2.91,0.23-5.87,0.07-8.8-0.49l-5.08,6.4l-12.19-5.86l1.83-7.96c-2.27-1.94-4.24-4.16-5.88-6.57
							l-8.12,0.93l-4.47-12.77l6.93-4.34c-0.23-2.91-0.07-5.87,0.49-8.8l-6.4-5.08l5.86-12.19L51.75,71.9L51.75,71.9z M62.85,82.12
							c-8.43,10.72-3,26.19,10.27,29.31c6.69,1.57,13.91-0.96,18.16-6.36c8.43-10.72,3-26.2-10.27-29.31
							C74.32,74.18,67.1,76.72,62.85,82.12z"/>
					</g>
				</g>
			</g>
		</g>
		<g>
			<g>
				<g>
					<g>
						<path style="fill:#E0E0E0;" d="M135.18,40.48c1.16-1.36,2.48-2.53,3.92-3.51l-0.56-4.85l7.62-2.67l2.59,4.14
							c1.74-0.14,3.5-0.04,5.26,0.29l3.03-3.82l7.28,3.5l-1.09,4.75c1.36,1.16,2.53,2.48,3.51,3.93l4.85-0.56l2.67,7.62l-4.14,2.59
							c0.14,1.74,0.04,3.5-0.29,5.26l3.82,3.03l-3.5,7.28l-4.76-1.09c-1.16,1.36-2.48,2.53-3.93,3.51l0.56,4.85l-7.62,2.67
							l-2.59-4.14c-1.74,0.14-3.5,0.04-5.26-0.29l-3.03,3.82l-7.28-3.5l1.09-4.75c-1.36-1.16-2.53-2.48-3.51-3.93l-4.85,0.56
							l-2.67-7.62l4.14-2.59c-0.14-1.74-0.04-3.5,0.29-5.26l-3.82-3.03l3.5-7.28L135.18,40.48L135.18,40.48z M141.8,46.58
							c-5.03,6.4-1.79,15.64,6.13,17.5c3.99,0.94,8.31-0.58,10.84-3.8c5.03-6.4,1.79-15.64-6.13-17.5
							C148.65,41.84,144.34,43.36,141.8,46.58z"/>
					</g>
				</g>
			</g>
		</g>
	</g>
	<g>
		<g>
			<g>
				<g>
					<g>
						<path style="fill:#E0E0E0;" d="M323.24,421.05c-0.03-0.03,0.28-0.37,0.85-0.97c0.67-0.67,1.5-1.5,2.47-2.49
							c2.11-2.08,5.04-4.93,8.31-8.04l0.07-0.07l0,0.42c-3.29-3.06-6.25-5.85-8.37-7.89c-0.98-0.96-1.81-1.78-2.49-2.44
							c-0.58-0.58-0.89-0.92-0.86-0.95c0.03-0.03,0.38,0.25,1.01,0.79c0.71,0.62,1.58,1.39,2.61,2.3c2.19,1.96,5.19,4.7,8.48,7.76
							l0.22,0.21l-0.22,0.21l-0.07,0.07c-3.27,3.12-6.25,5.92-8.43,7.92c-1.03,0.93-1.9,1.72-2.6,2.35
							C323.62,420.79,323.26,421.08,323.24,421.05z"/>
					</g>
				</g>
			</g>
		</g>
		<g>
			<g>
				<g>
					<g>
						<path style="fill:#E0E0E0;" d="M297.82,398.63c0.03,0.03-0.28,0.37-0.85,0.97c-0.67,0.67-1.5,1.5-2.47,2.49
							c-2.11,2.08-5.04,4.93-8.31,8.04l-0.07,0.07l0-0.42c3.29,3.06,6.25,5.85,8.37,7.89c0.98,0.96,1.81,1.78,2.49,2.44
							c0.58,0.58,0.89,0.92,0.86,0.95c-0.03,0.03-0.39-0.25-1.01-0.79c-0.71-0.62-1.58-1.39-2.61-2.3c-2.19-1.96-5.19-4.7-8.48-7.76
							l-0.22-0.21l0.22-0.21l0.07-0.07c3.27-3.12,6.25-5.92,8.43-7.92c1.03-0.93,1.9-1.72,2.6-2.35
							C297.44,398.89,297.79,398.6,297.82,398.63z"/>
					</g>
				</g>
			</g>
		</g>
		<g>
			<g>
				<g>
					<g>
						<path style="fill:#E0E0E0;" d="M304.34,426.33c-0.15-0.06,2.52-7.56,5.96-16.75c3.44-9.2,6.35-16.6,6.5-16.55
							c0.15,0.06-2.52,7.55-5.96,16.75C307.4,418.98,304.49,426.39,304.34,426.33z"/>
					</g>
				</g>
			</g>
		</g>
		<g>
			<g>
				<g>
					<g>
						<path style="fill:#E0E0E0;" d="M352.12,442.38c0,0-0.02-0.44-0.03-1.25c-0.01-0.84-0.02-2.04-0.03-3.61
							c-0.01-3.17-0.04-7.78-0.06-13.66c-0.03-11.76-0.07-28.57-0.12-48.84l0.24,0.24c-23.65,0.01-52.09,0.03-82.67,0.05h-0.01
							l0.29-0.29c-0.01,24.35-0.02,47.35-0.03,67.37l-0.26-0.26c24.55,0.05,45.18,0.1,59.7,0.13c7.26,0.03,12.99,0.05,16.92,0.07
							c1.95,0.01,3.45,0.02,4.49,0.03c0.5,0.01,0.88,0.01,1.16,0.01C351.98,442.37,352.12,442.38,352.12,442.38
							s-0.12,0.01-0.37,0.01c-0.27,0-0.65,0.01-1.13,0.01c-1.03,0.01-2.51,0.02-4.44,0.03c-3.92,0.02-9.63,0.04-16.86,0.07
							c-14.56,0.03-35.25,0.08-59.87,0.13l-0.26,0l0-0.26c-0.01-20.01-0.02-43.01-0.03-67.37v-0.29h0.29h0.01
							c30.58,0.02,59.02,0.03,82.67,0.05l0.24,0l0,0.24c-0.05,20.33-0.09,37.19-0.12,48.99c-0.03,5.86-0.05,10.45-0.06,13.61
							c-0.01,1.55-0.02,2.74-0.03,3.56C352.14,441.98,352.12,442.38,352.12,442.38z"/>
					</g>
				</g>
			</g>
		</g>
		<g>
			<g>
				<g>
					<g>
						<path style="fill:#E0E0E0;" d="M352.77,385.01c0,0.16-18.66,0.29-41.68,0.29c-23.02,0-41.68-0.13-41.68-0.29
							c0-0.16,18.66-0.29,41.68-0.29C334.11,384.72,352.77,384.85,352.77,385.01z"/>
					</g>
				</g>
			</g>
		</g>
		<g>
			<g>
				<g>
					<g>
						<path style="fill:#E0E0E0;" d="M276.19,380.09c0,0.62-0.5,1.12-1.11,1.12c-0.61,0-1.11-0.5-1.11-1.12
							c0-0.62,0.5-1.12,1.11-1.12C275.69,378.97,276.19,379.47,276.19,380.09z"/>
					</g>
				</g>
			</g>
			<g>
				<g>
					<g>
						<path style="fill:#E0E0E0;" d="M280.25,380.09c0,0.62-0.5,1.12-1.11,1.12c-0.61,0-1.11-0.5-1.11-1.12
							c0-0.62,0.5-1.12,1.11-1.12C279.75,378.97,280.25,379.47,280.25,380.09z"/>
					</g>
				</g>
			</g>
			<g>
				<g>
					<g>
						<path style="fill:#E0E0E0;" d="M284.31,380.09c0,0.62-0.5,1.12-1.11,1.12c-0.61,0-1.11-0.5-1.11-1.12
							c0-0.62,0.5-1.12,1.11-1.12C283.81,378.97,284.31,379.47,284.31,380.09z"/>
					</g>
				</g>
			</g>
		</g>
	</g>
	<g>
		<g>
			<g>
				<g>
					<g>
						<g>
							<g>
								<g>
									<polygon style="fill:#F5F5F5;" points="66,446.95 66,475.78 108.16,475.78 154.66,475.78 154.66,446.95 									"/>
								</g>
							</g>
						</g>
					</g>
				</g>
			</g>
			<g>
				<g>
					<g>
						<g>
							<g>
								<g>
									<polygon style="fill:#E0E0E0;" points="62.28,438.89 62.28,446.95 157.76,446.95 157.76,438.89 108.16,438.89 									"/>
								</g>
							</g>
						</g>
					</g>
				</g>
			</g>
			<g>
				<g>
					<g>
						<g>
							<g>
								<g>
									<polygon style="fill:#E0E0E0;" points="110.02,475.78 154.66,475.78 154.66,446.95 157.76,446.95 157.76,438.89 
										108.16,438.89 108.16,446.2 									"/>
								</g>
							</g>
						</g>
					</g>
				</g>
			</g>
			<g>
				<g>
					<g>
						<g>
							<g>
								<g>
									<rect x="78.4" y="451.6" style="fill:#E0E0E0;" width="17.98" height="4.34"/>
								</g>
							</g>
						</g>
					</g>
				</g>
			</g>
			<g>
				<g>
					<g>
						<g>
							<g>
								<g>
									<rect x="76.09" y="461.36" style="fill:#FFFFFF;" width="23.09" height="9.16"/>
								</g>
							</g>
						</g>
					</g>
				</g>
			</g>
		</g>
	</g>
	<g>
		<g>
			<g>
				<g>
					<g>
						<g>
							<g>
								<g>
									<polygon style="fill:#F5F5F5;" points="86.17,414.37 86.17,438.93 122.08,438.93 161.68,438.93 161.68,414.37 									"/>
								</g>
							</g>
						</g>
					</g>
				</g>
			</g>
			<g>
				<g>
					<g>
						<g>
							<g>
								<g>
									<polygon style="fill:#E0E0E0;" points="83,407.51 83,414.37 164.32,414.37 164.32,407.51 122.08,407.51 									"/>
								</g>
							</g>
						</g>
					</g>
				</g>
			</g>
			<g>
				<g>
					<g>
						<g>
							<g>
								<g>
									<polygon style="fill:#E0E0E0;" points="123.66,438.93 161.68,438.93 161.68,414.37 164.32,414.37 164.32,407.51 
										122.08,407.51 122.08,413.74 									"/>
								</g>
							</g>
						</g>
					</g>
				</g>
			</g>
			<g>
				<g>
					<g>
						<g>
							<g>
								<g>
									<rect x="96.73" y="418.33" style="fill:#E0E0E0;" width="15.31" height="3.7"/>
								</g>
							</g>
						</g>
					</g>
				</g>
			</g>
			<g>
				<g>
					<g>
						<g>
							<g>
								<g>
									<rect x="94.76" y="426.65" style="fill:#FFFFFF;" width="19.67" height="7.81"/>
								</g>
							</g>
						</g>
					</g>
				</g>
			</g>
		</g>
	</g>
</g>
<g id="Background_Simple" style="display:none;">
	<g style="display:inline;">
		<path style="fill:#F5F5F5;" d="M63.09,377.23l0.65-1.31c5.45-11.02,16.39-18.33,28.57-18.62c1.57-0.04,3.13,0.04,4.69,0.24
			c11.22,1.4,21.53,8.9,26.42,19.23c2.88,6.07,4.16,13.24,9.02,17.84c6.33,5.98,16.15,5.34,24.74,4.32
			c8.59-1.01,18.41-1.63,24.72,4.37c3.95,3.76,5.59,9.46,5.78,14.94c0.48,14.52-8.47,28.31-20.71,35.84
			c-12.25,7.53-27.27,9.41-41.53,7.8c-19.97-2.26-39.59-11.51-52.26-27.32C60.5,418.75,55.68,396.13,63.09,377.23z"/>
	</g>
	<g style="display:inline;">
		<path style="fill:#F5F5F5;" d="M462.98,88.52l-0.71,0.61c-5.97,5.13-14.24,6.69-21.49,3.81c-0.93-0.37-1.84-0.81-2.7-1.31
			c-6.25-3.64-10.45-10.63-10.74-17.94c-0.18-4.3,0.87-8.84-0.85-12.76c-2.23-5.11-8.17-7.19-13.48-8.74
			c-5.31-1.55-11.25-3.65-13.46-8.77c-1.38-3.2-0.93-6.97,0.34-10.24c3.35-8.67,12.07-14.55,21.17-15.92
			c9.1-1.37,18.42,1.29,26.41,5.81c11.2,6.33,20.43,16.69,23.93,29.17C474.9,64.73,472.07,79.25,462.98,88.52z"/>
	</g>
	<g style="display:inline;">
		<circle style="fill:#F5F5F5;" cx="302.72" cy="423.74" r="30.12"/>
	</g>
	<g style="display:inline;">
		<circle style="fill:#F5F5F5;" cx="438.53" cy="254.72" r="19.29"/>
	</g>
	<g style="display:inline;">
		
			<ellipse transform="matrix(0.2219 -0.9751 0.9751 0.2219 -34.792 117.66)" style="fill:#F5F5F5;" cx="56.32" cy="80.63" rx="19.29" ry="19.29"/>
	</g>
</g>
<g id="Screens">
	<g>
		<g>
			<g>
				<rect x="96.77" y="58.45" style="fill:#FAFAFA;" width="310.09" height="267.78"/>
			</g>
			<g>
				<rect x="96.77" y="57.71" style="fill:#EBEBEB;" width="310.09" height="25.43"/>
			</g>
			<g>
				<path style="fill:#263238;" d="M194.44,72.53h-2.54l-0.5,1.18h-0.97l2.29-5.08h0.93l2.3,5.08h-0.99L194.44,72.53z M194.12,71.79
					l-0.96-2.22l-0.95,2.22H194.12z"/>
				<path style="fill:#263238;" d="M196.58,68.62h2.22c1.65,0,2.77,1.02,2.77,2.54s-1.13,2.54-2.77,2.54h-2.22V68.62z M198.76,72.91
					c1.13,0,1.87-0.69,1.87-1.74s-0.73-1.74-1.87-1.74h-1.23v3.49H198.76z"/>
				<path style="fill:#263238;" d="M207.07,68.62l-2.22,5.08h-0.93l-2.22-5.08h1.02l1.69,3.92l1.71-3.92H207.07z"/>
				<path style="fill:#263238;" d="M210.75,72.53h-2.54l-0.5,1.18h-0.97l2.29-5.08h0.93l2.3,5.08h-0.99L210.75,72.53z M210.44,71.79
					l-0.96-2.22l-0.95,2.22H210.44z"/>
				<path style="fill:#263238;" d="M217.42,68.62v5.08h-0.78l-2.8-3.44v3.44h-0.94v-5.08h0.78l2.8,3.44v-3.44H217.42z"/>
				<path style="fill:#263238;" d="M218.42,71.16c0-1.52,1.16-2.61,2.72-2.61c0.83,0,1.54,0.3,2.01,0.85l-0.61,0.57
					c-0.37-0.4-0.83-0.6-1.36-0.6c-1.05,0-1.82,0.74-1.82,1.79s0.76,1.79,1.82,1.79c0.53,0,0.99-0.2,1.36-0.6l0.61,0.58
					c-0.47,0.55-1.18,0.85-2.02,0.85C219.58,73.78,218.42,72.68,218.42,71.16z"/>
				<path style="fill:#263238;" d="M227.88,72.91v0.79h-3.81v-5.08h3.71v0.79h-2.77v1.32h2.46v0.78h-2.46v1.4H227.88z"/>
				<path style="fill:#263238;" d="M228.94,68.62h2.22c1.65,0,2.77,1.02,2.77,2.54s-1.13,2.54-2.77,2.54h-2.22V68.62z M231.12,72.91
					c1.13,0,1.87-0.69,1.87-1.74s-0.73-1.74-1.87-1.74h-1.23v3.49H231.12z"/>
				<path style="fill:#263238;" d="M236.58,71.16c0-1.52,1.16-2.61,2.72-2.61c0.83,0,1.54,0.3,2.01,0.85l-0.61,0.57
					c-0.37-0.4-0.83-0.6-1.36-0.6c-1.05,0-1.82,0.74-1.82,1.79s0.76,1.79,1.82,1.79c0.53,0,0.99-0.2,1.36-0.6l0.61,0.58
					c-0.47,0.55-1.18,0.85-2.02,0.85C237.75,73.78,236.58,72.68,236.58,71.16z"/>
				<path style="fill:#263238;" d="M242.15,71.49v-2.87h0.94v2.83c0,1.05,0.47,1.5,1.29,1.5c0.82,0,1.29-0.45,1.29-1.5v-2.83h0.93
					v2.87c0,1.48-0.84,2.29-2.22,2.29C242.99,73.78,242.15,72.97,242.15,71.49z"/>
				<path style="fill:#263238;" d="M247.5,73.17l0.33-0.73c0.41,0.33,1.05,0.56,1.68,0.56c0.79,0,1.13-0.28,1.13-0.66
					c0-1.1-3.02-0.38-3.02-2.27c0-0.82,0.65-1.52,2.05-1.52c0.61,0,1.25,0.16,1.69,0.45l-0.3,0.73c-0.46-0.27-0.96-0.4-1.4-0.4
					c-0.78,0-1.1,0.31-1.1,0.69c0,1.08,3.01,0.38,3.01,2.24c0,0.81-0.66,1.51-2.06,1.51C248.71,73.78,247.92,73.53,247.5,73.17z"/>
				<path style="fill:#263238;" d="M253.46,69.42h-1.68v-0.8h4.31v0.8h-1.69v4.29h-0.94V69.42z"/>
				<path style="fill:#263238;" d="M256.37,71.16c0-1.5,1.16-2.61,2.74-2.61s2.74,1.1,2.74,2.61c0,1.51-1.16,2.61-2.74,2.61
					S256.37,72.67,256.37,71.16z M260.89,71.16c0-1.04-0.76-1.79-1.79-1.79c-1.02,0-1.79,0.75-1.79,1.79c0,1.04,0.76,1.79,1.79,1.79
					C260.13,72.95,260.89,72.2,260.89,71.16z"/>
				<path style="fill:#263238;" d="M267.52,73.71l-0.01-3.37l-1.67,2.79h-0.42l-1.67-2.75v3.33h-0.9v-5.08h0.78l2.02,3.37l1.98-3.37
					h0.78l0.01,5.08H267.52z"/>
				<path style="fill:#263238;" d="M269.79,68.62h0.94v5.08h-0.94V68.62z"/>
				<path style="fill:#263238;" d="M276.06,72.91v0.8h-4.34v-0.63l2.99-3.65h-2.94v-0.8h4.19v0.63l-2.99,3.65H276.06z"/>
				<path style="fill:#263238;" d="M280.22,72.53h-2.54l-0.5,1.18h-0.97l2.29-5.08h0.93l2.3,5.08h-0.99L280.22,72.53z M279.91,71.79
					l-0.96-2.22L278,71.79H279.91z"/>
				<path style="fill:#263238;" d="M283.15,69.42h-1.68v-0.8h4.31v0.8h-1.69v4.29h-0.94V69.42z"/>
				<path style="fill:#263238;" d="M286.49,68.62h0.94v5.08h-0.94V68.62z"/>
				<path style="fill:#263238;" d="M288.45,71.16c0-1.5,1.16-2.61,2.74-2.61s2.74,1.1,2.74,2.61c0,1.51-1.16,2.61-2.74,2.61
					S288.45,72.67,288.45,71.16z M292.97,71.16c0-1.04-0.76-1.79-1.79-1.79c-1.02,0-1.79,0.75-1.79,1.79c0,1.04,0.76,1.79,1.79,1.79
					C292.21,72.95,292.97,72.2,292.97,71.16z"/>
				<path style="fill:#263238;" d="M299.45,68.62v5.08h-0.78l-2.8-3.44v3.44h-0.94v-5.08h0.78l2.8,3.44v-3.44H299.45z"/>
			</g>
			<g>
				<g>
					<path style="fill:#FAFAFA;" d="M111.82,70.42c0,1.81-1.47,3.28-3.28,3.28s-3.28-1.47-3.28-3.28c0-1.81,1.47-3.28,3.28-3.28
						S111.82,68.61,111.82,70.42z"/>
				</g>
				<g>
					<path style="fill:#FAFAFA;" d="M123.81,70.42c0,1.81-1.47,3.28-3.28,3.28s-3.28-1.47-3.28-3.28c0-1.81,1.47-3.28,3.28-3.28
						S123.81,68.61,123.81,70.42z"/>
				</g>
				<g>
					<path style="fill:#FAFAFA;" d="M135.81,70.42c0,1.81-1.47,3.28-3.28,3.28c-1.81,0-3.28-1.47-3.28-3.28
						c0-1.81,1.47-3.28,3.28-3.28C134.34,67.14,135.81,68.61,135.81,70.42z"/>
				</g>
			</g>
		</g>
		<g>
			<g>
				<path style="fill:#263238;" d="M406.86,326.23c0-1.85-0.09-106.55-0.22-267.78l0.22,0.22c-89.06,0.01-195.69,0.03-310.07,0.04
					h-0.03l0.26-0.26c-0.01,97.21-0.02,188.8-0.03,267.78L96.77,326C281.7,326.13,404.86,326.22,406.86,326.23
					c-2,0-125.16,0.09-310.09,0.23l-0.23,0v-0.23c-0.01-78.98-0.02-170.57-0.03-267.78l0-0.26h0.26h0.03
					c114.38,0.01,221.01,0.03,310.07,0.04h0.22l0,0.22C406.95,219.68,406.87,324.38,406.86,326.23z"/>
			</g>
		</g>
	</g>
	<g>
		<g>
			<g>
				<rect x="181.74" y="300.66" style="fill:#FFFFFF;" width="188.99" height="53.48"/>
			</g>
			<g>
				<g>
					<path style="fill:#263238;" d="M370.73,354.14c0,0-0.01-0.32-0.02-0.93c0-0.62-0.01-1.52-0.02-2.71
						c-0.01-2.39-0.02-5.91-0.04-10.48c-0.02-9.15-0.05-22.5-0.09-39.36l0.16,0.16c-43.62,0.02-112.12,0.06-188.98,0.1h-0.01
						l0.26-0.26c0,18.44,0,36.39-0.01,53.48l-0.25-0.25c54.1,0.05,101.31,0.09,135.01,0.12c16.86,0.03,30.34,0.06,39.62,0.07
						c4.63,0.01,8.22,0.03,10.65,0.03c1.21,0.01,2.13,0.01,2.76,0.02C370.4,354.13,370.73,354.14,370.73,354.14s-0.3,0.01-0.92,0.02
						c-0.62,0-1.54,0.01-2.73,0.02c-2.42,0.01-5.99,0.02-10.6,0.03c-9.26,0.02-22.72,0.04-39.56,0.07
						c-33.74,0.03-81.02,0.07-135.19,0.12l-0.25,0l0-0.25c0-17.09,0-35.04-0.01-53.48v-0.26h0.26h0.01
						c76.85,0.04,145.36,0.08,188.98,0.1l0.16,0l0,0.16c-0.04,16.91-0.07,30.29-0.09,39.46c-0.02,4.56-0.03,8.07-0.04,10.45
						c-0.01,1.17-0.01,2.07-0.02,2.68C370.74,353.84,370.73,354.14,370.73,354.14z"/>
				</g>
			</g>
		</g>
		<g>
			<g>
				<g>
					<path style="fill:#FF725E;" d="M203.34,330.46c-1.68,0-3.05-1.37-3.05-3.05s1.37-3.05,3.05-3.05c1.68,0,3.05,1.37,3.05,3.05
						S205.02,330.46,203.34,330.46z M203.34,325.3c-1.16,0-2.11,0.95-2.11,2.11s0.95,2.11,2.11,2.11c1.16,0,2.11-0.95,2.11-2.11
						S204.51,325.3,203.34,325.3z"/>
				</g>
			</g>
			<g>
				<g>
					<path style="fill:#263238;" d="M336.41,327.88h-124.6c-0.26,0-0.47-0.21-0.47-0.47c0-0.26,0.21-0.47,0.47-0.47h124.6
						c0.26,0,0.47,0.21,0.47,0.47C336.88,327.67,336.67,327.88,336.41,327.88z"/>
				</g>
			</g>
			<g>
				<g>
					<path style="fill:#FF725E;" d="M295.62,327.55c0,2.28-1.85,4.12-4.12,4.12c-2.28,0-4.12-1.85-4.12-4.12s1.85-4.12,4.12-4.12
						C293.77,323.42,295.62,325.27,295.62,327.55z"/>
				</g>
			</g>
			<g>
				<g>
					<g>
						<path style="fill:#FF725E;" d="M344.68,330.01c-1.7,0-3.09-1.38-3.09-3.09c0-1.7,1.38-3.09,3.09-3.09
							c1.7,0,3.09,1.38,3.09,3.09C347.77,328.62,346.38,330.01,344.68,330.01z M344.68,324.78c-1.18,0-2.15,0.96-2.15,2.15
							c0,1.18,0.96,2.15,2.15,2.15c1.18,0,2.15-0.96,2.15-2.15C346.83,325.74,345.87,324.78,344.68,324.78z"/>
					</g>
				</g>
				<g>
					<g>
						<g>
							<g>
								<path style="fill:#FF725E;" d="M349.34,327.85c-0.4-0.09-0.71-0.33-0.69-0.54c0.02-0.21,0.37-0.39,0.78-0.39
									c0.41-0.01,0.71,0.23,0.69,0.54C350.09,327.76,349.74,327.94,349.34,327.85z"/>
							</g>
						</g>
					</g>
					<g>
						<g>
							<g>
								<path style="fill:#FF725E;" d="M347.32,330.87c-0.22-0.34-0.27-0.73-0.11-0.86c0.16-0.13,0.53-0.01,0.83,0.27
									c0.29,0.28,0.34,0.67,0.11,0.86C347.92,331.34,347.54,331.21,347.32,330.87z"/>
							</g>
						</g>
					</g>
					<g>
						<g>
							<g>
								<path style="fill:#FF725E;" d="M343.76,331.58c0.09-0.4,0.33-0.71,0.54-0.69c0.21,0.02,0.39,0.37,0.39,0.78
									c0.01,0.4-0.23,0.71-0.54,0.68C343.84,332.33,343.67,331.98,343.76,331.58z"/>
							</g>
						</g>
					</g>
					<g>
						<g>
							<g>
								<path style="fill:#FF725E;" d="M340.73,329.56c0.34-0.22,0.73-0.27,0.86-0.11c0.13,0.16,0.01,0.53-0.27,0.83
									c-0.28,0.29-0.67,0.34-0.86,0.11C340.27,330.15,340.39,329.78,340.73,329.56z"/>
							</g>
						</g>
					</g>
					<g>
						<g>
							<g>
								<path style="fill:#FF725E;" d="M340.02,325.99c0.4,0.09,0.71,0.33,0.69,0.54c-0.02,0.21-0.37,0.39-0.78,0.39
									c-0.4,0.01-0.71-0.23-0.68-0.54C339.28,326.08,339.63,325.91,340.02,325.99z"/>
							</g>
						</g>
					</g>
					<g>
						<g>
							<g>
								<path style="fill:#FF725E;" d="M342.04,322.97c0.22,0.34,0.27,0.73,0.11,0.86c-0.16,0.13-0.53,0.01-0.83-0.27
									c-0.29-0.28-0.34-0.67-0.11-0.86C341.45,322.51,341.82,322.63,342.04,322.97z"/>
							</g>
						</g>
					</g>
					<g>
						<g>
							<g>
								<path style="fill:#FF725E;" d="M345.61,322.26c-0.09,0.4-0.33,0.71-0.54,0.69c-0.21-0.02-0.39-0.37-0.39-0.78
									c-0.01-0.4,0.23-0.71,0.54-0.68C345.52,321.52,345.7,321.87,345.61,322.26z"/>
							</g>
						</g>
					</g>
					<g>
						<g>
							<g>
								<path style="fill:#FF725E;" d="M348.63,324.28c-0.34,0.22-0.73,0.27-0.86,0.11c-0.13-0.16-0.01-0.53,0.27-0.83
									c0.28-0.29,0.67-0.34,0.86-0.11C349.1,323.69,348.97,324.06,348.63,324.28z"/>
							</g>
						</g>
					</g>
				</g>
			</g>
		</g>
		<g>
			<g>
				<path style="fill:#FF725E;" d="M291.02,328.49h-79.03c-0.52,0-0.94-0.42-0.94-0.94c0-0.52,0.42-0.94,0.94-0.94h79.03
					c0.52,0,0.94,0.42,0.94,0.94C291.96,328.07,291.54,328.49,291.02,328.49z"/>
			</g>
		</g>
	</g>
	<g>
		<g>
			<g>
				<g>
					<polygon style="fill:#FFFFFF;" points="398.41,100.83 398.41,209.18 405.51,209.18 420.26,209.18 472,209.18 472,100.83 					
						"/>
				</g>
				<g>
					<g>
						<path style="fill:#263238;" d="M398.41,100.83c0,0,0.43-0.01,1.3-0.02c0.88-0.01,2.17-0.01,3.85-0.02
							c3.4-0.01,8.39-0.03,14.77-0.05c12.82-0.03,31.24-0.06,53.67-0.11l0.21,0l0,0.21c0.01,29.94,0.03,67.58,0.05,108.35v0.01v0.26
							H472c-26.25-0.01-51.2-0.02-73.59-0.02l-0.24,0l0-0.24c0.05-31.97,0.09-59.08,0.12-78.22c0.03-9.53,0.05-17.07,0.06-22.24
							c0.01-2.56,0.02-4.54,0.03-5.89c0.01-0.66,0.01-1.16,0.01-1.51C398.4,100.99,398.41,100.83,398.41,100.83s0.01,0.18,0.01,0.53
							c0,0.36,0.01,0.87,0.01,1.53c0.01,1.36,0.02,3.35,0.03,5.93c0.01,5.19,0.04,12.74,0.06,22.3c0.03,19.09,0.07,46.15,0.12,78.06
							l-0.24-0.24c22.4-0.01,47.34-0.01,73.59-0.02l-0.26,0.26v-0.01c0.02-40.77,0.04-78.4,0.05-108.35l0.21,0.21
							c-22.38-0.05-40.75-0.08-53.54-0.11c-6.4-0.02-11.4-0.04-14.81-0.05c-1.7-0.01-3-0.02-3.89-0.02
							C398.87,100.84,398.41,100.83,398.41,100.83z"/>
					</g>
				</g>
			</g>
		</g>
		<g>
			<g>
				<path style="fill:#E0E0E0;" d="M418.99,191.38h-0.23c-1.11,0-2.01-0.9-2.01-2.01v-67.74c0-1.11,0.9-2.01,2.01-2.01h0.23
					c1.11,0,2.01,0.9,2.01,2.01v67.74C421,190.49,420.1,191.38,418.99,191.38z"/>
			</g>
			<g>
				<g>
					<path style="fill:#263238;" d="M418.99,191.38c-0.03-0.05,0.6,0.08,1.34-0.58c0.88-0.66,0.52-2.27,0.57-4.11
						c-0.02-3.78-0.05-9.22-0.08-15.92c-0.01-6.73-0.03-14.73-0.05-23.61c0-4.44-0.01-9.11-0.01-13.94c0-2.42,0-4.88,0-7.37
						c0-1.25,0-2.51,0-3.77c0-0.33,0.02-0.62-0.06-0.88c-0.07-0.27-0.2-0.52-0.39-0.73c-0.38-0.43-0.92-0.63-1.54-0.59
						c-0.57,0-1.12,0.28-1.44,0.74c-0.17,0.23-0.26,0.5-0.31,0.77c-0.03,0.26-0.01,0.61-0.02,0.92c0,1.27,0,2.52,0,3.77
						c0,2.5,0,4.96,0,7.38c0,4.83-0.01,9.5-0.01,13.94c-0.02,8.88-0.04,16.88-0.05,23.61c-0.03,6.7-0.06,12.13-0.08,15.92
						c-0.01,0.94-0.01,1.77-0.02,2.5c0.01,0.71,0.39,1.25,0.77,1.53c0.39,0.29,0.77,0.38,1.01,0.4
						C418.86,191.37,418.99,191.37,418.99,191.38c0,0-0.13,0.02-0.39,0.02c-0.25-0.01-0.65-0.08-1.07-0.37
						c-0.41-0.29-0.83-0.84-0.86-1.61c-0.01-0.73-0.02-1.56-0.02-2.5c-0.02-3.78-0.05-9.22-0.08-15.92
						c-0.01-6.73-0.03-14.73-0.05-23.61c0-4.44-0.01-9.11-0.01-13.94c0-2.42,0-4.88,0-7.38c0-1.25,0-2.51,0-3.77
						c0.01-0.32-0.02-0.61,0.02-0.98c0.05-0.35,0.18-0.7,0.39-0.99c0.41-0.59,1.12-0.95,1.84-0.95c0.66-0.05,1.45,0.21,1.91,0.75
						c0.24,0.26,0.41,0.59,0.5,0.93c0.1,0.36,0.07,0.7,0.07,1.01c0,1.27,0,2.52,0,3.77c0,2.5,0,4.96,0,7.37
						c-0.01,4.83-0.01,9.5-0.01,13.94c-0.02,8.88-0.04,16.88-0.05,23.61c-0.03,6.7-0.06,12.13-0.08,15.92
						c-0.01,0.94-0.02,1.77-0.02,2.5c0.04,0.75-0.3,1.36-0.67,1.69C419.6,191.54,418.96,191.36,418.99,191.38z"/>
				</g>
			</g>
		</g>
		<g>
			<g>
				<path style="fill:#E0E0E0;" d="M435.32,191.38h-0.23c-1.11,0-2.01-0.9-2.01-2.01v-67.74c0-1.11,0.9-2.01,2.01-2.01h0.23
					c1.11,0,2.01,0.9,2.01,2.01v67.74C437.32,190.49,436.43,191.38,435.32,191.38z"/>
			</g>
			<g>
				<g>
					<path style="fill:#263238;" d="M435.32,191.38c-0.03-0.05,0.6,0.08,1.34-0.58c0.88-0.66,0.52-2.27,0.57-4.11
						c-0.02-3.78-0.05-9.22-0.08-15.92c-0.01-6.73-0.03-14.73-0.05-23.61c0-4.44-0.01-9.11-0.01-13.94c0-2.42,0-4.88,0-7.37
						c0-1.25,0-2.51,0-3.77c0-0.33,0.02-0.62-0.06-0.88c-0.07-0.27-0.2-0.52-0.39-0.73c-0.38-0.43-0.92-0.63-1.54-0.59
						c-0.57,0-1.12,0.28-1.44,0.74c-0.17,0.23-0.26,0.5-0.31,0.77c-0.03,0.26-0.01,0.61-0.02,0.92c0,1.27,0,2.52,0,3.77
						c0,2.5,0,4.96,0,7.38c-0.01,4.83-0.01,9.5-0.01,13.94c-0.02,8.88-0.04,16.88-0.05,23.61c-0.03,6.7-0.06,12.13-0.08,15.92
						c-0.01,0.94-0.01,1.77-0.02,2.5c0.01,0.71,0.39,1.25,0.77,1.53c0.39,0.29,0.77,0.38,1.01,0.4
						C435.19,191.37,435.32,191.37,435.32,191.38c0,0-0.13,0.02-0.39,0.02c-0.25-0.01-0.65-0.08-1.07-0.37
						c-0.41-0.29-0.83-0.84-0.86-1.61c-0.01-0.73-0.02-1.56-0.02-2.5c-0.02-3.78-0.05-9.22-0.08-15.92
						c-0.02-6.73-0.03-14.73-0.05-23.61c0-4.44-0.01-9.11-0.01-13.94c0-2.42,0-4.88,0-7.38c0-1.25,0-2.51,0-3.77
						c0.01-0.32-0.02-0.61,0.02-0.98c0.05-0.35,0.18-0.7,0.39-0.99c0.41-0.59,1.12-0.95,1.84-0.95c0.66-0.05,1.45,0.21,1.91,0.75
						c0.24,0.26,0.41,0.59,0.5,0.93c0.1,0.36,0.07,0.7,0.07,1.01c0,1.27,0,2.52,0,3.77c0,2.5,0,4.96,0,7.37
						c0,4.83-0.01,9.5-0.01,13.94c-0.02,8.88-0.04,16.88-0.05,23.61c-0.03,6.7-0.06,12.13-0.08,15.92c-0.01,0.94-0.02,1.77-0.02,2.5
						c0.04,0.75-0.3,1.36-0.67,1.69C435.92,191.54,435.29,191.36,435.32,191.38z"/>
				</g>
			</g>
		</g>
		<g>
			<g>
				<path style="fill:#E0E0E0;" d="M451.64,191.38h-0.23c-1.11,0-2.01-0.9-2.01-2.01v-67.74c0-1.11,0.9-2.01,2.01-2.01h0.23
					c1.11,0,2.01,0.9,2.01,2.01v67.74C453.65,190.49,452.75,191.38,451.64,191.38z"/>
			</g>
			<g>
				<g>
					<path style="fill:#263238;" d="M451.64,191.38c-0.03-0.05,0.6,0.08,1.34-0.58c0.88-0.66,0.52-2.27,0.57-4.11
						c-0.02-3.78-0.05-9.22-0.08-15.92c-0.01-6.73-0.03-14.73-0.05-23.61c0-4.44-0.01-9.11-0.01-13.94c0-2.42,0-4.88,0-7.37
						c0-1.25,0-2.51,0-3.77c0-0.33,0.02-0.62-0.06-0.88c-0.07-0.27-0.2-0.52-0.39-0.73c-0.38-0.43-0.92-0.63-1.54-0.59
						c-0.57,0-1.12,0.28-1.44,0.74c-0.17,0.23-0.27,0.5-0.31,0.77c-0.03,0.26-0.01,0.61-0.02,0.92c0,1.27,0,2.52,0,3.77
						c0,2.5,0,4.96,0,7.38c0,4.83-0.01,9.5-0.01,13.94c-0.02,8.88-0.04,16.88-0.05,23.61c-0.03,6.7-0.06,12.13-0.08,15.92
						c-0.01,0.94-0.01,1.77-0.02,2.5c0.01,0.71,0.39,1.25,0.77,1.53c0.39,0.29,0.77,0.38,1.01,0.4
						C451.51,191.37,451.64,191.37,451.64,191.38c0,0-0.13,0.02-0.39,0.02c-0.25-0.01-0.65-0.08-1.07-0.37
						c-0.41-0.29-0.83-0.84-0.86-1.61c-0.01-0.73-0.02-1.56-0.02-2.5c-0.02-3.78-0.04-9.22-0.08-15.92
						c-0.01-6.73-0.03-14.73-0.05-23.61c0-4.44-0.01-9.11-0.01-13.94c0-2.42,0-4.88,0-7.38c0-1.25,0-2.51,0-3.77
						c0.01-0.32-0.02-0.61,0.02-0.98c0.05-0.35,0.18-0.7,0.39-0.99c0.41-0.59,1.12-0.95,1.84-0.95c0.66-0.05,1.45,0.21,1.91,0.75
						c0.24,0.26,0.41,0.59,0.5,0.93c0.1,0.36,0.07,0.7,0.07,1.01c0,1.27,0,2.52,0,3.77c0,2.5,0,4.96,0,7.37
						c0,4.83-0.01,9.5-0.01,13.94c-0.02,8.88-0.04,16.88-0.05,23.61c-0.03,6.7-0.06,12.13-0.08,15.92c-0.01,0.94-0.02,1.77-0.02,2.5
						c0.04,0.75-0.3,1.36-0.67,1.69C452.24,191.54,451.61,191.36,451.64,191.38z"/>
				</g>
			</g>
		</g>
		<g>
			<path style="fill:#FF725E;" d="M418.61,153.26h-0.78c-2.28,0-4.13-1.85-4.13-4.13l0,0c0-2.28,1.85-4.13,4.13-4.13h0.78
				c2.28,0,4.13,1.85,4.13,4.13l0,0C422.73,151.41,420.88,153.26,418.61,153.26z"/>
		</g>
		<g>
			<path style="fill:#FF725E;" d="M436,168.82h-0.78c-2.28,0-4.13-1.85-4.13-4.13v0c0-2.28,1.85-4.13,4.13-4.13H436
				c2.28,0,4.13,1.85,4.13,4.13l0,0C440.12,166.97,438.28,168.82,436,168.82z"/>
		</g>
		<g>
			<path style="fill:#FF725E;" d="M451.73,139.5h-0.78c-2.28,0-4.13-1.85-4.13-4.13v0c0-2.28,1.85-4.13,4.13-4.13h0.78
				c2.28,0,4.13,1.85,4.13,4.13l0,0C455.85,137.65,454.01,139.5,451.73,139.5z"/>
		</g>
	</g>
	<g>
		<g>
			<g>
				<rect x="234.28" y="191.43" style="fill:#FFFFFF;" width="151.74" height="88.64"/>
			</g>
			<g>
				<g>
					<path style="fill:#263238;" d="M386.02,280.07c0,0-0.01-0.55-0.02-1.6c-0.01-1.06-0.01-2.61-0.02-4.64
						c-0.01-4.08-0.03-10.06-0.05-17.74c-0.03-15.36-0.06-37.49-0.11-64.66l0.2,0.2c-40.77,0.02-93.86,0.04-151.73,0.06h-0.01
						l0.26-0.26c-0.01,31.38-0.01,61.35-0.02,88.64l-0.24-0.24c44.46,0.05,82.36,0.09,109.16,0.12c13.41,0.03,24.04,0.05,31.33,0.07
						c3.64,0.01,6.44,0.02,8.35,0.03c0.94,0.01,1.66,0.01,2.16,0.01C385.76,280.06,386.02,280.07,386.02,280.07
						s-0.24,0.01-0.71,0.01c-0.49,0-1.2,0.01-2.13,0.01c-1.89,0.01-4.68,0.02-8.3,0.03c-7.28,0.02-17.89,0.04-31.28,0.07
						c-26.84,0.03-64.8,0.07-109.32,0.12l-0.24,0l0-0.24c-0.01-27.29-0.01-57.26-0.02-88.64v-0.26h0.26h0.01
						c57.86,0.02,110.95,0.04,151.73,0.06h0.2l0,0.2c-0.04,27.22-0.08,49.4-0.11,64.78c-0.02,7.66-0.04,13.63-0.05,17.7
						c-0.01,2.01-0.02,3.56-0.02,4.6C386.03,279.55,386.02,280.07,386.02,280.07z"/>
				</g>
			</g>
		</g>
		<g>
			<g>
				<g>
					<g>
						<path style="fill:#263238;" d="M285.7,244.25h-13.82l-1.64,3.81c-0.54,1.27-0.81,2.32-0.81,3.14c0,1.1,0.44,1.9,1.33,2.42
							c0.52,0.31,1.8,0.54,3.84,0.69v1.07l-13.01,0v-1.07c1.4-0.21,2.56-0.79,3.46-1.75c0.9-0.95,2.02-2.92,3.35-5.9l13.99-31.21
							h0.55l14.11,32.08c1.35,3.04,2.45,4.95,3.32,5.74c0.65,0.6,1.58,0.94,2.77,1.04l0,1.07H284.2v-1.07h0.78
							c1.52,0,2.59-0.21,3.2-0.63c0.42-0.31,0.63-0.75,0.63-1.33c0-0.35-0.06-0.7-0.17-1.07c-0.04-0.17-0.33-0.89-0.87-2.16
							L285.7,244.25z M284.72,242.11l-5.83-13.47l-6,13.47H284.72z"/>
					</g>
				</g>
			</g>
		</g>
		<g>
			<path style="fill:#263238;" d="M342.68,243.01c1.72-1.12,5.15-2.65,10.3-4.57v-2.38c0-1.91-0.19-3.24-0.56-3.98
				c-0.64-1.25-1.95-1.88-3.96-1.88c-0.95,0-1.86,0.24-2.72,0.73c-0.86,0.5-1.29,1.2-1.29,2.08c0,0.22,0.05,0.6,0.14,1.14
				c0.09,0.53,0.14,0.87,0.14,1.02c0,1.05-0.35,1.78-1.04,2.19c-0.39,0.24-0.86,0.36-1.4,0.36c-0.84,0-1.49-0.28-1.94-0.83
				c-0.45-0.55-0.67-1.16-0.67-1.84c0-1.31,0.81-2.68,2.43-4.11c1.62-1.43,3.99-2.15,7.11-2.15c3.63,0,6.09,1.18,7.38,3.53
				c0.69,1.29,1.04,3.17,1.04,5.64v11.25c0,1.08,0.07,1.83,0.22,2.24c0.24,0.73,0.75,1.09,1.52,1.09c0.43,0,0.79-0.07,1.07-0.2
				c0.28-0.13,0.77-0.45,1.46-0.95v1.46c-0.6,0.73-1.24,1.33-1.94,1.8c-1.05,0.71-2.11,1.07-3.2,1.07c-1.27,0-2.19-0.41-2.76-1.23
				c-0.57-0.82-0.88-1.8-0.94-2.95c-1.42,1.23-2.64,2.15-3.65,2.75c-1.7,1.01-3.32,1.52-4.85,1.52c-1.61,0-3-0.57-4.18-1.7
				c-1.18-1.13-1.77-2.57-1.77-4.31C338.61,247.09,339.97,244.83,342.68,243.01z M352.98,239.84c-2.15,0.71-3.93,1.5-5.33,2.36
				c-2.69,1.67-4.04,3.55-4.04,5.67c0,1.7,0.56,2.96,1.68,3.76c0.73,0.52,1.54,0.79,2.44,0.79c1.23,0,2.42-0.35,3.55-1.04
				c1.13-0.69,1.7-1.57,1.7-2.64V239.84z"/>
		</g>
		<g>
			<g>
				<path style="fill:#263238;" d="M314.36,263.48c-0.14,0-0.26-11.43-0.26-25.54c0-14.11,0.12-25.54,0.26-25.54
					s0.26,11.43,0.26,25.54C314.62,252.05,314.5,263.48,314.36,263.48z"/>
			</g>
		</g>
	</g>
	<g>
		<g>
			<g>
				<rect x="226.58" y="106.32" style="fill:#FFFFFF;" width="156.91" height="68.67"/>
			</g>
			<g>
				<g>
					<path style="fill:#263238;" d="M383.49,174.99c0,0-0.01-0.42-0.02-1.23c0-0.82-0.01-2.01-0.02-3.57
						c-0.01-3.14-0.03-7.75-0.05-13.68c-0.02-11.86-0.06-29-0.1-50.19l0.19,0.19c-40.43,0.02-95.83,0.04-156.9,0.07h-0.01l0.26-0.26
						c0,24.11-0.01,47.33-0.01,68.67l-0.25-0.25c45.58,0.05,84.77,0.09,112.58,0.12c13.92,0.03,24.98,0.05,32.58,0.07
						c3.8,0.01,6.72,0.02,8.71,0.03c0.99,0.01,1.74,0.01,2.26,0.02C383.23,174.98,383.49,174.99,383.49,174.99s-0.25,0.01-0.74,0.02
						c-0.51,0-1.25,0.01-2.23,0.02c-1.98,0.01-4.89,0.02-8.66,0.03c-7.59,0.02-18.64,0.04-32.53,0.07
						c-27.85,0.03-67.11,0.07-112.75,0.12l-0.25,0l0-0.25c0-21.34-0.01-44.56-0.01-68.67v-0.26h0.26h0.01
						c61.07,0.03,116.47,0.05,156.9,0.07h0.19l0,0.19c-0.04,21.23-0.08,38.41-0.1,50.3c-0.02,5.92-0.04,10.51-0.05,13.64
						c-0.01,1.55-0.02,2.73-0.02,3.54C383.51,174.6,383.49,174.99,383.49,174.99z"/>
				</g>
			</g>
		</g>
		<g>
			<g>
				<g>
					<g>
						<rect x="244.2" y="143.3" style="fill:#FFFFFF;" width="16.6" height="13.47"/>
					</g>
					<g>
						<g>
							<path style="fill:#263238;" d="M260.8,156.77c0,0-0.01-0.35-0.02-0.98c-0.01-0.69-0.01-1.61-0.02-2.74
								c-0.01-2.41-0.03-5.75-0.05-9.75l0.09,0.09c-4.77,0.01-10.47,0.01-16.6,0.02c-0.02,0.02,0.2-0.2,0.1-0.1v0v0.01v0.01v0.03
								v0.06v0.11v0.23l0,0.45l0,0.9c0,0.6,0,1.19,0,1.78c0,1.18,0,2.33,0,3.46c0,2.26-0.01,4.41-0.01,6.41l-0.09-0.09
								c4.88,0.02,9,0.04,11.97,0.05c1.41,0.01,2.55,0.02,3.4,0.02C260.37,156.75,260.8,156.77,260.8,156.77s-0.41,0.01-1.19,0.02
								c-0.85,0.01-1.98,0.01-3.38,0.02c-2.99,0.01-7.13,0.03-12.03,0.05l-0.09,0l0-0.09c0-2-0.01-4.15-0.01-6.41
								c0-1.13,0-2.29,0-3.46c0-0.59,0-1.18,0-1.78l0-0.9v-0.45v-0.23v-0.11v-0.06v-0.03v-0.01v-0.01v0
								c-0.09,0.09,0.13-0.13,0.11-0.11c6.13,0.01,11.83,0.01,16.6,0.02l0.09,0l0,0.09c-0.02,4.02-0.03,7.38-0.04,9.81
								c-0.01,1.12-0.02,2.03-0.02,2.72C260.81,156.45,260.8,156.77,260.8,156.77z"/>
						</g>
					</g>
				</g>
				<g>
					<g>
						<g>
							<g>
								<g>
									<g>
										
											<rect x="246.87" y="142.55" transform="matrix(4.180990e-03 -1 1 4.180990e-03 101.4137 401.9024)" style="fill:#FF725E;" width="11.25" height="14.97"/>
									</g>
								</g>
							</g>
						</g>
					</g>
					<g style="opacity:0.2;">
						<g>
							<g>
								<g>
									<g>
										<polygon points="244.99,155.63 250.25,148.65 253.47,153.04 255.68,150.71 259.96,155.69 										"/>
									</g>
								</g>
							</g>
						</g>
					</g>
					<g style="opacity:0.2;">
						<g>
							<g>
								<g>
									<g>
										<g>
											<g>
												<path d="M254.87,147.82c0,0.65-0.53,1.18-1.18,1.17c-0.65,0-1.18-0.53-1.17-1.18c0-0.65,0.53-1.18,1.18-1.17
													S254.87,147.17,254.87,147.82z"/>
											</g>
										</g>
									</g>
								</g>
							</g>
						</g>
					</g>
				</g>
			</g>
			<g>
				<g>
					<g>
						<rect x="275.12" y="132.43" style="fill:#FFFFFF;" width="31.51" height="25.57"/>
					</g>
					<g>
						<g>
							<path style="fill:#263238;" d="M306.63,158c0,0-0.01-0.65-0.02-1.84c-0.01-1.23-0.01-2.98-0.02-5.19
								c-0.01-4.5-0.03-10.87-0.05-18.54l0.09,0.09c-9.02,0-19.86,0.01-31.51,0.02c-0.03,0.02,0.19-0.2,0.1-0.1v0.01v0.01v0.03v0.05
								v0.11v0.22v0.43v0.86c0,0.57,0,1.15,0,1.71c0,1.14,0,2.27,0,3.39c0,2.24,0,4.43,0,6.58c0,4.29-0.01,8.37-0.01,12.17
								l-0.09-0.09c9.34,0.02,17.19,0.04,22.76,0.05c2.74,0.01,4.92,0.02,6.45,0.02C305.82,157.99,306.63,158,306.63,158
								s-0.78,0.01-2.27,0.02c-1.53,0.01-3.69,0.01-6.43,0.02c-5.58,0.01-13.46,0.03-22.82,0.05l-0.09,0l0-0.09
								c0-3.8-0.01-7.88-0.01-12.17c0-2.14,0-4.34,0-6.58c0-1.12,0-2.25,0-3.39c0-0.57,0-1.14,0-1.71l0-0.86v-0.43v-0.22v-0.11
								v-0.05v-0.03v-0.01v-0.01c-0.09,0.09,0.13-0.13,0.11-0.11c11.65,0.01,22.49,0.01,31.51,0.02l0.09,0l0,0.09
								c-0.02,7.69-0.03,14.09-0.04,18.59c-0.01,2.2-0.02,3.94-0.02,5.17C306.64,157.38,306.63,158,306.63,158z"/>
						</g>
					</g>
				</g>
				<g>
					<g>
						<g>
							<g>
								<g>
									<g>
										
											<rect x="280.19" y="131" transform="matrix(4.172817e-03 -1 1 4.172817e-03 144.4468 435.4808)" style="fill:#FF725E;" width="21.36" height="28.42"/>
									</g>
								</g>
							</g>
						</g>
					</g>
					<g style="opacity:0.2;">
						<g>
							<g>
								<g>
									<g>
										<polygon points="276.62,155.84 286.6,142.6 292.72,150.93 296.91,146.51 305.04,155.96 										"/>
									</g>
								</g>
							</g>
						</g>
					</g>
					<g style="opacity:0.2;">
						<g>
							<g>
								<g>
									<g>
										<g>
											<g>
												<path d="M295.37,141.01c-0.01,1.24-1.01,2.23-2.25,2.23c-1.24-0.01-2.23-1.01-2.23-2.25c0.01-1.24,1.01-2.23,2.25-2.23
													C294.38,138.77,295.37,139.77,295.37,141.01z"/>
											</g>
										</g>
									</g>
								</g>
							</g>
						</g>
					</g>
				</g>
			</g>
			<g>
				<g>
					<g>
						<rect x="321.02" y="121.06" style="fill:#FFFFFF;" width="48.31" height="39.2"/>
					</g>
					<g>
						<g>
							<path style="fill:#263238;" d="M369.33,160.26c0-1.79-0.04-15.85-0.09-39.2l0.09,0.09c-13.82,0-30.44,0.01-48.31,0.02
								c-0.03,0.02,0.19-0.19,0.1-0.1v0.01v0.02v0.04v0.08v0.17v0.33v0.66l0,1.32c0,0.88,0,1.76,0,2.63c0,1.75,0,3.48,0,5.19
								c0,3.43,0,6.8,0,10.08c0,6.57-0.01,12.83-0.01,18.66l-0.09-0.09C349.47,160.22,367.32,160.26,369.33,160.26
								c-2.01,0-19.86,0.04-48.31,0.09l-0.09,0v-0.09c0-5.82-0.01-12.08-0.01-18.66c0-3.29,0-6.65,0-10.08c0-1.71,0-3.45,0-5.19
								c0-0.87,0-1.75,0-2.63v-1.32v-0.66v-0.33v-0.17v-0.08v-0.04v-0.02v-0.01c-0.09,0.09,0.13-0.13,0.11-0.11
								c17.87,0.01,34.48,0.01,48.31,0.02l0.09,0l0,0.09C369.37,144.41,369.34,158.47,369.33,160.26z"/>
						</g>
					</g>
				</g>
				<g>
					<g>
						<g>
							<g>
								<g>
									<g>
										
											<rect x="328.8" y="118.87" transform="matrix(4.176786e-03 -1 1 4.176786e-03 203.0788 485.246)" style="fill:#FF725E;" width="32.75" height="43.57"/>
									</g>
								</g>
							</g>
						</g>
					</g>
					<g style="opacity:0.2;">
						<g>
							<g>
								<g>
									<g>
										<polygon points="323.32,156.94 338.63,136.65 348,149.43 354.42,142.64 366.9,157.13 										"/>
									</g>
								</g>
							</g>
						</g>
					</g>
					<g style="opacity:0.2;">
						<g>
							<g>
								<g>
									<g>
										<g>
											<g>
												<path d="M352.07,134.21c-0.01,1.89-1.55,3.42-3.45,3.42c-1.89-0.01-3.42-1.55-3.42-3.45c0.01-1.89,1.55-3.42,3.45-3.42
													C350.55,130.77,352.07,132.32,352.07,134.21z"/>
											</g>
										</g>
									</g>
								</g>
							</g>
						</g>
					</g>
				</g>
			</g>
		</g>
	</g>
	<g>
		<g>
			<g>
				<g>
					<rect x="18.85" y="116.61" style="fill:#FFFFFF;" width="186.83" height="116.77"/>
				</g>
				<g>
					<g>
						<path style="fill:#263238;" d="M205.67,233.38c0,0-0.01-0.72-0.02-2.11c-0.01-1.39-0.01-3.45-0.02-6.13
							c-0.01-5.38-0.03-13.28-0.05-23.42c-0.03-20.25-0.06-49.42-0.11-85.11l0.2,0.2c-50.81,0.02-115.98,0.03-186.81,0.06h-0.01
							l0.26-0.26c-0.01,41.4-0.01,80.87-0.02,116.77l-0.24-0.24c54.84,0.05,101.51,0.09,134.49,0.12
							c16.5,0.03,29.57,0.05,38.53,0.07c4.48,0.01,7.92,0.02,10.26,0.03c1.16,0.01,2.04,0.01,2.65,0.01
							C205.36,233.37,205.67,233.38,205.67,233.38s-0.29,0.01-0.88,0.01c-0.6,0-1.47,0.01-2.62,0.01
							c-2.32,0.01-5.75,0.02-10.21,0.03c-8.94,0.02-21.99,0.04-38.47,0.06c-33.01,0.03-79.75,0.07-134.65,0.12l-0.24,0l0-0.24
							c-0.01-35.9-0.01-75.36-0.02-116.77v-0.26h0.26h0.01c70.83,0.02,136.01,0.04,186.81,0.06h0.21l0,0.2
							c-0.05,35.74-0.08,64.95-0.11,85.24c-0.02,10.12-0.04,18-0.05,23.37c-0.01,2.67-0.02,4.71-0.02,6.09
							C205.69,232.68,205.67,233.38,205.67,233.38z"/>
					</g>
				</g>
			</g>
			<g>
				<g>
					<g>
						<path style="fill:#E0E0E0;" d="M116.54,165.6h-9.06c-4.4,0-7.97-3.57-7.97-7.97V138.1h25v19.53
							C124.51,162.03,120.94,165.6,116.54,165.6z"/>
					</g>
					<g>
						<g>
							<path style="fill:#263238;" d="M116.54,165.6c-0.01-0.06,0.85,0.01,2.31-0.43c0.72-0.25,1.59-0.63,2.45-1.31
								c0.86-0.67,1.72-1.62,2.3-2.89c0.64-1.26,0.8-2.8,0.73-4.5c-0.01-1.7-0.02-3.52-0.03-5.46c-0.01-3.89-0.02-8.23-0.04-12.91
								l0.24,0.24c-5.26,0-11.02,0.01-17.03,0.02c-2.73,0-5.41,0-7.97,0l0.26-0.26c-0.01,5.83-0.02,11.32-0.03,16.27
								c0,1.23-0.03,2.45,0.01,3.6c0.04,1.13,0.34,2.22,0.81,3.17c0.95,1.91,2.61,3.23,4.3,3.83c1.7,0.65,3.39,0.45,4.84,0.5
								c1.44,0.02,2.68,0.03,3.71,0.04c0.98,0.02,1.76,0.03,2.33,0.04c0.24,0.01,0.44,0.02,0.6,0.02
								C116.47,165.59,116.54,165.59,116.54,165.6s-0.07,0.02-0.21,0.02c-0.16,0.01-0.36,0.01-0.6,0.02
								c-0.57,0.01-1.35,0.03-2.33,0.04c-1.03,0.01-2.27,0.02-3.71,0.04c-0.73,0-1.51,0.01-2.33,0.01c-0.84,0-1.73-0.15-2.62-0.46
								c-1.77-0.61-3.52-1.97-4.54-3.97c-0.51-0.99-0.83-2.14-0.88-3.33c-0.04-1.18-0.02-2.37-0.03-3.62
								c-0.01-4.95-0.02-10.44-0.03-16.27l0-0.26l0.26,0c2.56,0,5.24,0,7.97,0c6.01,0.01,11.77,0.01,17.03,0.02l0.25,0l0,0.24
								c-0.01,4.68-0.03,9.03-0.04,12.91c-0.01,1.94-0.02,3.76-0.03,5.46c0.05,1.68-0.14,3.35-0.82,4.62
								c-0.62,1.31-1.53,2.28-2.43,2.95c-0.9,0.68-1.8,1.05-2.54,1.28C117.39,165.73,116.54,165.6,116.54,165.6z"/>
						</g>
					</g>
				</g>
				<g>
					<path style="fill:#FF725E;" d="M99.64,138.29c3.64,2.65,7.39,4.39,11.89,4.3c4.5-0.09,9.46-1.54,12.99-4.33L99.64,138.29z"/>
				</g>
				<g>
					<g>
						<path style="fill:#263238;" d="M124.51,142.11c0.02,0,0.08,0.18,0.18,0.54c0.11,0.41,0.25,0.93,0.43,1.57
							c0.36,1.44,0.86,3.39,1.47,5.78c0.3,1.23,0.64,2.57,0.99,4c0.17,0.73,0.38,1.44,0.53,2.26c0.13,0.82,0.01,1.7-0.33,2.51
							c-0.33,0.81-0.94,1.53-1.69,2.05c-0.76,0.51-1.71,0.8-2.65,0.8c-1.81,0.01-3.69,0.02-5.61,0.03c-0.96,0-1.91,0.01-2.85,0.01
							c-0.92,0-1.88,0.04-2.8-0.17c-1.84-0.37-3.44-1.4-4.53-2.73c-0.55-0.66-0.97-1.39-1.27-2.15c-0.29-0.75-0.52-1.47-0.77-2.17
							c-0.48-1.39-0.94-2.69-1.35-3.89c-0.79-2.33-1.45-4.24-1.92-5.65c-0.2-0.63-0.37-1.14-0.5-1.54
							c-0.11-0.35-0.16-0.54-0.14-0.55c0.02-0.01,0.1,0.17,0.24,0.51c0.16,0.4,0.35,0.9,0.59,1.51c0.52,1.39,1.22,3.28,2.08,5.59
							c0.43,1.19,0.91,2.48,1.41,3.87c0.53,1.39,0.92,2.94,2,4.16c1.03,1.24,2.54,2.2,4.26,2.53c0.85,0.19,1.76,0.15,2.7,0.15
							c0.94,0,1.88-0.01,2.84-0.01c1.92-0.01,3.79-0.01,5.61-0.02c0.87,0.01,1.69-0.25,2.38-0.7c0.68-0.47,1.23-1.1,1.53-1.83
							c0.31-0.72,0.43-1.51,0.32-2.25c-0.12-0.73-0.34-1.5-0.49-2.22c-0.33-1.44-0.64-2.78-0.93-4.01c-0.54-2.4-0.98-4.37-1.31-5.82
							c-0.13-0.64-0.24-1.17-0.33-1.59C124.52,142.31,124.49,142.11,124.51,142.11z"/>
					</g>
				</g>
				<g>
					<path style="fill:#263238;" d="M103.27,143.19c0,0.76-0.62,1.38-1.38,1.38s-1.38-0.62-1.38-1.38s0.62-1.38,1.38-1.38
						S103.27,142.43,103.27,143.19z"/>
				</g>
				<g>
					<path style="fill:#FF725E;" d="M124.25,138.35c0.13,0.59-0.67,1.14-0.66,1.75c0.02,1.13-0.68,2.18-1.74,2.57
						c-0.08,0.03-0.16,0.07-0.23,0.13c-0.5,0.4-0.63,1.09-0.72,1.72c-0.15,1.05-0.31,2.09-0.46,3.14c-0.1,0.65-0.2,1.32-0.52,1.89
						c-0.33,0.57-0.93,1.03-1.59,0.99c-0.95-0.06-1.53-1.08-1.68-2.02c-0.18-1.17,0.05-2.43-0.75-3.45c-0.37-0.47-1-0.73-1.57-0.52
						c-1.44,0.52-0.56,2.8-1.92,3.33c-0.38,0.15-0.81,0.06-1.15-0.17c-0.71-0.49-0.92-1.31-1.12-2.09
						c-0.31-1.23-0.61-2.46-0.92-3.69L124.25,138.35"/>
				</g>
			</g>
			<g>
				<circle style="fill:#FF725E;" cx="46.43" cy="195.48" r="10.51"/>
			</g>
			<g>
				<circle style="fill:#FF725E;" cx="79.01" cy="195.48" r="10.51"/>
			</g>
			<g>
				<circle style="fill:#FF725E;" cx="111.58" cy="195.48" r="10.51"/>
			</g>
			<g>
				<circle style="fill:#FF725E;" cx="144.16" cy="195.48" r="10.51"/>
			</g>
			<g>
				<circle style="fill:#FF725E;" cx="176.74" cy="195.48" r="10.51"/>
			</g>
			<g style="opacity:0.5;">
				<circle cx="176.74" cy="195.48" r="10.51"/>
			</g>
			<g style="opacity:0.6;">
				<circle style="fill:#FFFFFF;" cx="46.43" cy="195.48" r="10.51"/>
			</g>
			<g style="opacity:0;">
				<circle style="fill:#FFFFFF;" cx="79.01" cy="195.48" r="10.51"/>
			</g>
			<g style="opacity:0.2;">
				<circle cx="144.16" cy="195.48" r="10.51"/>
			</g>
			<g>
				<g>
					<path style="fill:#263238;" d="M56.94,195.48c-0.07,0.01-0.01-0.94-0.43-2.54c-0.41-1.57-1.47-3.88-3.84-5.67
						c-1.17-0.87-2.65-1.61-4.35-1.9c-1.69-0.28-3.59-0.23-5.4,0.47c-0.91,0.32-1.79,0.8-2.6,1.4c-0.82,0.59-1.56,1.33-2.17,2.18
						c-1.26,1.68-1.97,3.84-1.99,6.06c0.02,2.22,0.73,4.38,1.99,6.06c0.61,0.85,1.35,1.59,2.17,2.18c0.81,0.61,1.68,1.09,2.6,1.4
						c1.81,0.69,3.71,0.75,5.4,0.47c1.7-0.29,3.18-1.03,4.35-1.9c2.37-1.78,3.43-4.09,3.84-5.67
						C56.93,196.42,56.87,195.47,56.94,195.48c0,0,0.13,0.94-0.23,2.59c-0.36,1.62-1.39,4.03-3.81,5.91
						c-1.2,0.92-2.72,1.71-4.49,2.04c-1.76,0.32-3.74,0.27-5.64-0.44c-0.96-0.33-1.88-0.82-2.73-1.45
						c-0.86-0.62-1.64-1.39-2.28-2.28c-1.33-1.76-2.08-4.03-2.1-6.37c0.02-2.34,0.77-4.61,2.1-6.36c0.64-0.89,1.42-1.66,2.28-2.28
						c0.85-0.63,1.77-1.13,2.73-1.45c1.9-0.71,3.89-0.75,5.64-0.44c1.77,0.33,3.29,1.11,4.49,2.04c2.42,1.89,3.45,4.29,3.81,5.91
						C57.07,194.54,56.94,195.48,56.94,195.48z"/>
				</g>
			</g>
			<g>
				<g>
					<path style="fill:#263238;" d="M89.52,195.48c-0.07,0.01-0.01-0.94-0.43-2.54c-0.41-1.57-1.47-3.88-3.84-5.67
						c-1.17-0.87-2.65-1.61-4.35-1.9c-1.69-0.28-3.59-0.23-5.4,0.47c-0.91,0.32-1.79,0.8-2.6,1.4c-0.82,0.59-1.56,1.33-2.17,2.18
						c-1.26,1.68-1.97,3.84-1.99,6.06c0.02,2.22,0.73,4.38,1.99,6.06c0.61,0.85,1.35,1.59,2.17,2.18c0.81,0.61,1.68,1.09,2.6,1.4
						c1.81,0.69,3.71,0.75,5.4,0.47c1.7-0.29,3.18-1.03,4.35-1.9c2.37-1.78,3.43-4.09,3.84-5.67
						C89.51,196.42,89.45,195.47,89.52,195.48c0,0,0.13,0.94-0.23,2.59c-0.36,1.62-1.39,4.03-3.81,5.91
						c-1.2,0.92-2.72,1.71-4.49,2.04c-1.76,0.32-3.74,0.27-5.64-0.44c-0.96-0.33-1.88-0.82-2.73-1.45
						c-0.86-0.62-1.64-1.39-2.28-2.28c-1.33-1.76-2.08-4.03-2.1-6.37c0.02-2.34,0.77-4.61,2.1-6.36c0.64-0.89,1.42-1.66,2.28-2.28
						c0.85-0.63,1.77-1.13,2.73-1.45c1.9-0.71,3.89-0.75,5.64-0.44c1.77,0.33,3.29,1.11,4.49,2.04c2.42,1.89,3.45,4.29,3.81,5.91
						C89.65,194.54,89.52,195.48,89.52,195.48z"/>
				</g>
			</g>
			<g>
				<g>
					<path style="fill:#263238;" d="M122.1,195.48c-0.07,0.01-0.01-0.94-0.43-2.54c-0.41-1.57-1.47-3.88-3.84-5.67
						c-1.17-0.87-2.65-1.61-4.35-1.9c-1.69-0.28-3.59-0.23-5.4,0.47c-0.91,0.32-1.79,0.8-2.6,1.4c-0.82,0.59-1.56,1.33-2.17,2.18
						c-1.26,1.68-1.97,3.84-1.99,6.06c0.02,2.22,0.73,4.38,1.99,6.06c0.61,0.85,1.35,1.59,2.17,2.18c0.81,0.61,1.68,1.09,2.6,1.4
						c1.81,0.69,3.71,0.75,5.4,0.47c1.7-0.29,3.18-1.03,4.35-1.9c2.37-1.78,3.43-4.09,3.84-5.67
						C122.09,196.42,122.03,195.47,122.1,195.48c0,0,0.13,0.94-0.23,2.59c-0.36,1.62-1.39,4.03-3.81,5.91
						c-1.2,0.92-2.72,1.71-4.49,2.04c-1.76,0.32-3.74,0.27-5.64-0.44c-0.96-0.33-1.88-0.82-2.73-1.45
						c-0.86-0.62-1.64-1.39-2.28-2.28c-1.33-1.76-2.08-4.03-2.1-6.37c0.02-2.34,0.77-4.61,2.1-6.36c0.64-0.89,1.42-1.66,2.28-2.28
						c0.85-0.63,1.77-1.13,2.73-1.45c1.9-0.71,3.89-0.75,5.64-0.44c1.77,0.33,3.29,1.11,4.49,2.04c2.42,1.89,3.45,4.29,3.81,5.91
						C122.23,194.54,122.1,195.48,122.1,195.48z"/>
				</g>
			</g>
			<g>
				<g>
					<path style="fill:#263238;" d="M154.66,195.48c-0.07,0.01-0.01-0.94-0.43-2.54c-0.41-1.57-1.47-3.88-3.84-5.67
						c-1.17-0.87-2.65-1.61-4.35-1.9c-1.69-0.28-3.59-0.23-5.4,0.47c-0.91,0.32-1.79,0.8-2.6,1.4c-0.82,0.59-1.56,1.33-2.17,2.18
						c-1.26,1.68-1.97,3.84-1.99,6.06c0.02,2.22,0.73,4.38,1.99,6.06c0.61,0.85,1.35,1.59,2.17,2.18c0.81,0.61,1.68,1.09,2.6,1.4
						c1.81,0.69,3.71,0.75,5.4,0.47c1.7-0.29,3.18-1.03,4.35-1.9c2.37-1.78,3.43-4.09,3.84-5.67
						C154.65,196.42,154.59,195.47,154.66,195.48c0,0,0.13,0.94-0.23,2.59c-0.36,1.62-1.39,4.03-3.81,5.91
						c-1.2,0.92-2.72,1.71-4.49,2.04c-1.76,0.32-3.74,0.27-5.64-0.44c-0.96-0.33-1.88-0.82-2.73-1.45
						c-0.86-0.62-1.64-1.39-2.28-2.28c-1.33-1.76-2.08-4.03-2.1-6.37c0.02-2.34,0.77-4.61,2.1-6.36c0.64-0.89,1.42-1.66,2.28-2.28
						c0.85-0.63,1.77-1.13,2.73-1.45c1.9-0.71,3.89-0.75,5.64-0.44c1.77,0.33,3.29,1.11,4.49,2.04c2.42,1.89,3.45,4.29,3.81,5.91
						C154.79,194.54,154.66,195.48,154.66,195.48z"/>
				</g>
			</g>
			<g>
				<g>
					<path style="fill:#263238;" d="M187.22,195.48c-0.07,0.01-0.01-0.94-0.43-2.54c-0.41-1.57-1.47-3.88-3.84-5.67
						c-1.17-0.87-2.65-1.61-4.35-1.9c-1.69-0.28-3.59-0.23-5.4,0.47c-0.91,0.32-1.79,0.8-2.6,1.4c-0.82,0.59-1.56,1.33-2.17,2.18
						c-1.26,1.68-1.97,3.84-1.99,6.06c0.02,2.22,0.73,4.38,1.99,6.06c0.61,0.85,1.35,1.59,2.17,2.18c0.81,0.61,1.68,1.09,2.6,1.4
						c1.81,0.69,3.71,0.75,5.4,0.47c1.7-0.29,3.18-1.03,4.35-1.9c2.37-1.78,3.43-4.09,3.84-5.67
						C187.2,196.42,187.15,195.47,187.22,195.48c0,0,0.13,0.94-0.23,2.59c-0.36,1.62-1.39,4.03-3.81,5.91
						c-1.2,0.92-2.72,1.71-4.49,2.04c-1.76,0.32-3.74,0.27-5.64-0.44c-0.96-0.33-1.88-0.82-2.73-1.45
						c-0.86-0.62-1.64-1.39-2.28-2.28c-1.33-1.76-2.08-4.03-2.1-6.37c0.02-2.34,0.77-4.61,2.1-6.36c0.64-0.89,1.42-1.66,2.28-2.28
						c0.85-0.63,1.77-1.13,2.73-1.45c1.9-0.71,3.89-0.75,5.64-0.44c1.77,0.33,3.29,1.11,4.49,2.04c2.42,1.89,3.45,4.29,3.81,5.91
						C187.35,194.54,187.22,195.48,187.22,195.48z"/>
				</g>
			</g>
		</g>
		<g>
			<g>
				<circle style="fill:#EBEBEB;" cx="197.06" cy="125.37" r="6.43"/>
			</g>
			<g>
				<g>
					<path style="fill:#263238;" d="M195.03,127.78c-0.1,0-0.19-0.04-0.27-0.11c-0.15-0.15-0.15-0.38,0-0.53l4.06-4.06
						c0.15-0.15,0.38-0.15,0.53,0s0.15,0.38,0,0.53l-4.06,4.06C195.22,127.74,195.13,127.78,195.03,127.78z"/>
				</g>
				<g>
					<path style="fill:#263238;" d="M199.09,127.78c-0.1,0-0.19-0.04-0.27-0.11l-4.06-4.06c-0.15-0.15-0.15-0.38,0-0.53
						c0.15-0.15,0.38-0.15,0.53,0l4.06,4.06c0.15,0.15,0.15,0.38,0,0.53C199.28,127.74,199.19,127.78,199.09,127.78z"/>
				</g>
			</g>
		</g>
	</g>
</g>
<g id="Icons">
	<g>
		<g>
			<g>
				<path style="fill:#FF725E;" d="M146.58,337.55l-11.77,11.48c-1.2,1.17-3.12,1.18-4.33,0.02l-81.12-77.61
					c-1.24-1.19-1.29-3.16-0.1-4.41l12.29-12.84c1.2-1.25,3.19-1.29,4.43-0.07l80.6,78.97
					C147.83,334.32,147.83,336.33,146.58,337.55z"/>
			</g>
		</g>
		<g>
			<g>
				<g>
					<path style="fill:#263238;" d="M71.06,259.35c0.1,0.09-1.36,1.77-3.26,3.74c-1.9,1.98-3.52,3.5-3.61,3.41
						c-0.1-0.09,1.36-1.77,3.26-3.74C69.34,260.78,70.96,259.26,71.06,259.35z"/>
				</g>
			</g>
		</g>
		<g>
			<g>
				<g>
					<path style="fill:#263238;" d="M83.95,271.77c0.1,0.09-1.36,1.77-3.26,3.74c-1.9,1.97-3.52,3.5-3.61,3.41
						c-0.1-0.09,1.36-1.77,3.26-3.74C82.23,273.2,83.85,271.67,83.95,271.77z"/>
				</g>
			</g>
		</g>
		<g>
			<g>
				<g>
					<path style="fill:#263238;" d="M77.21,265.03c0.1,0.09-1.9,2.3-4.45,4.93c-2.56,2.63-4.71,4.69-4.8,4.59
						c-0.1-0.09,1.9-2.3,4.45-4.93C74.97,267,77.12,264.94,77.21,265.03z"/>
				</g>
			</g>
		</g>
		<g>
			<g>
				<g>
					<path style="fill:#263238;" d="M90.46,278.28c0.1,0.09-1.9,2.3-4.45,4.93c-2.56,2.63-4.71,4.69-4.8,4.59
						c-0.1-0.09,1.9-2.3,4.45-4.93C88.21,280.24,90.36,278.19,90.46,278.28z"/>
				</g>
			</g>
		</g>
		<g>
			<g>
				<g>
					<path style="fill:#263238;" d="M96.55,284.37c0.1,0.09-1.36,1.77-3.26,3.74c-1.9,1.97-3.52,3.5-3.61,3.41
						c-0.1-0.09,1.36-1.77,3.26-3.74C94.84,285.8,96.45,284.28,96.55,284.37z"/>
				</g>
			</g>
		</g>
		<g>
			<g>
				<g>
					<path style="fill:#263238;" d="M103.07,290.89c0.1,0.09-1.9,2.3-4.45,4.93c-2.56,2.63-4.71,4.69-4.8,4.59
						c-0.1-0.09,1.9-2.3,4.45-4.93C100.82,292.85,102.97,290.79,103.07,290.89z"/>
				</g>
			</g>
		</g>
		<g>
			<g>
				<g>
					<path style="fill:#263238;" d="M109.16,296.98c0.1,0.09-1.36,1.77-3.26,3.74c-1.9,1.98-3.52,3.5-3.61,3.41
						c-0.1-0.09,1.36-1.77,3.26-3.75C107.44,298.41,109.06,296.88,109.16,296.98z"/>
				</g>
			</g>
		</g>
		<g>
			<g>
				<g>
					<path style="fill:#263238;" d="M115.67,303.49c0.1,0.09-1.9,2.3-4.45,4.93c-2.56,2.63-4.71,4.69-4.8,4.59
						c-0.1-0.09,1.9-2.3,4.45-4.93C113.42,305.45,115.57,303.4,115.67,303.49z"/>
				</g>
			</g>
		</g>
		<g>
			<g>
				<g>
					<path style="fill:#263238;" d="M121.76,309.58c0.1,0.09-1.36,1.77-3.26,3.74c-1.9,1.98-3.52,3.5-3.61,3.41
						c-0.1-0.09,1.36-1.77,3.26-3.74C120.05,311.01,121.66,309.49,121.76,309.58z"/>
				</g>
			</g>
		</g>
		<g>
			<g>
				<g>
					<path style="fill:#263238;" d="M128.27,316.09c0.1,0.09-1.9,2.3-4.45,4.93c-2.56,2.63-4.71,4.69-4.8,4.59
						c-0.1-0.09,1.9-2.3,4.45-4.93C126.03,318.06,128.18,316,128.27,316.09z"/>
				</g>
			</g>
		</g>
		<g>
			<g>
				<g>
					<path style="fill:#263238;" d="M134.37,322.19c0.1,0.09-1.36,1.77-3.26,3.74c-1.9,1.98-3.52,3.5-3.61,3.41
						c-0.1-0.09,1.36-1.77,3.26-3.74C132.65,323.62,134.27,322.09,134.37,322.19z"/>
				</g>
			</g>
		</g>
		<g>
			<g>
				<path style="fill:#263238;" d="M106.26,288.05c0.28,0.49,11.34,10.61,11.34,10.61l7.18-7.04c0,0,12.28,3.78,20.18-4.9
					c4.63-5.09,5.38-11.67,5.33-15.7c-0.03-2.2-0.83-4.32-2.23-6.02l0,0l-11.28,14.02l-11.19-11.19l11.8-12.24
					c0,0-1.24-2.92-2.59-2.9c-4.11,0.07-11.98,2.65-17.99,9.44c-7.1,8.04-3.44,18.62-3.44,18.62L106.26,288.05z"/>
			</g>
		</g>
		<g>
			<g>
				<path style="fill:#455A64;" d="M103.77,285.75l11.36,10.64l7.66-7.51c0,0,12.28,3.78,20.17-4.9c7.17-7.89,5.04-19.37,5.04-19.37
					l-13.22,11.66l-11.19-11.19l11.8-12.24c0,0-11.53-3.7-20.58,6.55c-7.1,8.04-3.44,18.62-3.44,18.62L103.77,285.75z"/>
			</g>
		</g>
		<g>
			<g>
				<path style="fill:#263238;" d="M91.8,318.87c-0.28-0.49-11.34-10.61-11.34-10.61l-7.18,7.04c0,0-13.5-2.68-20.17,4.9
					c-5.13,5.83-7.38,13.52-7.17,17.31c0.1,1.73,2.13,2.06,2.13,2.06l13.22-11.66l11.19,11.19l-13.93,10.18l0,0
					c1.68,1.63,3.9,2.58,6.24,2.68c4.17,0.19,10.81-0.76,16.47-7.17c7.1-8.04,3.44-18.62,3.44-18.62L91.8,318.87z"/>
			</g>
		</g>
		<g>
			<g>
				<path style="fill:#455A64;" d="M89.67,316.81c-0.28-0.49-11.34-10.61-11.34-10.61l-7.18,7.04c0,0-13.5-2.68-20.17,4.9
					c-7.48,8.5-5.04,19.37-5.04,19.37l13.22-11.66l11.19,11.19l-11.8,12.24c0,0,11.53,3.7,20.58-6.55
					c7.1-8.04,3.44-18.62,3.44-18.62L89.67,316.81z"/>
			</g>
		</g>
	</g>
</g>
<g id="Plant">
	<g>
		<g>
			<g>
				<g>
					<path style="fill:#FF725E;" d="M377.12,393.97c-3.75-2.36-8.05-3.84-12.46-4.29c-2.04-0.21-4.26-0.15-5.89,1.08
						c-0.35,0.26-0.68,0.65-0.61,1.08c0.06,0.31,0.32,0.54,0.58,0.74C363.8,396.44,371.47,396.93,377.12,393.97"/>
				</g>
			</g>
			<g>
				<g>
					<path style="fill:#FF725E;" d="M376.8,393.61c-2.82-2.2-5.66-4.42-8.05-7.08c-2.39-2.66-4.33-5.83-5.05-9.33
						c-0.22-1.06-0.28-2.28,0.4-3.12C370.52,379.09,375.56,385.57,376.8,393.61"/>
				</g>
			</g>
			<g>
				<g>
					<path style="fill:#FF725E;" d="M377.05,393.92c-0.48-3.51-0.66-7.12,0.15-10.57c0.81-3.45,2.68-6.75,5.63-8.72
						c1.11,2.59,0.63,5.58-0.15,8.28c-1.21,4.18-3.1,8.17-5.58,11.75"/>
				</g>
			</g>
			<g>
				<g>
					<path style="fill:#FF725E;" d="M383.34,405.19c-3.82,0.46-7.14,2.48-9.99,5.06c-2.85,2.58-4.88,6.06-5.72,9.81
						c3.74-0.23,6.92-2.87,9.23-5.83c2.3-2.96,3.9-6.21,6.43-8.98"/>
				</g>
			</g>
			<g>
				<g>
					<path style="fill:#FF725E;" d="M384.71,406.99c-3.08-7.57-1.96-16.7,2.85-23.32C389.73,391.41,388.93,400.15,384.71,406.99"/>
				</g>
			</g>
			<g>
				<g>
					<path style="fill:#FF725E;" d="M393.02,416.89c-3.46-0.22-6.99,0.61-10,2.34c-3.01,1.73-5.49,4.36-7.05,7.47
						c-0.21,0.42-0.4,0.96-0.11,1.34c0.25,0.33,0.72,0.36,1.13,0.33c3.36-0.22,6.34-2.24,8.79-4.54c2.46-2.3,4.6-4.96,7.31-6.95"/>
				</g>
			</g>
			<g>
				<g>
					<path style="fill:#FF725E;" d="M392.75,416.35c-1.79-5.72-1.9-11.95-0.32-17.73c0.62-2.28,1.67-4.68,3.78-5.76
						c0.18-0.09,0.39-0.17,0.58-0.1c0.18,0.07,0.28,0.25,0.37,0.42c0.75,1.57,0.97,3.35,0.89,5.09c-0.08,1.74-0.44,3.45-0.8,5.15
						c-0.66,3.15-1.02,6.53-2.74,9.24c-0.41,0.64-0.77,1.34-1.1,2.03c-0.33,0.69-0.33,0.93-0.63,1.48"/>
				</g>
			</g>
			<g>
				<g>
					<path style="fill:#FF725E;" d="M414.75,419.62c-1.63-6.2,0.1-13.71,4.01-18.8c0.29-0.37,0.67-0.78,1.14-0.73
						c0.72,0.07,0.91,1.03,0.87,1.75C420.48,408.18,418.37,414.42,414.75,419.62"/>
				</g>
			</g>
			<g>
				<g>
					<path style="fill:#FF725E;" d="M416.73,420.98c7.53,1.96,16.17,0.05,22.44-4.56c-3.71-1.88-8.09-2.42-12.15-1.49
						C422.96,415.85,419.26,417.67,416.73,420.98"/>
				</g>
			</g>
			<g>
				<g>
					<path style="fill:#FF725E;" d="M418.4,416.85c4.22-6.88,12.3-11.37,20.36-11.77c-0.93,3.28-3.62,5.82-6.66,7.36
						c-3.04,1.54-6.43,2.21-9.77,2.86C421.03,415.55,419.25,415.83,418.4,416.85"/>
				</g>
			</g>
			<g>
				<g>
					<path style="fill:#FF725E;" d="M415.17,396.82c1.14-3.91,2.29-7.86,2.6-11.93c0.31-4.06-0.27-8.31-2.38-11.8
						c-3.94,7.62-4.34,16.53-0.35,24.13"/>
				</g>
			</g>
			<g>
				<g>
					<path style="fill:#FF725E;" d="M428.43,390.12c4.61-8.37,14.01-15.06,23.52-16C448.28,383.25,438.28,390.31,428.43,390.12"/>
				</g>
			</g>
			<g>
				<g>
					<path style="fill:#FF725E;" d="M425.53,391.76c6.87,1.05,12.73,5.44,19.15,8.1c1.37,0.57,2.85,1.02,4.33,0.83
						c1.47-0.19,2.93-1.18,3.26-2.63c0.27-1.2-0.27-2.48-1.14-3.36c-0.86-0.88-2-1.43-3.14-1.91c-6.99-2.91-14.5-2.98-21.86-1.22"/>
				</g>
			</g>
			<g>
				<g>
					<path style="fill:#FF725E;" d="M421.56,396.58c1.56,0.45,2.09,1.25,3.32,2.3c4.18,3.56,9.19,6.13,14.52,7.46
						c0.55,0.14,1.28,0.19,1.56-0.31c0.24-0.44-0.06-0.97-0.38-1.36c-2.23-2.79-5.42-4.7-8.77-5.95c-3.35-1.25-6.25-2.75-10.25-2.43
						"/>
				</g>
			</g>
			<g>
				<g>
					<path style="fill:#FF725E;" d="M417.07,367.47c5.59,5.22,13.46,7.89,21.07,7.17c0.35-0.03,0.72-0.09,0.96-0.34
						c0.53-0.58-0.11-1.47-0.72-1.95C432.18,367.52,424.68,365.51,417.07,367.47"/>
				</g>
			</g>
			<g>
				<g>
					<path style="fill:#FF725E;" d="M422.39,365.52c7.39-5.54,17.52-7.21,26.29-4.34c-3.31,3.26-7.9,5.02-12.53,5.5
						C431.53,367.17,426.9,366.65,422.39,365.52"/>
				</g>
			</g>
			<g>
				<g>
					<path style="fill:#FF725E;" d="M420.28,352.15c-0.61-6.18-0.21-11.06-0.64-17.27c-0.03-0.5-0.14-1.09-0.61-1.27
						c-0.65-0.25-1.19,0.55-1.4,1.2c-1.84,5.73-0.83,12.29,2.64,17.21"/>
				</g>
			</g>
			<g>
				<g>
					<path style="fill:#FF725E;" d="M419.83,352.83c4.19-2.59,7.33-5.98,10.24-9.95c2.02-2.77,3.73-6.08,3.27-9.48
						c-2.84-0.06-5.54,1.51-7.39,3.67c-1.85,2.16-2.95,4.86-3.77,7.58C421.37,347.36,420.79,350.16,419.83,352.83"/>
				</g>
			</g>
			<g>
				<g>
					<path style="fill:#FF725E;" d="M429.89,350.03c9.2-3.4,17.78-8.46,25.2-14.86c-3.01-1.21-6.46-0.49-9.47,0.73
						c-6.88,2.78-12.49,7.46-15.87,14.07"/>
				</g>
			</g>
			<g>
				<g>
					<path style="fill:#FF725E;" d="M422.66,356.21c4.65,0.51,9.38,0.84,13.99,0.07c4.54-0.76,8.82-2.56,13.06-4.34
						c0.35-0.15,0.73-0.33,0.89-0.67c0.17-0.38-0.01-0.84-0.32-1.12c-0.31-0.28-0.72-0.41-1.11-0.52
						c-4.61-1.29-9.58-0.69-14.12,0.84C430.52,352,426.8,353.81,422.66,356.21"/>
				</g>
			</g>
			<g>
				<g>
					<path style="fill:#FF725E;" d="M396.09,367.68c-3.17-6.41-2.97-13.88-0.23-20.49c1.93,2.94,2.17,6.69,1.81,10.19
						c-0.35,3.5-1.42,7.1-1.49,10.62"/>
				</g>
			</g>
			<g>
				<g>
					<path style="fill:#FF725E;" d="M383.41,361.29c-7.93-0.15-15.85,3.23-21.23,9.05c3.96,0.62,8.03-0.4,11.63-2.16
						s6.8-4.22,9.96-6.67"/>
				</g>
			</g>
			<g>
				<g>
					<path style="fill:#FF725E;" d="M374.89,358.43c-3.88-0.31-7.61-0.79-11.34,0.35c-3.73,1.14-7.12,3.74-8.64,7.33
						c3.63,0.41,7.3-0.5,10.63-2.01C368.86,362.6,371.89,360.51,374.89,358.43"/>
				</g>
			</g>
			<g>
				<g>
					<path style="fill:#FF725E;" d="M387.51,358.56c-3.49-2.29-7.07-4.61-11.13-5.56c-4.06-0.95-8.77-0.25-11.6,2.81
						c3.29,1.93,7.28,2.16,11.09,2.15c3.81,0,8.48-0.05,12.08,1.23"/>
				</g>
			</g>
			<g>
				<g>
					<path style="fill:#FF725E;" d="M387.53,358.75c-5.96-5.86-8.22-16.37-5.82-24.38C386.39,341.49,388.49,350.28,387.53,358.75"/>
				</g>
			</g>
			<g>
				<g>
					<path style="fill:#FF725E;" d="M403.93,342.16c1.12-2.61,1.92-5.36,2.92-8.02c1.01-2.66,2.26-5.28,4.17-7.39
						s4.54-3.69,7.38-3.83c-1.78,8.06-7.13,15.26-14.33,19.28"/>
				</g>
			</g>
			<g>
				<g>
					<path style="fill:#FF725E;" d="M400.96,345.62c-1.86-2.56-4.01-6.04-6.53-7.95c-2.52-1.91-5.81-3.07-8.89-2.33
						C388.67,340.93,394.59,344.88,400.96,345.62"/>
				</g>
			</g>
			<g>
				<g>
					<path style="fill:#FF725E;" d="M401.55,342.37c-1.22-3.1-2.45-6.23-2.94-9.53c-0.49-3.29-0.19-6.81,1.49-9.69
						c3.27,6.19,4.33,12.83,1.62,19.28"/>
				</g>
			</g>
			<g>
				<g>
					<path style="fill:#FF725E;" d="M403.96,323.16c1.85-6.13,7.47-10.65,13.53-12.72c0.76-0.26,1.57-0.48,2.37-0.36
						s1.58,0.67,1.75,1.46c0.22,1.04-0.64,1.98-1.45,2.67C415.44,318.25,409.89,321.32,403.96,323.16"/>
				</g>
			</g>
			<g>
				<g>
					<path style="fill:#FF725E;" d="M404.02,318.14c0.24-3.95,0.48-7.97,1.77-11.71c1.29-3.75,3.77-7.26,7.37-8.9
						c0.61,3.99-1.15,7.97-3.27,11.4c-2.13,3.44-4.69,6.68-5.96,10.52"/>
				</g>
			</g>
			<g>
				<g>
					<path style="fill:#FF725E;" d="M403.93,320.87c-1.53-4.47-1.69-10.15-4.37-14.04c-1.87-2.72-4.87-4.58-6.48-7.46
						c-1.07,2.69-0.74,5.8,0.38,8.47c1.12,2.67,2.97,4.97,4.95,7.09C400.39,317.04,402.09,318.63,403.93,320.87"/>
				</g>
			</g>
			<g>
				<g>
					<g>
						<path style="fill:#263238;" d="M403.96,452.5c-0.12,0-0.22-29.82-0.23-66.59c-0.01-36.79,0.08-66.6,0.2-66.6
							c0.12,0,0.22,29.81,0.23,66.6C404.17,422.69,404.08,452.5,403.96,452.5z"/>
					</g>
				</g>
			</g>
			<g>
				<g>
					<g>
						<path style="fill:#263238;" d="M430.02,363.18c0.01,0.03-0.39,0.18-1.12,0.42c-0.81,0.27-1.84,0.62-3.09,1.04
							c-2.6,0.89-6.18,2.17-10.05,3.76c-3.84,1.65-7.46,2.99-9.53,4.77c-1.03,0.88-1.62,1.84-1.91,2.53
							c-0.3,0.7-0.35,1.13-0.39,1.12c-0.01,0-0.01-0.11,0.01-0.31c0.03-0.2,0.09-0.5,0.22-0.87c0.25-0.74,0.83-1.76,1.87-2.7
							c1.04-0.95,2.48-1.79,4.13-2.57c1.65-0.77,3.49-1.58,5.43-2.38c3.89-1.59,7.49-2.84,10.12-3.65c1.31-0.41,2.39-0.71,3.13-0.91
							C429.59,363.25,430.01,363.15,430.02,363.18z"/>
					</g>
				</g>
			</g>
			<g>
				<g>
					<g>
						<path style="fill:#263238;" d="M438.56,342.2c0.01,0.01-0.1,0.13-0.31,0.34c-0.25,0.24-0.57,0.54-0.96,0.9
							c-0.89,0.81-2.1,1.91-3.57,3.25c-3.08,2.75-7.27,6.47-11.89,10.59c-4.64,4.13-8.65,8.08-11.43,11.05
							c-1.39,1.48-2.49,2.71-3.24,3.57c-0.35,0.4-0.63,0.72-0.86,0.99c-0.2,0.22-0.31,0.34-0.32,0.33
							c-0.01-0.01,0.08-0.14,0.26-0.38c0.18-0.24,0.44-0.6,0.8-1.04c0.71-0.89,1.77-2.16,3.14-3.67c2.73-3.03,6.72-7.03,11.37-11.17
							c4.66-4.12,8.9-7.82,11.97-10.49c1.51-1.3,2.75-2.36,3.66-3.14c0.41-0.34,0.74-0.62,1.01-0.84
							C438.42,342.28,438.55,342.19,438.56,342.2z"/>
					</g>
				</g>
			</g>
			<g>
				<g>
					<g>
						<path style="fill:#263238;" d="M416.81,361.47c-0.12-0.05,0.85-2.29,1.81-5.12c0.98-2.83,1.43-5.22,1.56-5.2
							c0.11,0.01-0.16,2.47-1.15,5.34c-0.49,1.43-1.02,2.69-1.44,3.58C417.17,360.96,416.87,361.49,416.81,361.47z"/>
					</g>
				</g>
			</g>
			<g>
				<g>
					<g>
						<path style="fill:#263238;" d="M403.98,379.52c-0.02,0.02-0.28-0.28-0.72-0.83c-0.49-0.62-1.1-1.41-1.83-2.35
							c-1.54-1.99-3.67-4.74-6.05-7.74c-2.39-3.01-4.58-5.7-6.17-7.65c-0.75-0.93-1.38-1.7-1.87-2.32
							c-0.44-0.55-0.67-0.87-0.65-0.88c0.02-0.02,0.3,0.26,0.77,0.78c0.48,0.52,1.15,1.28,1.98,2.23c1.65,1.9,3.88,4.57,6.27,7.58
							c2.39,3.01,4.48,5.79,5.96,7.83c0.74,1.02,1.33,1.85,1.72,2.43C403.8,379.17,404.01,379.5,403.98,379.52z"/>
					</g>
				</g>
			</g>
			<g>
				<g>
					<g>
						<path style="fill:#263238;" d="M398.27,372.18c-0.07,0.08-1.59-1.73-2.39-4.48c-0.59-1.94-0.62-3.71-0.54-4.52l0.19,0.02
							c-0.09,0.35-0.15,0.53-0.18,0.52c-0.03-0.01-0.04-0.2-0.01-0.55l0.19,0.02c0.07,0.8,0.19,2.51,0.76,4.4
							C397.06,370.24,398.39,372.11,398.27,372.18z"/>
					</g>
				</g>
			</g>
			<g>
				<g>
					<g>
						<path style="fill:#263238;" d="M390.89,362.9c-0.06,0.06-0.55-0.56-1.67-0.97c-1.12-0.43-2.8-0.53-4.64-0.37
							c-1.85,0.14-3.49,0.46-4.67,0.75c-1.18,0.29-1.9,0.52-1.92,0.46c-0.02-0.05,0.67-0.38,1.84-0.75
							c1.17-0.37,2.84-0.75,4.72-0.89c1.86-0.16,3.63-0.02,4.79,0.52C390.51,362.17,390.93,362.89,390.89,362.9z"/>
					</g>
				</g>
			</g>
			<g>
				<g>
					<g>
						<path style="fill:#263238;" d="M389.15,360.65c-0.03,0.07-0.97-0.39-2.56-0.93c-1.58-0.54-3.84-1.12-6.39-1.31
							c-2.55-0.19-4.87,0.03-6.51,0.33c-1.65,0.3-2.65,0.6-2.67,0.53c-0.01-0.03,0.23-0.13,0.68-0.29c0.44-0.17,1.11-0.36,1.93-0.54
							c1.65-0.38,4.01-0.66,6.61-0.46c2.59,0.2,4.88,0.83,6.46,1.46c0.79,0.31,1.41,0.6,1.83,0.83
							C388.94,360.49,389.16,360.63,389.15,360.65z"/>
					</g>
				</g>
			</g>
			<g>
				<g>
					<g>
						<path style="fill:#263238;" d="M403.93,351.14c-0.12,0.03-0.95-2.87-1.87-6.49c-0.92-3.61-1.56-6.56-1.45-6.59
							c0.12-0.03,0.95,2.87,1.87,6.49C403.39,348.16,404.04,351.11,403.93,351.14z"/>
					</g>
				</g>
			</g>
			<g>
				<g>
					<g>
						<path style="fill:#263238;" d="M404.05,351.14c-0.13,0.04-0.67-1.9-2.07-3.88c-1.37-2.03-3.11-3.04-3.05-3.14
							c0.02-0.05,0.5,0.13,1.18,0.61c0.67,0.47,1.51,1.26,2.22,2.29C403.79,349.08,404.15,351.14,404.05,351.14z"/>
					</g>
				</g>
			</g>
			<g>
				<g>
					<g>
						<path style="fill:#263238;" d="M403.96,436.61c-0.05,0.01-0.13-0.72-0.47-1.98c-0.33-1.27-0.96-3.06-1.99-5.16
							c-2.06-4.21-5.81-9.55-10.57-14.89c-2.36-2.7-4.65-5.24-6.59-7.68c-1.95-2.43-3.55-4.75-4.72-6.8
							c-1.17-2.05-1.93-3.81-2.38-5.05c-0.22-0.62-0.38-1.11-0.47-1.44c-0.09-0.33-0.14-0.51-0.12-0.51
							c0.04-0.01,0.26,0.68,0.75,1.9c0.49,1.21,1.29,2.94,2.49,4.95c1.19,2.02,2.81,4.3,4.76,6.71c1.95,2.41,4.24,4.94,6.61,7.64
							c4.78,5.36,8.52,10.77,10.52,15.05c1.01,2.14,1.6,3.97,1.88,5.25c0.14,0.65,0.23,1.15,0.26,1.5
							C403.96,436.43,403.97,436.61,403.96,436.61z"/>
					</g>
				</g>
			</g>
			<g>
				<g>
					<g>
						<path style="fill:#263238;" d="M427.5,410.01c0.01,0.03-0.44,0.26-1.23,0.69c-0.79,0.44-1.91,1.13-3.2,2.12
							c-1.29,0.99-2.73,2.28-4.2,3.83c-1.48,1.56-3,3.37-4.55,5.31c-3.1,3.89-6,7.33-7.74,10.08c-0.88,1.36-1.52,2.51-1.94,3.32
							c-0.42,0.8-0.65,1.26-0.68,1.24c-0.01-0.01,0.03-0.13,0.11-0.35c0.09-0.22,0.22-0.56,0.41-0.97c0.38-0.83,0.98-2.01,1.84-3.41
							c1.69-2.82,4.56-6.31,7.66-10.19c1.55-1.94,3.09-3.76,4.6-5.31c1.51-1.55,2.98-2.84,4.31-3.8c1.32-0.97,2.48-1.62,3.31-2.02
							c0.41-0.21,0.74-0.33,0.96-0.43C427.38,410.04,427.5,410,427.5,410.01z"/>
					</g>
				</g>
			</g>
			<g>
				<g>
					<g>
						<path style="fill:#263238;" d="M427.97,418.64c0.01,0.06-1,0.18-2.61,0.38c-1.61,0.21-3.84,0.48-6.19,1.22
							c-2.33,0.76-4.28,1.92-5.54,2.91c-1.28,0.99-1.88,1.8-1.94,1.76c-0.02-0.02,0.1-0.24,0.39-0.6c0.28-0.37,0.74-0.85,1.36-1.39
							c1.24-1.07,3.2-2.3,5.6-3.08c2.4-0.76,4.67-0.98,6.29-1.11C426.95,418.6,427.96,418.58,427.97,418.64z"/>
					</g>
				</g>
			</g>
			<g>
				<g>
					<g>
						<path style="fill:#263238;" d="M412.45,423.95c-0.14-0.08,1.04-1.87,1.95-4.29c0.86-2.44,1.06-4.57,1.21-4.55
							c0.06,0.01,0.05,0.54-0.04,1.4c-0.1,0.86-0.31,2.04-0.76,3.3c-0.46,1.25-1.05,2.3-1.51,3.02
							C412.83,423.56,412.5,423.98,412.45,423.95z"/>
					</g>
				</g>
			</g>
			<g>
				<g>
					<g>
						<path style="fill:#263238;" d="M435.13,386.85c0.01,0.01-0.14,0.09-0.42,0.22c-0.32,0.15-0.73,0.33-1.23,0.56
							c-0.54,0.23-1.19,0.52-1.92,0.91c-0.74,0.38-1.6,0.77-2.49,1.31c-0.45,0.26-0.93,0.53-1.42,0.81
							c-0.49,0.28-0.98,0.62-1.5,0.95c-1.05,0.64-2.1,1.42-3.22,2.22c-2.19,1.67-4.5,3.64-6.72,5.91c-2.2,2.3-4.09,4.67-5.68,6.92
							c-0.76,1.15-1.51,2.23-2.11,3.3c-0.31,0.53-0.63,1.03-0.89,1.53c-0.26,0.5-0.52,0.99-0.76,1.45
							c-0.51,0.91-0.87,1.79-1.22,2.54c-0.36,0.75-0.63,1.41-0.84,1.95c-0.21,0.5-0.38,0.92-0.51,1.24
							c-0.12,0.28-0.19,0.43-0.21,0.42c-0.01,0,0.03-0.16,0.13-0.45c0.12-0.34,0.26-0.76,0.44-1.28c0.19-0.56,0.44-1.23,0.78-1.99
							c0.34-0.76,0.68-1.65,1.17-2.58c0.24-0.47,0.48-0.96,0.74-1.47c0.26-0.51,0.58-1.02,0.88-1.55c0.59-1.09,1.33-2.18,2.09-3.34
							c1.58-2.28,3.48-4.68,5.7-7c2.24-2.3,4.57-4.27,6.8-5.93c1.14-0.8,2.2-1.58,3.27-2.2c0.53-0.32,1.02-0.65,1.52-0.93
							c0.5-0.27,0.98-0.54,1.45-0.79c0.91-0.52,1.78-0.9,2.53-1.26c0.75-0.37,1.41-0.64,1.96-0.85c0.51-0.2,0.93-0.36,1.26-0.48
							C434.97,386.88,435.13,386.83,435.13,386.85z"/>
					</g>
				</g>
			</g>
			<g>
				<g>
					<g>
						<path style="fill:#263238;" d="M416.49,399.33c-0.04-0.01,0.17-0.73,1.02-1.53c0.83-0.79,2.36-1.53,4.13-1.58
							c1.77-0.05,3.3,0.45,4.34,0.85c1.05,0.41,1.66,0.75,1.64,0.8c-0.02,0.06-0.68-0.18-1.74-0.51c-1.06-0.32-2.56-0.75-4.23-0.71
							c-1.67,0.05-3.11,0.69-3.94,1.38C416.86,398.73,416.56,399.38,416.49,399.33z"/>
					</g>
				</g>
			</g>
			<g>
				<g>
					<g>
						<path style="fill:#263238;" d="M413.71,402.21c-0.12-0.07,0.93-1.61,1.17-3.81c0.28-2.2-0.39-3.95-0.26-3.98
							c0.05-0.02,0.28,0.39,0.48,1.11c0.2,0.72,0.34,1.77,0.21,2.92c-0.14,1.15-0.51,2.14-0.87,2.79
							C414.07,401.9,413.75,402.24,413.71,402.21z"/>
					</g>
				</g>
			</g>
		</g>
		<g>
			<g>
				<path style="fill:#455A64;" d="M383.36,440.88c0.64,11.4,4.08,22.99,9.36,34.7h22.97c5.04-11.6,8.23-23.17,8.8-34.7H383.36z"/>
			</g>
		</g>
		<g>
			<g>
				<g>
					<path style="fill:#FAFAFA;" d="M420.77,459.32c0,0.12-7.56,0.22-16.89,0.22c-9.33,0-16.89-0.1-16.89-0.22
						c0-0.12,7.56-0.22,16.89-0.22C413.21,459.11,420.77,459.2,420.77,459.32z"/>
				</g>
			</g>
		</g>
		<g>
			<g>
				<g>
					<path style="fill:#FAFAFA;" d="M420.26,463.45c0,0.12-7.09,0.22-15.83,0.22c-8.75,0-15.83-0.1-15.83-0.22
						c0-0.12,7.09-0.22,15.83-0.22C413.17,463.23,420.26,463.33,420.26,463.45z"/>
				</g>
			</g>
		</g>
		<g>
			<g>
				<g>
					<path style="fill:#FAFAFA;" d="M393.09,448.36c0.12,0,0.22,2.37,0.22,5.29c0,2.92-0.1,5.29-0.22,5.29
						c-0.12,0-0.22-2.37-0.22-5.29C392.88,450.73,392.97,448.36,393.09,448.36z"/>
				</g>
			</g>
		</g>
		<g>
			<g>
				<g>
					<path style="fill:#FAFAFA;" d="M405.4,448.36c0.12,0,0.22,2.45,0.22,5.48c0,3.03-0.1,5.48-0.22,5.48s-0.22-2.45-0.22-5.48
						C405.18,450.82,405.28,448.36,405.4,448.36z"/>
				</g>
			</g>
		</g>
		<g>
			<g>
				<g>
					<path style="fill:#FAFAFA;" d="M416.95,448.27c0.12,0,0.22,2.5,0.22,5.59c0,3.09-0.1,5.59-0.22,5.59
						c-0.12,0-0.22-2.5-0.22-5.59C416.74,450.77,416.83,448.27,416.95,448.27z"/>
				</g>
			</g>
		</g>
		<g>
			<g>
				<g>
					<path style="fill:#FAFAFA;" d="M423.76,448.36c0,0.12-8.87,0.22-19.81,0.22c-10.94,0-19.81-0.1-19.81-0.22
						c0-0.12,8.87-0.22,19.81-0.22C414.89,448.15,423.76,448.24,423.76,448.36z"/>
				</g>
			</g>
		</g>
	</g>
</g>
<g id="Character">
	<g>
		<g>
			<path style="fill:#FFBE9D;" d="M251.96,178.13c0,0-3.06-2.41-4.7-6.2c-1.64-3.8-2.81-12.04-2.81-12.04s0.39-9.69,1.21-10.04
				c0.81-0.35,1.69,0.04,1.72,1.45c0.03,1.4,1.02,7.6,1.02,7.6s1.61-0.89,2.52-0.12c0.91,0.77,1.07,1.42,1.07,1.42
				s1.61-0.72,2.57-0.42c0.96,0.29,1.57,0.8,1.57,0.8s0.7-0.62,1.69,0.04c0.99,0.67,1.63,1.55,1.63,1.55s0.65,4.35,0.19,5.51
				c-0.46,1.16-1.13,2.67-1.13,2.67l0.39,1.69l2.91,2.45L251.96,178.13z"/>
		</g>
		<g>
			<g>
				<g>
					<g>
						<g>
							<g>
								<polygon style="fill:#FF725E;" points="218.96,449.23 215.34,476.23 200.73,474.57 204.31,447.5 								"/>
							</g>
						</g>
					</g>
				</g>
				<g>
					<g>
						<g>
							<g>
								<g>
									<path style="fill:#263238;" d="M208.26,474.39c-0.12-0.02,0.65-5.93,1.72-13.21c1.07-7.28,2.04-13.17,2.16-13.15
										c0.12,0.02-0.65,5.93-1.72,13.21C209.34,468.52,208.38,474.41,208.26,474.39z"/>
								</g>
							</g>
						</g>
					</g>
				</g>
				<g>
					<g>
						<g>
							<g>
								<polygon style="fill:#263238;" points="215.59,474.37 200.98,472.66 200.73,474.57 215.34,476.23 								"/>
							</g>
						</g>
					</g>
				</g>
				<g>
					<g>
						<g>
							<g>
								<g>
									<path style="fill:#263238;" d="M201.87,465.92c-0.02-0.02,0.13-0.22,0.45-0.54c0.32-0.32,0.82-0.75,1.49-1.21
										c0.67-0.45,1.53-0.93,2.57-1.25c1.03-0.33,2.25-0.5,3.5-0.32c2.52,0.35,4.46,1.88,5.34,3.25c0.46,0.68,0.71,1.3,0.85,1.73
										c0.13,0.44,0.17,0.68,0.14,0.69c-0.09,0.03-0.3-0.97-1.24-2.24c-0.9-1.27-2.76-2.66-5.15-3c-2.38-0.34-4.51,0.59-5.84,1.39
										C202.63,465.26,201.93,465.98,201.87,465.92z"/>
								</g>
							</g>
						</g>
					</g>
				</g>
				<g style="opacity:0.3;">
					<polygon points="217.5,459.98 217.15,462.73 202.47,461.39 202.83,458.61 					"/>
				</g>
			</g>
			<g>
				<g>
					<g>
						<g>
							<g>
								<polygon style="fill:#FF725E;" points="246.96,451.24 245.38,477.03 231.45,476.46 232.98,450.61 								"/>
							</g>
						</g>
					</g>
				</g>
				<g>
					<g>
						<g>
							<g>
								<g>
									<path style="fill:#263238;" d="M238.55,475.78c-0.12-0.01,0.21-5.66,0.72-12.61c0.51-6.96,1.03-12.59,1.14-12.58
										c0.12,0.01-0.21,5.66-0.72,12.62C239.18,470.15,238.67,475.79,238.55,475.78z"/>
								</g>
							</g>
						</g>
					</g>
				</g>
				<g>
					<g>
						<g>
							<g>
								<polygon style="fill:#263238;" points="245.49,475.26 231.55,474.63 231.45,476.46 245.38,477.03 								"/>
							</g>
						</g>
					</g>
				</g>
				<g>
					<g>
						<g>
							<g>
								<g>
									<path style="fill:#263238;" d="M231.94,468.2c-0.02-0.02,0.11-0.21,0.39-0.54c0.28-0.32,0.72-0.77,1.33-1.24
										c0.61-0.47,1.39-0.98,2.35-1.36c0.95-0.39,2.09-0.63,3.29-0.54c2.41,0.16,4.35,1.47,5.27,2.71
										c0.48,0.61,0.76,1.18,0.92,1.58c0.15,0.4,0.2,0.64,0.18,0.64c-0.08,0.04-0.35-0.9-1.33-2.03
										c-0.94-1.14-2.79-2.33-5.07-2.48c-2.27-0.16-4.23,0.86-5.43,1.72C232.61,467.53,231.99,468.25,231.94,468.2z"/>
								</g>
							</g>
						</g>
					</g>
				</g>
				<g style="opacity:0.3;">
					<polygon points="246.43,461.66 246.18,463.96 232.2,463.69 232.34,461.4 					"/>
				</g>
			</g>
			<g>
				<path style="fill:#263238;" d="M193.03,310.03c-0.42,0.03-1.01,15.59-0.66,22.08c0.35,6.49,10.36,58.56,10.36,58.56
					s-1.63,12.36-2.4,23.63c-0.21,3.05,0.73,44.02,0.73,44.02l16.67,3.05c0,0,8.38-60.67,8.73-69.07c0.35-8.4,1.21-62.4,1.21-62.4
					s2.74,49.81,2.74,58.21c0,8.4-0.15,73.05-0.15,73.05s12.35,1.92,18.28,0.36c0,0,4.13-54.91,5.79-70.86
					c1.54-14.88,7.93-65.17,7.93-65.17s-1.25,18.47,0,0c1.05-15.49-1.36-30.92-1.36-30.92l-48.5-6.11L193.03,310.03z"/>
			</g>
			<g>
				<g>
					<path style="fill:#FF725E;" d="M281.63,208.82c-3.81-10.56-11.05-21.92-16.29-32.18c-0.99-1.93-2.7-4.73-2.7-4.73l-14.27,6.85
						c0,0,7.74,16.25,11.79,22.39c-2.46-2.07-12.03-9.8-15.21-9.37l6.29,32.5c0,0,8.81,4.73,13.96,6.4
						c6.19,2.01,13.39,2.95,16.44-1.51C284.22,225.41,283.73,214.64,281.63,208.82z"/>
				</g>
				<g>
					<path style="fill:#FF725E;" d="M181.19,206.1c0,0-26.43,45.09-26.54,52.3c-0.19,12.8,34.39,20.85,34.39,20.85l6.65-12.47
						l-18.29-12.7l13.48-29.27L181.19,206.1z"/>
				</g>
				<g>
					<path style="fill:#FF725E;" d="M252.03,264.15c0,0-0.2-55.48-0.88-60.05c-0.68-4.57-1.2-9.93-3.84-11.68
						c-5.86-3.88-39.7,1.14-39.7,1.14s-8.43,2.12-15.96,3.04c-7.53,0.91-11.32,11.51-11.32,11.51c-1.94,4.89,20.57,59.9,21.09,62.1
						c1.18,4.91-13.02,32.35-9.37,45.42c0,0,15.25-1.6,33.78-2.99c19.93-1.53,37.8-2.53,37.8-3.48
						C263.7,294.83,252.03,264.15,252.03,264.15z"/>
				</g>
				<g>
					<path style="fill:#263238;" d="M231.69,264.15c0.03,0.02-0.2,0.41-0.65,1.12c-0.43,0.71-1.12,1.7-2.02,2.88
						c-1.79,2.37-4.55,5.45-8.06,8.34c-3.51,2.88-7.06,5-9.73,6.31c-1.33,0.66-2.43,1.14-3.21,1.43c-0.77,0.3-1.21,0.45-1.22,0.42
						c-0.01-0.03,0.4-0.24,1.15-0.59c0.75-0.34,1.83-0.87,3.13-1.56c2.61-1.37,6.1-3.51,9.59-6.37c3.47-2.87,6.24-5.88,8.09-8.18
						c0.93-1.15,1.65-2.1,2.13-2.78C231.38,264.5,231.66,264.14,231.69,264.15z"/>
				</g>
				<g>
					<g>
						<path style="fill:#263238;" d="M252.03,264.15c-0.02,0-0.04-0.19-0.06-0.56c-0.02-0.42-0.04-0.95-0.06-1.6
							c-0.03-1.46-0.06-3.45-0.1-5.88c-0.03-5.03-0.08-11.86-0.13-19.4c-0.05-7.58-0.12-14.44-0.24-19.4
							c-0.07-2.43-0.12-4.41-0.16-5.88c-0.02-0.65-0.04-1.17-0.05-1.6c-0.01-0.37,0-0.56,0.02-0.56c0.02,0,0.05,0.19,0.09,0.55
							c0.04,0.42,0.09,0.95,0.15,1.59c0.11,1.39,0.23,3.39,0.33,5.87c0.21,4.96,0.34,11.83,0.39,19.41
							c0.05,7.58,0.02,14.44-0.02,19.4c-0.03,2.43-0.05,4.42-0.06,5.88c-0.02,0.65-0.03,1.18-0.04,1.6
							C252.06,263.96,252.05,264.15,252.03,264.15z"/>
					</g>
				</g>
				<g>
					<g>
						<path style="fill:#263238;" d="M189.77,239.88c-0.13,0.05-2.25-5.16-4.72-11.64c-2.47-6.48-4.37-11.77-4.24-11.82
							c0.13-0.05,2.25,5.16,4.72,11.64C188.01,234.54,189.91,239.83,189.77,239.88z"/>
					</g>
				</g>
				<g>
					<g>
						<path style="fill:#FFFFFF;" d="M248.75,193.18c0,0.02-0.24,0.07-0.71,0.16c-0.52,0.09-1.2,0.21-2.05,0.37
							c-1.84,0.32-4.41,0.78-7.55,1.33c-6.37,1.15-15.14,2.89-24.76,5.15c-9.61,2.28-18.23,4.66-24.45,6.48
							c-3.06,0.91-5.56,1.66-7.35,2.19c-0.83,0.25-1.49,0.44-2,0.59c-0.46,0.13-0.7,0.19-0.71,0.17c-0.01-0.02,0.23-0.11,0.68-0.27
							c0.5-0.17,1.15-0.4,1.97-0.69c1.71-0.59,4.21-1.4,7.3-2.35c6.19-1.92,14.81-4.36,24.43-6.64c9.62-2.27,18.42-3.95,24.81-5.01
							c3.2-0.53,5.79-0.93,7.58-1.17c0.86-0.11,1.54-0.2,2.07-0.27C248.5,193.18,248.75,193.16,248.75,193.18z"/>
					</g>
				</g>
				<g>
					<g>
						<path style="fill:#FFFFFF;" d="M251.57,219.1c0,0.02-0.22,0.08-0.65,0.19c-0.48,0.11-1.1,0.25-1.88,0.43
							c-1.7,0.36-4.05,0.86-6.93,1.48c-5.86,1.21-13.97,2.81-22.95,4.44c-8.99,1.63-17.14,2.99-23.05,3.91
							c-2.91,0.44-5.29,0.79-7.01,1.05c-0.79,0.1-1.42,0.19-1.91,0.25c-0.44,0.05-0.67,0.07-0.67,0.05c0-0.02,0.22-0.07,0.66-0.16
							c0.49-0.09,1.11-0.21,1.89-0.35c1.71-0.3,4.08-0.71,6.98-1.22c5.9-1.02,14.04-2.43,23.02-4.06c8.98-1.63,17.1-3.17,22.97-4.29
							c2.89-0.55,5.26-0.99,6.96-1.32c0.78-0.14,1.41-0.25,1.9-0.34C251.34,219.11,251.57,219.08,251.57,219.1z"/>
					</g>
				</g>
				<g>
					<g>
						<path style="fill:#FFFFFF;" d="M251.57,249.17c0,0.02-0.19,0.06-0.55,0.13c-0.42,0.07-0.94,0.17-1.58,0.28
							c-1.37,0.23-3.37,0.55-5.83,0.91c-4.93,0.73-11.75,1.64-19.29,2.59c-7.51,0.95-14.3,1.8-19.31,2.44
							c-2.42,0.31-4.4,0.56-5.85,0.75c-0.64,0.07-1.17,0.14-1.59,0.18c-0.37,0.04-0.56,0.05-0.56,0.03c0-0.02,0.19-0.06,0.55-0.13
							c0.42-0.07,0.94-0.17,1.58-0.28c1.37-0.23,3.37-0.55,5.83-0.91c4.93-0.73,11.75-1.64,19.3-2.59c7.51-0.95,14.3-1.8,19.31-2.43
							c2.42-0.31,4.4-0.56,5.85-0.75c0.64-0.07,1.17-0.14,1.59-0.18C251.37,249.17,251.57,249.16,251.57,249.17z"/>
					</g>
				</g>
				<g style="opacity:0.3;">
					<g>
						<path d="M217.06,195.82c-1.49-2.58-3.41-4.88-5.13-7.31c-1.72-2.43-3.26-5.08-3.8-8.01c-0.07-0.38-0.13-0.78-0.36-1.09
							c-0.4-0.54-1.18-0.65-1.84-0.5c-1.22,0.28-2.19,1.27-2.72,2.41c-0.53,1.14-0.67,2.42-0.72,3.67
							c-0.14,3.56,0.39,7.15,1.58,10.52c1.16,3.3,2.94,6.43,3.4,9.89c0.46,3.49-0.45,7.01-0.55,10.54
							c-0.13,4.66,1.18,9.23,2.47,13.71c4.35-5.12,6.37-11.85,5.01-18.43c2.81-0.99,4.62-3.93,4.9-6.9
							C219.59,201.36,218.55,198.4,217.06,195.82z"/>
					</g>
				</g>
				<g>
					<g>
						<path style="fill:#FFFFFF;" d="M215.58,279.54c0,0.14-3.61,0.23-8.06,0.2c-4.45-0.04-8.06-0.18-8.06-0.33
							c0-0.14,3.61-0.23,8.06-0.2C211.97,279.25,215.58,279.4,215.58,279.54z"/>
					</g>
				</g>
				<g>
					<g>
						<path style="fill:#FFFFFF;" d="M254.74,272.38c0,0.04-0.48,0.11-1.35,0.22c-0.98,0.11-2.22,0.25-3.71,0.42
							c-3.13,0.34-7.46,0.83-12.22,1.43c-4.77,0.6-9.08,1.21-12.2,1.66c-1.48,0.21-2.72,0.38-3.7,0.52
							c-0.87,0.12-1.36,0.16-1.37,0.13c-0.01-0.04,0.47-0.15,1.33-0.33c0.86-0.18,2.12-0.41,3.67-0.68
							c3.11-0.54,7.41-1.21,12.19-1.81c4.77-0.6,9.11-1.03,12.25-1.28c1.57-0.13,2.84-0.21,3.73-0.25
							C254.25,272.35,254.74,272.34,254.74,272.38z"/>
					</g>
				</g>
				<g>
					<g>
						<path style="fill:#FFFFFF;" d="M262.88,301.45c0,0.02-0.24,0.07-0.71,0.15c-0.52,0.09-1.2,0.2-2.06,0.34
							c-1.79,0.28-4.38,0.66-7.58,1.11c-6.41,0.89-15.28,2-25.1,3.03c-9.82,1.02-18.74,1.76-25.19,2.21
							c-3.23,0.23-5.84,0.39-7.65,0.48c-0.86,0.04-1.55,0.07-2.08,0.09c-0.48,0.02-0.73,0.02-0.73,0c0-0.02,0.25-0.05,0.72-0.1
							c0.53-0.05,1.21-0.11,2.07-0.19c1.86-0.16,4.45-0.38,7.63-0.64c6.45-0.54,15.35-1.34,25.17-2.36
							c9.82-1.02,18.69-2.08,25.11-2.88c3.17-0.39,5.75-0.71,7.6-0.94c0.86-0.1,1.55-0.18,2.07-0.24
							C262.63,301.45,262.88,301.43,262.88,301.45z"/>
					</g>
				</g>
				<g style="opacity:0.3;">
					<path d="M209.58,287.5c4.95,1.7,10.63,1.13,15.15-1.51c4.52-2.64,7.8-7.31,8.75-12.46C226.17,278.45,217.6,283.85,209.58,287.5
						z"/>
				</g>
				<g>
					<g>
						<path style="fill:#FFFFFF;" d="M182.82,241.99c-0.05,0.06-0.87-0.61-2.18-1.68c-1.31-1.07-3.13-2.55-5.19-4.12
							c-2.06-1.57-3.96-2.94-5.34-3.92c-1.38-0.98-2.24-1.59-2.2-1.66c0.04-0.06,0.96,0.44,2.4,1.35c1.44,0.91,3.38,2.23,5.45,3.81
							c2.06,1.58,3.86,3.1,5.11,4.25C182.14,241.17,182.86,241.94,182.82,241.99z"/>
					</g>
				</g>
				<g>
					<g>
						<path style="fill:#FFFFFF;" d="M176.89,253.75c0.04,0.14-4.86,1.55-10.94,3.16c-6.08,1.61-11.04,2.79-11.08,2.66
							c-0.04-0.14,4.86-1.55,10.94-3.16C171.89,254.8,176.85,253.61,176.89,253.75z"/>
					</g>
				</g>
				<g>
					<g>
						<path style="fill:#FFFFFF;" d="M189.24,262.89c0.06,0.03-0.25,0.89-0.87,2.25c-0.62,1.35-1.55,3.19-2.72,5.14
							c-1.17,1.95-2.34,3.65-3.23,4.83c-0.9,1.19-1.51,1.88-1.57,1.83c-0.06-0.05,0.45-0.81,1.26-2.05
							c0.82-1.24,1.93-2.95,3.09-4.89c1.16-1.94,2.14-3.73,2.84-5.04C188.74,263.67,189.17,262.86,189.24,262.89z"/>
					</g>
				</g>
				<g>
					<g>
						<path style="fill:#FFFFFF;" d="M267.37,207.49c0.06,0.03-0.44,1.14-1.36,2.89c-0.92,1.74-2.27,4.11-3.88,6.66
							c-1.61,2.54-3.18,4.77-4.37,6.35c-1.19,1.58-1.98,2.51-2.03,2.46c-0.06-0.05,0.63-1.05,1.73-2.68
							c1.11-1.63,2.62-3.88,4.23-6.41c1.61-2.53,3-4.86,4-6.56C266.69,208.51,267.31,207.46,267.37,207.49z"/>
					</g>
				</g>
				<g>
					<g>
						<path style="fill:#FFFFFF;" d="M281.58,228.52c-0.16,0.02-0.45-3.15-1.86-6.76c-1.37-3.63-3.27-6.18-3.14-6.27
							c0.05-0.04,0.59,0.55,1.32,1.62c0.72,1.06,1.6,2.63,2.31,4.47c0.7,1.84,1.1,3.59,1.27,4.87
							C281.66,227.72,281.64,228.52,281.58,228.52z"/>
					</g>
				</g>
				<g>
					<g>
						<path style="fill:#FFFFFF;" d="M271.17,187.51c0.06,0.13-3.15,1.85-7.17,3.84c-4.03,1.99-7.34,3.5-7.41,3.38
							c-0.06-0.13,3.15-1.85,7.17-3.84C267.79,188.89,271.11,187.38,271.17,187.51z"/>
					</g>
				</g>
			</g>
			<g>
				<path style="fill:#FFBE9D;" d="M188.93,279.37c0,0,0.26,2.06,3.73,0.29c0,0,4.51-0.25,7.09-2.1c2.58-1.85,3.13-3.12,4.74-3
					c1.61,0.12,6.27,0.13,6.34,0.18c0.07,0.05,1.62-2.41,0.25-3.06c-1.36-0.65-7.8-0.97-7.8-0.97l-1.87-0.16l-0.27-1.83l-1.33-2.82
					c0,0-1.76,0.75-1.85,1.82c0,0-2.65-1.2-3.28,0.58L188.93,279.37z"/>
			</g>
			<g>
				<g>
					<path style="fill:#263238;" d="M241.84,191.12c0-0.02,0.15-0.04,0.44-0.04c0.29,0,0.72,0.01,1.27,0.08
						c1.09,0.15,2.66,0.51,4.46,1.33c1.83,0.79,3.73,2.18,5.84,3.66c2.11,1.49,4.41,3.17,6.8,4.96c4.77,3.6,8.98,6.99,11.88,9.63
						c1.46,1.31,2.57,2.45,3.28,3.29c0.33,0.44,0.61,0.76,0.72,1.05c0.13,0.26,0.19,0.4,0.17,0.41c-0.06,0.02-0.29-0.53-1.04-1.32
						c-0.74-0.79-1.88-1.88-3.37-3.15c-2.95-2.56-7.19-5.9-11.95-9.49c-2.38-1.79-4.67-3.48-6.76-4.99
						c-2.11-1.5-3.96-2.91-5.72-3.71c-1.75-0.84-3.28-1.26-4.34-1.46C242.45,191.16,241.84,191.16,241.84,191.12z"/>
				</g>
			</g>
		</g>
		<g>
			<g>
				<g>
					<path style="fill:#FFBE9D;" d="M229.88,147.6c2.39,5.01,2.84,7.62,4.48,14.38c0.21,0.87,1.65,8.36,1.58,10.77
						c-0.07,2.55-1.86,5.75-3.94,7.22c-1.1,0.78-4.23,2.67-4.23,2.67l0.42,8.67l-21.5,2.33c0,0-2.82-17.93-3.08-26.68"/>
				</g>
				<g>
					<path style="fill:#263238;" d="M231.98,157.69c-0.58-3.84-1.17-7.71-2.55-11.34c-1.39-3.63-3.66-7.03-6.96-9.08
						c-2.82-1.75-6.12-1.84-9.44-1.9c-4.84-0.09-9.3,1.53-13.08,4.55c-3.46,2.77-7.62,8.62-8.22,15.9
						c-0.09,1.09-0.06,2.19,0.01,3.28l0.43,6.62l13.93,15.51c4.13,3.55,10.89,2.76,14.92-0.9c4.03-3.66,5.58-9.48,5.19-14.91
						c-0.11-1.48-0.34-2.96-0.18-4.43c0.16-1.47,0.77-2.98,1.99-3.81C229.25,156.35,231.15,156.47,231.98,157.69z"/>
				</g>
				<g>
					<g>
						<path style="fill:#EB996E;" d="M232.41,165.13c0.02,0.03-0.12,0.22-0.44,0.54c-0.32,0.31-0.79,0.78-1.58,1.1
							c-0.39,0.15-0.88,0.23-1.39,0.12c-0.51-0.1-0.99-0.4-1.39-0.79c-0.8-0.79-1.33-1.88-1.7-3.07c-0.35-1.2-0.4-2.45-0.06-3.51
							c0.32-1.07,1.03-1.85,1.71-2.32c0.69-0.47,1.38-0.61,1.83-0.61c0.46,0,0.7,0.1,0.69,0.13c0.02,0.1-1.07-0.15-2.31,0.79
							c-0.59,0.46-1.19,1.19-1.45,2.14c-0.27,0.96-0.22,2.1,0.1,3.22c0.34,1.11,0.84,2.16,1.53,2.86c0.67,0.73,1.6,0.91,2.3,0.66
							c0.71-0.23,1.22-0.64,1.57-0.89C232.19,165.25,232.39,165.1,232.41,165.13z"/>
					</g>
				</g>
				<g>
					<g>
						<path style="fill:#EB996E;" d="M230.3,163.65c-0.01,0.07-0.3,0.1-0.72-0.11c-0.4-0.2-0.9-0.7-1.02-1.44
							c-0.1-0.74,0.23-1.37,0.56-1.67c0.33-0.32,0.63-0.37,0.66-0.31c0.04,0.07-0.16,0.23-0.36,0.56c-0.2,0.31-0.39,0.82-0.32,1.35
							c0.08,0.53,0.41,0.96,0.7,1.2C230.08,163.47,230.32,163.57,230.3,163.65z"/>
					</g>
				</g>
				<g>
					<g>
						<path style="fill:#263238;" d="M240.67,173.56c0.01,0.01-0.06,0.09-0.22,0.21c-0.17,0.1-0.44,0.24-0.83,0.26
							c-0.75,0.04-1.96-0.41-2.57-1.7c-0.59-1.3-0.25-2.99,0.25-4.61c0.24-0.82,0.48-1.68,0.53-2.57c0.05-0.89-0.16-1.8-0.76-2.52
							c-1.21-1.44-3.13-2.14-4.28-3.53c-1.19-1.31-1.84-2.82-2.13-4.11c-0.3-1.29-0.26-2.38-0.16-3.11
							c0.05-0.36,0.11-0.64,0.17-0.83c0.05-0.19,0.09-0.28,0.11-0.28c0.13,0-0.41,1.63,0.25,4.12c0.33,1.22,0.98,2.64,2.13,3.86
							c0.56,0.62,1.27,1.13,2.05,1.65c0.77,0.52,1.62,1.06,2.29,1.88c0.69,0.82,0.94,1.92,0.87,2.89c-0.06,0.98-0.33,1.87-0.58,2.69
							c-0.53,1.61-0.86,3.16-0.38,4.31c0.48,1.13,1.56,1.62,2.22,1.64C240.33,173.84,240.65,173.51,240.67,173.56z"/>
					</g>
				</g>
				<g>
					<path style="fill:#455A64;" d="M205.95,160.71c-2.67-2.94-7.44-3.8-10.86-1.78c-1.69,1-3.07,2.81-2.92,4.77l0.97,1.06
						c3.19,0.79,6.06,2.79,7.9,5.51c0.57,0.83,1.05,1.74,1.78,2.42c0.73,0.69,1.81,1.12,2.76,0.77c0.73-0.27,1.23-0.96,1.59-1.65
						C209.06,168.32,208.62,163.65,205.95,160.71z"/>
				</g>
				<g>
					<g>
						<path style="fill:#455A64;" d="M206.67,159.23c0.01-0.13,1.39,0.05,3.63-0.34c2.22-0.38,5.32-1.5,8.3-3.98
							c2.98-2.48,5.12-5.73,6.37-8.24c1.27-2.52,1.78-4.28,1.87-4.24c0.03,0.01-0.06,0.46-0.3,1.25c-0.23,0.79-0.64,1.91-1.24,3.23
							c-1.19,2.63-3.36,6.04-6.43,8.6c-3.07,2.56-6.29,3.63-8.56,3.89c-1.14,0.14-2.06,0.11-2.68,0.04
							C207,159.36,206.66,159.27,206.67,159.23z"/>
					</g>
				</g>
				<g>
					<g>
						<path style="fill:#455A64;" d="M230.36,151.1c0.03,0.02-0.12,0.49-0.47,1.3c-0.35,0.81-0.93,1.94-1.77,3.22
							c-1.65,2.55-4.56,5.63-8.3,7.15c-3.75,1.51-7.27,1.03-9.53,0.07c-1.15-0.47-2.02-1.02-2.58-1.46
							c-0.57-0.44-0.85-0.73-0.83-0.77c0.06-0.13,1.28,0.93,3.56,1.73c2.25,0.82,5.66,1.19,9.27-0.26c3.61-1.46,6.45-4.37,8.14-6.78
							C229.55,152.88,230.27,151.03,230.36,151.1z"/>
					</g>
				</g>
				<g>
					<path style="fill:#263238;" d="M216.09,205.77c-0.13-1.7-0.98-3.26-1.88-4.72c-1.95-3.14-4.24-6.08-6.03-9.31
						c-1.79-3.23-3.09-6.88-2.83-10.57c0.34-4.66,3.12-9.3,1.71-13.76c-0.87-2.75-3.3-4.84-6.04-5.74c-2.74-0.9-5.75-0.72-8.53,0.04
						c-6.11,2.65-10.94,9.14-12.13,15.7c-1.18,6.56,0.19,13.35,2.58,19.56c1.2,3.12,2.69,6.44,1.9,9.69
						c-0.33,1.37-1.05,2.61-1.54,3.93c-0.49,1.32-0.73,2.84-0.12,4.11c0.62,1.27,2.36,2.02,3.51,1.21c-0.29,1.98-0.33,4.1,0.59,5.87
						c0.92,1.77,3.09,3.03,4.97,2.35c0.06,3.16,1.19,6.47,3.72,8.36c3.34,2.49,8.39,1.73,11.5-1.03s4.5-7.08,4.6-11.25
						c0.09-3.85-0.78-7.64-1.72-11.37c0.61,1.14,2.27,1.74,3.53,1.19C215.46,209.36,216.22,207.47,216.09,205.77z"/>
				</g>
			</g>
			<g>
				<g>
					<path style="fill:#263238;" d="M174.44,203.14c0.03-0.01,0.07,0.2,0.24,0.53c0.16,0.34,0.51,0.8,1.13,1.16
						c0.61,0.36,1.5,0.59,2.5,0.47c1-0.11,2.05-0.77,2.71-1.86c0.68-1.07,1-2.51,0.9-4.01c-0.09-1.51-0.62-3.07-1.27-4.67
						c-1.39-3.17-2.6-6.92-2.78-10.97c-0.23-4.05,0.53-7.94,1.98-11.14c1.47-3.2,3.57-5.68,5.61-7.35c2.05-1.69,4.01-2.64,5.4-3.13
						c0.7-0.24,1.25-0.4,1.63-0.48c0.38-0.09,0.58-0.12,0.58-0.11c0.01,0.06-0.78,0.23-2.14,0.77c-1.35,0.54-3.25,1.53-5.23,3.23
						c-1.98,1.68-4,4.13-5.41,7.27c-1.39,3.14-2.13,6.95-1.9,10.92c0.18,3.99,1.34,7.64,2.71,10.82c0.64,1.62,1.18,3.23,1.26,4.82
						c0.08,1.58-0.28,3.09-1.02,4.23c-0.72,1.16-1.9,1.86-2.98,1.95c-1.08,0.11-2.02-0.17-2.65-0.58c-0.64-0.41-0.98-0.93-1.12-1.29
						C174.44,203.35,174.44,203.14,174.44,203.14z"/>
				</g>
			</g>
		</g>
		<g>
			<path style="fill:#455A64;" d="M233.83,164.81c-0.34-0.73-1.45-1.24-2.15-0.84c-0.7,0.4-1.01,1.37-0.67,2.1
				c0.35,0.73,1.31,1.1,2.05,0.77C233.8,166.51,234.18,165.54,233.83,164.81z"/>
		</g>
		<g>
			<g>
				<path style="fill:#263238;" d="M213.93,188.51c0.01,0.02-0.27,0.19-0.84,0.32c-0.57,0.13-1.45,0.16-2.47-0.14
					c-1.01-0.3-2.14-0.95-3.07-2c-0.93-1.06-1.58-2.5-1.9-4.06c-0.62-3.16-0.05-6.03,0.19-8.04c0.29-2.03,0.38-3.28,0.45-3.28
					c0.07,0,0.11,1.28-0.08,3.32c-0.15,2.03-0.65,4.87-0.04,7.9c0.31,1.49,0.91,2.86,1.75,3.86c0.85,1,1.89,1.64,2.82,1.97
					C212.66,189.01,213.93,188.39,213.93,188.51z"/>
			</g>
		</g>
	</g>
</g>
<g id="Floor">
	<g>
		<g>
			<path style="fill:#263238;" d="M472.44,476.2c0,0.14-99.6,0.26-222.43,0.26c-122.88,0-222.45-0.12-222.45-0.26
				s99.58-0.26,222.45-0.26C372.84,475.94,472.44,476.05,472.44,476.2z"/>
		</g>
	</g>
</g>
</svg>
