<?xml version="1.0" encoding="utf-8"?>
<!-- Generator: Adobe Illustrator 23.0.6, SVG Export Plug-In . SVG Version: 6.00 Build 0)  -->
<svg version="1.1" xmlns="http://www.w3.org/2000/svg" xmlns:xlink="http://www.w3.org/1999/xlink" x="0px" y="0px"
	 viewBox="0 0 500 500" style="enable-background:new 0 0 500 500;" xml:space="preserve">
<g id="Background_Complete">
	<g>
		<rect y="382.4" style="fill:#EBEBEB;" width="500" height="0.25"/>
		<rect x="416.78" y="398.49" style="fill:#EBEBEB;" width="33.12" height="0.25"/>
		<rect x="322.53" y="401.21" style="fill:#EBEBEB;" width="8.69" height="0.25"/>
		<rect x="396.59" y="389.21" style="fill:#EBEBEB;" width="19.19" height="0.25"/>
		<rect x="52.46" y="390.89" style="fill:#EBEBEB;" width="43.19" height="0.25"/>
		<rect x="104.56" y="390.89" style="fill:#EBEBEB;" width="6.33" height="0.25"/>
		<rect x="131.47" y="395.11" style="fill:#EBEBEB;" width="93.68" height="0.25"/>
		<path style="fill:#EBEBEB;" d="M237.01,337.8H43.92c-3.15,0-5.71-2.56-5.71-5.71V60.66c0-3.15,2.56-5.71,5.71-5.71h193.1
			c3.15,0,5.71,2.56,5.71,5.71v271.43C242.72,335.24,240.16,337.8,237.01,337.8z M43.92,55.2c-3.01,0-5.46,2.45-5.46,5.46v271.43
			c0,3.01,2.45,5.46,5.46,5.46h193.1c3.01,0,5.46-2.45,5.46-5.46V60.66c0-3.01-2.45-5.46-5.46-5.46H43.92z"/>
		<path style="fill:#EBEBEB;" d="M453.31,337.8h-193.1c-3.15,0-5.71-2.56-5.71-5.71V60.66c0-3.15,2.56-5.71,5.71-5.71h193.1
			c3.15,0,5.71,2.56,5.71,5.71v271.43C459.02,335.24,456.46,337.8,453.31,337.8z M260.21,55.2c-3.01,0-5.46,2.45-5.46,5.46v271.43
			c0,3.01,2.45,5.46,5.46,5.46h193.1c3.01,0,5.46-2.45,5.46-5.46V60.66c0-3.01-2.45-5.46-5.46-5.46H260.21z"/>
	</g>
	<g>
		<g>
			<g>
				<rect x="71.08" y="134.05" style="fill:#EBEBEB;" width="240.15" height="202.37"/>
				<rect x="74.95" y="138.42" style="fill:#FAFAFA;" width="236.29" height="193.21"/>
				<g>
					<polygon style="fill:#F0F0F0;" points="311.24,206.53 277.91,206.53 277.91,196.03 271.79,196.03 271.79,142.79 269.16,142.79 
						269.16,196.03 260.42,196.03 260.42,206.53 256.92,206.53 256.92,259.02 238.54,259.02 238.54,243.27 244.67,243.27 
						244.67,240.65 238.54,240.65 238.54,236.28 221.05,236.28 221.05,196.03 216.67,196.03 216.67,189.91 195.68,189.91 
						195.68,196.03 193.05,196.03 193.05,252.02 183.43,252.02 183.43,277.39 178.18,277.39 178.18,257.27 173.81,257.27 
						173.81,252.02 164.18,252.02 164.18,233.65 158.94,233.65 158.94,221.4 152.81,221.4 152.81,203.03 150.19,203.03 
						150.19,221.4 144.06,221.4 144.06,233.65 138.81,233.65 138.81,252.02 129.19,252.02 129.19,257.27 124.82,257.27 
						124.82,277.39 118.69,277.39 118.69,224.03 116.07,224.03 116.07,242.4 108.2,242.4 108.2,277.39 104.7,277.39 104.7,210.03 
						102.07,210.03 102.07,184.66 99.45,184.66 99.45,193.77 83.7,201.13 83.7,210.03 76.7,210.03 76.7,277.39 74.95,277.39 
						74.95,331.63 311.24,331.63 					"/>
					<g>
						<rect x="291.31" y="209.27" style="fill:#F5F5F5;" width="2.48" height="2.48"/>
						<rect x="291.31" y="213.43" style="fill:#F5F5F5;" width="2.48" height="2.48"/>
						<rect x="291.31" y="230.05" style="fill:#F5F5F5;" width="2.48" height="2.48"/>
						<rect x="291.31" y="234.21" style="fill:#F5F5F5;" width="2.48" height="2.48"/>
						<rect x="291.31" y="238.36" style="fill:#F5F5F5;" width="2.48" height="2.48"/>
						<rect x="291.31" y="250.83" style="fill:#F5F5F5;" width="2.48" height="2.48"/>
						<rect x="291.31" y="254.98" style="fill:#F5F5F5;" width="2.48" height="2.48"/>
						<rect x="287.37" y="225.9" style="fill:#F5F5F5;" width="2.48" height="2.48"/>
						<rect x="287.37" y="230.05" style="fill:#F5F5F5;" width="2.48" height="2.48"/>
						<rect x="287.37" y="234.21" style="fill:#F5F5F5;" width="2.48" height="2.48"/>
						<rect x="287.37" y="238.36" style="fill:#F5F5F5;" width="2.48" height="2.48"/>
						<rect x="287.37" y="242.52" style="fill:#F5F5F5;" width="2.48" height="2.48"/>
						<rect x="287.37" y="250.83" style="fill:#F5F5F5;" width="2.48" height="2.48"/>
						<rect x="287.37" y="254.98" style="fill:#F5F5F5;" width="2.48" height="2.48"/>
						<rect x="283.43" y="209.27" style="fill:#F5F5F5;" width="2.48" height="2.48"/>
						<rect x="283.43" y="213.43" style="fill:#F5F5F5;" width="2.48" height="2.48"/>
						<rect x="283.43" y="217.58" style="fill:#F5F5F5;" width="2.48" height="2.48"/>
						<rect x="283.43" y="221.74" style="fill:#F5F5F5;" width="2.48" height="2.48"/>
						<rect x="283.43" y="225.9" style="fill:#F5F5F5;" width="2.48" height="2.48"/>
						<rect x="283.43" y="230.05" style="fill:#F5F5F5;" width="2.48" height="2.48"/>
						<rect x="283.43" y="234.21" style="fill:#F5F5F5;" width="2.48" height="2.48"/>
						<rect x="283.43" y="238.36" style="fill:#F5F5F5;" width="2.48" height="2.48"/>
						<rect x="283.43" y="242.52" style="fill:#F5F5F5;" width="2.48" height="2.48"/>
						<rect x="283.43" y="246.67" style="fill:#F5F5F5;" width="2.48" height="2.48"/>
						<rect x="283.43" y="254.98" style="fill:#F5F5F5;" width="2.48" height="2.48"/>
						<rect x="279.5" y="209.27" style="fill:#F5F5F5;" width="2.48" height="2.48"/>
						<rect x="279.5" y="213.43" style="fill:#F5F5F5;" width="2.48" height="2.48"/>
						<rect x="279.5" y="217.58" style="fill:#F5F5F5;" width="2.48" height="2.48"/>
						<rect x="279.5" y="221.74" style="fill:#F5F5F5;" width="2.48" height="2.48"/>
						<rect x="279.5" y="225.9" style="fill:#F5F5F5;" width="2.48" height="2.48"/>
						<rect x="279.5" y="230.05" style="fill:#F5F5F5;" width="2.48" height="2.48"/>
						<rect x="279.5" y="234.21" style="fill:#F5F5F5;" width="2.48" height="2.48"/>
						<rect x="279.5" y="271.61" style="fill:#F5F5F5;" width="2.48" height="2.48"/>
						<rect x="275.56" y="209.27" style="fill:#F5F5F5;" width="2.48" height="2.48"/>
						<rect x="275.56" y="213.43" style="fill:#F5F5F5;" width="2.48" height="2.48"/>
						<rect x="275.56" y="217.58" style="fill:#F5F5F5;" width="2.48" height="2.48"/>
						<rect x="275.56" y="221.74" style="fill:#F5F5F5;" width="2.48" height="2.48"/>
						<rect x="275.56" y="225.9" style="fill:#F5F5F5;" width="2.48" height="2.48"/>
						<rect x="275.56" y="230.05" style="fill:#F5F5F5;" width="2.48" height="2.48"/>
						<rect x="275.56" y="234.21" style="fill:#F5F5F5;" width="2.48" height="2.48"/>
						<rect x="275.56" y="238.36" style="fill:#F5F5F5;" width="2.48" height="2.48"/>
						<rect x="275.56" y="263.29" style="fill:#F5F5F5;" width="2.48" height="2.48"/>
						<rect x="275.56" y="267.45" style="fill:#F5F5F5;" width="2.48" height="2.48"/>
						<rect x="275.56" y="271.61" style="fill:#F5F5F5;" width="2.48" height="2.48"/>
						<rect x="275.56" y="275.76" style="fill:#F5F5F5;" width="2.48" height="2.48"/>
						<rect x="275.56" y="292.38" style="fill:#F5F5F5;" width="2.48" height="2.48"/>
						<rect x="271.62" y="209.27" style="fill:#F5F5F5;" width="2.48" height="2.48"/>
						<rect x="271.62" y="213.43" style="fill:#F5F5F5;" width="2.48" height="2.48"/>
						<rect x="271.62" y="217.58" style="fill:#F5F5F5;" width="2.48" height="2.48"/>
						<rect x="271.62" y="221.74" style="fill:#F5F5F5;" width="2.48" height="2.48"/>
						<rect x="271.62" y="225.9" style="fill:#F5F5F5;" width="2.48" height="2.48"/>
						<rect x="271.62" y="230.05" style="fill:#F5F5F5;" width="2.48" height="2.48"/>
						<rect x="271.62" y="234.21" style="fill:#F5F5F5;" width="2.48" height="2.48"/>
						<rect x="271.62" y="238.36" style="fill:#F5F5F5;" width="2.48" height="2.48"/>
						<rect x="271.62" y="242.52" style="fill:#F5F5F5;" width="2.48" height="2.48"/>
						<rect x="271.62" y="246.67" style="fill:#F5F5F5;" width="2.48" height="2.48"/>
						<rect x="271.62" y="259.14" style="fill:#F5F5F5;" width="2.48" height="2.48"/>
						<rect x="271.62" y="263.29" style="fill:#F5F5F5;" width="2.48" height="2.48"/>
						<rect x="271.62" y="267.45" style="fill:#F5F5F5;" width="2.48" height="2.48"/>
						<rect x="271.62" y="271.61" style="fill:#F5F5F5;" width="2.48" height="2.48"/>
						<rect x="271.62" y="275.76" style="fill:#F5F5F5;" width="2.48" height="2.48"/>
						<rect x="271.62" y="292.38" style="fill:#F5F5F5;" width="2.48" height="2.48"/>
						<rect x="267.69" y="209.27" style="fill:#F5F5F5;" width="2.48" height="2.48"/>
						<rect x="267.69" y="213.43" style="fill:#F5F5F5;" width="2.48" height="2.48"/>
						<rect x="267.69" y="217.58" style="fill:#F5F5F5;" width="2.48" height="2.48"/>
						<rect x="267.69" y="221.74" style="fill:#F5F5F5;" width="2.48" height="2.48"/>
						<rect x="267.69" y="225.9" style="fill:#F5F5F5;" width="2.48" height="2.48"/>
						<rect x="267.69" y="230.05" style="fill:#F5F5F5;" width="2.48" height="2.48"/>
						<rect x="267.69" y="234.21" style="fill:#F5F5F5;" width="2.48" height="2.48"/>
						<rect x="267.69" y="238.36" style="fill:#F5F5F5;" width="2.48" height="2.48"/>
						<rect x="267.69" y="242.52" style="fill:#F5F5F5;" width="2.48" height="2.48"/>
						<rect x="267.69" y="246.67" style="fill:#F5F5F5;" width="2.48" height="2.48"/>
						<rect x="267.69" y="250.83" style="fill:#F5F5F5;" width="2.48" height="2.48"/>
						<rect x="267.69" y="254.98" style="fill:#F5F5F5;" width="2.48" height="2.48"/>
						<rect x="267.69" y="259.14" style="fill:#F5F5F5;" width="2.48" height="2.48"/>
						<rect x="267.69" y="263.29" style="fill:#F5F5F5;" width="2.48" height="2.48"/>
						<rect x="267.69" y="267.45" style="fill:#F5F5F5;" width="2.48" height="2.48"/>
						<rect x="267.69" y="271.61" style="fill:#F5F5F5;" width="2.48" height="2.48"/>
						<rect x="267.69" y="275.76" style="fill:#F5F5F5;" width="2.48" height="2.48"/>
						<rect x="267.69" y="279.92" style="fill:#F5F5F5;" width="2.48" height="2.48"/>
						<rect x="263.75" y="209.27" style="fill:#F5F5F5;" width="2.48" height="2.48"/>
						<rect x="263.75" y="213.43" style="fill:#F5F5F5;" width="2.48" height="2.48"/>
						<rect x="263.75" y="217.58" style="fill:#F5F5F5;" width="2.48" height="2.48"/>
						<rect x="263.75" y="221.74" style="fill:#F5F5F5;" width="2.48" height="2.48"/>
						<rect x="263.75" y="225.9" style="fill:#F5F5F5;" width="2.48" height="2.48"/>
						<rect x="263.75" y="230.05" style="fill:#F5F5F5;" width="2.48" height="2.48"/>
						<rect x="263.75" y="234.21" style="fill:#F5F5F5;" width="2.48" height="2.48"/>
						<rect x="263.75" y="238.36" style="fill:#F5F5F5;" width="2.48" height="2.48"/>
						<rect x="263.75" y="242.52" style="fill:#F5F5F5;" width="2.48" height="2.48"/>
						<rect x="263.75" y="246.67" style="fill:#F5F5F5;" width="2.48" height="2.48"/>
						<rect x="263.75" y="259.14" style="fill:#F5F5F5;" width="2.48" height="2.48"/>
						<rect x="263.75" y="263.29" style="fill:#F5F5F5;" width="2.48" height="2.48"/>
						<rect x="263.75" y="267.45" style="fill:#F5F5F5;" width="2.48" height="2.48"/>
						<rect x="263.75" y="271.61" style="fill:#F5F5F5;" width="2.48" height="2.48"/>
						<rect x="259.81" y="209.27" style="fill:#F5F5F5;" width="2.48" height="2.48"/>
						<rect x="259.81" y="213.43" style="fill:#F5F5F5;" width="2.48" height="2.48"/>
						<rect x="259.81" y="217.58" style="fill:#F5F5F5;" width="2.48" height="2.48"/>
						<rect x="259.81" y="221.74" style="fill:#F5F5F5;" width="2.48" height="2.48"/>
						<rect x="259.81" y="225.9" style="fill:#F5F5F5;" width="2.48" height="2.48"/>
						<rect x="259.81" y="230.05" style="fill:#F5F5F5;" width="2.48" height="2.48"/>
						<rect x="259.81" y="234.21" style="fill:#F5F5F5;" width="2.48" height="2.48"/>
						<rect x="259.81" y="238.36" style="fill:#F5F5F5;" width="2.48" height="2.48"/>
						<rect x="259.81" y="242.52" style="fill:#F5F5F5;" width="2.48" height="2.48"/>
						<rect x="259.81" y="246.67" style="fill:#F5F5F5;" width="2.48" height="2.48"/>
						<rect x="259.81" y="259.14" style="fill:#F5F5F5;" width="2.48" height="2.48"/>
						<rect x="259.81" y="263.29" style="fill:#F5F5F5;" width="2.48" height="2.48"/>
						<rect x="259.81" y="267.45" style="fill:#F5F5F5;" width="2.48" height="2.48"/>
						<rect x="215.49" y="198.48" style="fill:#F5F5F5;" width="2.48" height="2.48"/>
						<rect x="215.49" y="202.64" style="fill:#F5F5F5;" width="2.48" height="2.48"/>
						<rect x="215.49" y="206.8" style="fill:#F5F5F5;" width="2.48" height="2.48"/>
						<rect x="215.49" y="210.95" style="fill:#F5F5F5;" width="2.48" height="2.48"/>
						<rect x="215.49" y="215.11" style="fill:#F5F5F5;" width="2.48" height="2.48"/>
						<rect x="215.49" y="219.26" style="fill:#F5F5F5;" width="2.48" height="2.48"/>
						<rect x="215.49" y="223.42" style="fill:#F5F5F5;" width="2.48" height="2.48"/>
						<rect x="215.49" y="227.57" style="fill:#F5F5F5;" width="2.48" height="2.48"/>
						<rect x="215.49" y="240.04" style="fill:#F5F5F5;" width="2.48" height="2.48"/>
						<rect x="215.49" y="244.19" style="fill:#F5F5F5;" width="2.48" height="2.48"/>
						<rect x="211.55" y="198.48" style="fill:#F5F5F5;" width="2.48" height="2.48"/>
						<rect x="211.55" y="202.64" style="fill:#F5F5F5;" width="2.48" height="2.48"/>
						<rect x="211.55" y="206.8" style="fill:#F5F5F5;" width="2.48" height="2.48"/>
						<rect x="211.55" y="210.95" style="fill:#F5F5F5;" width="2.48" height="2.48"/>
						<rect x="211.55" y="215.11" style="fill:#F5F5F5;" width="2.48" height="2.48"/>
						<rect x="211.55" y="219.26" style="fill:#F5F5F5;" width="2.48" height="2.48"/>
						<rect x="211.55" y="223.42" style="fill:#F5F5F5;" width="2.48" height="2.48"/>
						<rect x="211.55" y="227.57" style="fill:#F5F5F5;" width="2.48" height="2.48"/>
						<rect x="211.55" y="244.19" style="fill:#F5F5F5;" width="2.48" height="2.48"/>
						<rect x="207.62" y="198.48" style="fill:#F5F5F5;" width="2.48" height="2.48"/>
						<rect x="207.62" y="202.64" style="fill:#F5F5F5;" width="2.48" height="2.48"/>
						<rect x="207.62" y="206.8" style="fill:#F5F5F5;" width="2.48" height="2.48"/>
						<rect x="207.62" y="210.95" style="fill:#F5F5F5;" width="2.48" height="2.48"/>
						<rect x="207.62" y="215.11" style="fill:#F5F5F5;" width="2.48" height="2.48"/>
						<rect x="207.62" y="219.26" style="fill:#F5F5F5;" width="2.48" height="2.48"/>
						<rect x="207.62" y="223.42" style="fill:#F5F5F5;" width="2.48" height="2.48"/>
						<rect x="207.62" y="227.57" style="fill:#F5F5F5;" width="2.48" height="2.48"/>
						<rect x="203.68" y="198.48" style="fill:#F5F5F5;" width="2.48" height="2.48"/>
						<rect x="203.68" y="202.64" style="fill:#F5F5F5;" width="2.48" height="2.48"/>
						<rect x="203.68" y="206.8" style="fill:#F5F5F5;" width="2.48" height="2.48"/>
						<rect x="203.68" y="210.95" style="fill:#F5F5F5;" width="2.48" height="2.48"/>
						<rect x="203.68" y="215.11" style="fill:#F5F5F5;" width="2.48" height="2.48"/>
						<rect x="203.68" y="219.26" style="fill:#F5F5F5;" width="2.48" height="2.48"/>
						<rect x="203.68" y="227.57" style="fill:#F5F5F5;" width="2.48" height="2.48"/>
						<rect x="203.68" y="231.73" style="fill:#F5F5F5;" width="2.48" height="2.48"/>
						<rect x="203.68" y="244.19" style="fill:#F5F5F5;" width="2.48" height="2.48"/>
						<rect x="203.68" y="248.35" style="fill:#F5F5F5;" width="2.48" height="2.48"/>
						<rect x="203.68" y="252.51" style="fill:#F5F5F5;" width="2.48" height="2.48"/>
						<rect x="203.68" y="256.66" style="fill:#F5F5F5;" width="2.48" height="2.48"/>
						<rect x="203.68" y="260.82" style="fill:#F5F5F5;" width="2.48" height="2.48"/>
						<rect x="203.68" y="264.97" style="fill:#F5F5F5;" width="2.48" height="2.48"/>
						<rect x="203.68" y="269.13" style="fill:#F5F5F5;" width="2.48" height="2.48"/>
						<rect x="199.74" y="198.48" style="fill:#F5F5F5;" width="2.48" height="2.48"/>
						<rect x="199.74" y="202.64" style="fill:#F5F5F5;" width="2.48" height="2.48"/>
						<rect x="199.74" y="206.8" style="fill:#F5F5F5;" width="2.48" height="2.48"/>
						<rect x="199.74" y="210.95" style="fill:#F5F5F5;" width="2.48" height="2.48"/>
						<rect x="199.74" y="215.11" style="fill:#F5F5F5;" width="2.48" height="2.48"/>
						<rect x="199.74" y="219.26" style="fill:#F5F5F5;" width="2.48" height="2.48"/>
						<rect x="199.74" y="231.73" style="fill:#F5F5F5;" width="2.48" height="2.48"/>
						<rect x="199.74" y="235.88" style="fill:#F5F5F5;" width="2.48" height="2.48"/>
						<rect x="199.74" y="240.04" style="fill:#F5F5F5;" width="2.48" height="2.48"/>
						<rect x="199.74" y="244.19" style="fill:#F5F5F5;" width="2.48" height="2.48"/>
						<rect x="199.74" y="248.35" style="fill:#F5F5F5;" width="2.48" height="2.48"/>
						<rect x="199.74" y="252.51" style="fill:#F5F5F5;" width="2.48" height="2.48"/>
						<rect x="199.74" y="256.66" style="fill:#F5F5F5;" width="2.48" height="2.48"/>
						<rect x="199.74" y="260.82" style="fill:#F5F5F5;" width="2.48" height="2.48"/>
						<rect x="199.74" y="264.97" style="fill:#F5F5F5;" width="2.48" height="2.48"/>
						<rect x="199.74" y="269.13" style="fill:#F5F5F5;" width="2.48" height="2.48"/>
						<rect x="199.74" y="273.28" style="fill:#F5F5F5;" width="2.48" height="2.48"/>
						<rect x="199.74" y="281.59" style="fill:#F5F5F5;" width="2.48" height="2.48"/>
						<rect x="195.8" y="198.48" style="fill:#F5F5F5;" width="2.48" height="2.48"/>
						<rect x="195.8" y="202.64" style="fill:#F5F5F5;" width="2.48" height="2.48"/>
						<rect x="195.8" y="206.8" style="fill:#F5F5F5;" width="2.48" height="2.48"/>
						<rect x="195.8" y="210.95" style="fill:#F5F5F5;" width="2.48" height="2.48"/>
						<rect x="195.8" y="215.11" style="fill:#F5F5F5;" width="2.48" height="2.48"/>
						<rect x="195.8" y="219.26" style="fill:#F5F5F5;" width="2.48" height="2.48"/>
						<rect x="195.8" y="231.73" style="fill:#F5F5F5;" width="2.48" height="2.48"/>
						<rect x="195.8" y="235.88" style="fill:#F5F5F5;" width="2.48" height="2.48"/>
						<rect x="195.8" y="240.04" style="fill:#F5F5F5;" width="2.48" height="2.48"/>
						<rect x="195.8" y="244.19" style="fill:#F5F5F5;" width="2.48" height="2.48"/>
						<rect x="195.8" y="256.66" style="fill:#F5F5F5;" width="2.48" height="2.48"/>
						<rect x="195.8" y="260.82" style="fill:#F5F5F5;" width="2.48" height="2.48"/>
						<rect x="195.8" y="264.97" style="fill:#F5F5F5;" width="2.48" height="2.48"/>
						<rect x="195.8" y="269.13" style="fill:#F5F5F5;" width="2.48" height="2.48"/>
						<rect x="195.8" y="273.28" style="fill:#F5F5F5;" width="2.48" height="2.48"/>
						<rect x="195.8" y="281.59" style="fill:#F5F5F5;" width="2.48" height="2.48"/>
						<rect x="195.8" y="285.75" style="fill:#F5F5F5;" width="2.48" height="2.48"/>
						<rect x="160.08" y="237.12" style="fill:#F5F5F5;" width="2.48" height="2.48"/>
						<rect x="160.08" y="241.28" style="fill:#F5F5F5;" width="2.48" height="2.48"/>
						<rect x="160.08" y="245.43" style="fill:#F5F5F5;" width="2.48" height="2.48"/>
						<rect x="160.08" y="249.59" style="fill:#F5F5F5;" width="2.48" height="2.48"/>
						<rect x="160.08" y="253.74" style="fill:#F5F5F5;" width="2.48" height="2.48"/>
						<rect x="160.08" y="257.9" style="fill:#F5F5F5;" width="2.48" height="2.48"/>
						<rect x="160.08" y="262.06" style="fill:#F5F5F5;" width="2.48" height="2.48"/>
						<rect x="160.08" y="274.52" style="fill:#F5F5F5;" width="2.48" height="2.48"/>
						<rect x="160.08" y="278.68" style="fill:#F5F5F5;" width="2.48" height="2.48"/>
						<rect x="160.08" y="282.83" style="fill:#F5F5F5;" width="2.48" height="2.48"/>
						<rect x="156.15" y="237.12" style="fill:#F5F5F5;" width="2.48" height="2.48"/>
						<rect x="156.15" y="241.28" style="fill:#F5F5F5;" width="2.48" height="2.48"/>
						<rect x="156.15" y="245.43" style="fill:#F5F5F5;" width="2.48" height="2.48"/>
						<rect x="156.15" y="249.59" style="fill:#F5F5F5;" width="2.48" height="2.48"/>
						<rect x="156.15" y="253.74" style="fill:#F5F5F5;" width="2.48" height="2.48"/>
						<rect x="156.15" y="257.9" style="fill:#F5F5F5;" width="2.48" height="2.48"/>
						<rect x="156.15" y="262.06" style="fill:#F5F5F5;" width="2.48" height="2.48"/>
						<rect x="152.21" y="237.12" style="fill:#F5F5F5;" width="2.48" height="2.48"/>
						<rect x="152.21" y="241.28" style="fill:#F5F5F5;" width="2.48" height="2.48"/>
						<rect x="152.21" y="245.43" style="fill:#F5F5F5;" width="2.48" height="2.48"/>
						<rect x="152.21" y="249.59" style="fill:#F5F5F5;" width="2.48" height="2.48"/>
						<rect x="152.21" y="253.74" style="fill:#F5F5F5;" width="2.48" height="2.48"/>
						<rect x="152.21" y="257.9" style="fill:#F5F5F5;" width="2.48" height="2.48"/>
						<rect x="152.21" y="262.06" style="fill:#F5F5F5;" width="2.48" height="2.48"/>
						<rect x="148.27" y="237.12" style="fill:#F5F5F5;" width="2.48" height="2.48"/>
						<rect x="148.27" y="241.28" style="fill:#F5F5F5;" width="2.48" height="2.48"/>
						<rect x="148.27" y="245.43" style="fill:#F5F5F5;" width="2.48" height="2.48"/>
						<rect x="148.27" y="249.59" style="fill:#F5F5F5;" width="2.48" height="2.48"/>
						<rect x="148.27" y="253.74" style="fill:#F5F5F5;" width="2.48" height="2.48"/>
						<rect x="148.27" y="257.9" style="fill:#F5F5F5;" width="2.48" height="2.48"/>
						<rect x="148.27" y="262.06" style="fill:#F5F5F5;" width="2.48" height="2.48"/>
						<rect x="148.27" y="266.21" style="fill:#F5F5F5;" width="2.48" height="2.48"/>
						<rect x="148.27" y="270.37" style="fill:#F5F5F5;" width="2.48" height="2.48"/>
						<rect x="148.27" y="274.52" style="fill:#F5F5F5;" width="2.48" height="2.48"/>
						<rect x="148.27" y="278.68" style="fill:#F5F5F5;" width="2.48" height="2.48"/>
						<rect x="144.34" y="237.12" style="fill:#F5F5F5;" width="2.48" height="2.48"/>
						<rect x="144.34" y="241.28" style="fill:#F5F5F5;" width="2.48" height="2.48"/>
						<rect x="144.34" y="245.43" style="fill:#F5F5F5;" width="2.48" height="2.48"/>
						<rect x="144.34" y="249.59" style="fill:#F5F5F5;" width="2.48" height="2.48"/>
						<rect x="144.34" y="253.74" style="fill:#F5F5F5;" width="2.48" height="2.48"/>
						<rect x="144.34" y="257.9" style="fill:#F5F5F5;" width="2.48" height="2.48"/>
						<rect x="144.34" y="262.06" style="fill:#F5F5F5;" width="2.48" height="2.48"/>
						<rect x="144.34" y="266.21" style="fill:#F5F5F5;" width="2.48" height="2.48"/>
						<rect x="144.34" y="270.37" style="fill:#F5F5F5;" width="2.48" height="2.48"/>
						<rect x="144.34" y="274.52" style="fill:#F5F5F5;" width="2.48" height="2.48"/>
						<rect x="144.34" y="278.68" style="fill:#F5F5F5;" width="2.48" height="2.48"/>
						<rect x="144.34" y="282.83" style="fill:#F5F5F5;" width="2.48" height="2.48"/>
						<rect x="144.34" y="295.3" style="fill:#F5F5F5;" width="2.48" height="2.48"/>
						<rect x="144.34" y="299.45" style="fill:#F5F5F5;" width="2.48" height="2.48"/>
						<rect x="140.4" y="237.12" style="fill:#F5F5F5;" width="2.48" height="2.48"/>
						<rect x="140.4" y="241.28" style="fill:#F5F5F5;" width="2.48" height="2.48"/>
						<rect x="140.4" y="245.43" style="fill:#F5F5F5;" width="2.48" height="2.48"/>
						<rect x="140.4" y="257.9" style="fill:#F5F5F5;" width="2.48" height="2.48"/>
						<rect x="140.4" y="262.06" style="fill:#F5F5F5;" width="2.48" height="2.48"/>
						<rect x="140.4" y="266.21" style="fill:#F5F5F5;" width="2.48" height="2.48"/>
						<rect x="140.4" y="270.37" style="fill:#F5F5F5;" width="2.48" height="2.48"/>
						<rect x="140.4" y="274.52" style="fill:#F5F5F5;" width="2.48" height="2.48"/>
						<rect x="140.4" y="278.68" style="fill:#F5F5F5;" width="2.48" height="2.48"/>
						<rect x="140.4" y="282.83" style="fill:#F5F5F5;" width="2.48" height="2.48"/>
						<rect x="140.4" y="295.3" style="fill:#F5F5F5;" width="2.48" height="2.48"/>
						<rect x="140.4" y="299.45" style="fill:#F5F5F5;" width="2.48" height="2.48"/>
						<rect x="140.4" y="303.61" style="fill:#F5F5F5;" width="2.48" height="2.48"/>
						<rect x="99.14" y="212.19" style="fill:#F5F5F5;" width="2.48" height="2.48"/>
						<rect x="99.14" y="216.35" style="fill:#F5F5F5;" width="2.48" height="2.48"/>
						<rect x="99.14" y="220.5" style="fill:#F5F5F5;" width="2.48" height="2.48"/>
						<rect x="99.14" y="224.66" style="fill:#F5F5F5;" width="2.48" height="2.48"/>
						<rect x="99.14" y="228.81" style="fill:#F5F5F5;" width="2.48" height="2.48"/>
						<rect x="99.14" y="232.97" style="fill:#F5F5F5;" width="2.48" height="2.48"/>
						<rect x="99.14" y="237.12" style="fill:#F5F5F5;" width="2.48" height="2.48"/>
						<rect x="99.14" y="241.28" style="fill:#F5F5F5;" width="2.48" height="2.48"/>
						<rect x="99.14" y="245.43" style="fill:#F5F5F5;" width="2.48" height="2.48"/>
						<rect x="99.14" y="249.59" style="fill:#F5F5F5;" width="2.48" height="2.48"/>
						<rect x="99.14" y="253.74" style="fill:#F5F5F5;" width="2.48" height="2.48"/>
						<rect x="99.14" y="257.9" style="fill:#F5F5F5;" width="2.48" height="2.48"/>
						<rect x="99.14" y="262.06" style="fill:#F5F5F5;" width="2.48" height="2.48"/>
						<rect x="99.14" y="266.21" style="fill:#F5F5F5;" width="2.48" height="2.48"/>
						<rect x="99.14" y="270.37" style="fill:#F5F5F5;" width="2.48" height="2.48"/>
						<rect x="99.14" y="274.52" style="fill:#F5F5F5;" width="2.48" height="2.48"/>
						<rect x="99.14" y="278.68" style="fill:#F5F5F5;" width="2.48" height="2.48"/>
						<rect x="99.14" y="282.83" style="fill:#F5F5F5;" width="2.48" height="2.48"/>
						<rect x="99.14" y="286.99" style="fill:#F5F5F5;" width="2.48" height="2.48"/>
						<rect x="99.14" y="291.14" style="fill:#F5F5F5;" width="2.48" height="2.48"/>
						<rect x="99.14" y="295.3" style="fill:#F5F5F5;" width="2.48" height="2.48"/>
						<rect x="99.14" y="299.45" style="fill:#F5F5F5;" width="2.48" height="2.48"/>
						<rect x="99.14" y="303.61" style="fill:#F5F5F5;" width="2.48" height="2.48"/>
						<rect x="95.2" y="212.19" style="fill:#F5F5F5;" width="2.48" height="2.48"/>
						<rect x="95.2" y="216.35" style="fill:#F5F5F5;" width="2.48" height="2.48"/>
						<rect x="95.2" y="220.5" style="fill:#F5F5F5;" width="2.48" height="2.48"/>
						<rect x="95.2" y="224.66" style="fill:#F5F5F5;" width="2.48" height="2.48"/>
						<rect x="95.2" y="228.81" style="fill:#F5F5F5;" width="2.48" height="2.48"/>
						<rect x="95.2" y="232.97" style="fill:#F5F5F5;" width="2.48" height="2.48"/>
						<rect x="95.2" y="237.12" style="fill:#F5F5F5;" width="2.48" height="2.48"/>
						<rect x="95.2" y="241.28" style="fill:#F5F5F5;" width="2.48" height="2.48"/>
						<rect x="95.2" y="245.43" style="fill:#F5F5F5;" width="2.48" height="2.48"/>
						<rect x="95.2" y="249.59" style="fill:#F5F5F5;" width="2.48" height="2.48"/>
						<rect x="95.2" y="253.74" style="fill:#F5F5F5;" width="2.48" height="2.48"/>
						<rect x="95.2" y="257.9" style="fill:#F5F5F5;" width="2.48" height="2.48"/>
						<rect x="95.2" y="262.06" style="fill:#F5F5F5;" width="2.48" height="2.48"/>
						<rect x="95.2" y="266.21" style="fill:#F5F5F5;" width="2.48" height="2.48"/>
						<rect x="95.2" y="270.37" style="fill:#F5F5F5;" width="2.48" height="2.48"/>
						<rect x="95.2" y="274.52" style="fill:#F5F5F5;" width="2.48" height="2.48"/>
						<rect x="95.2" y="278.68" style="fill:#F5F5F5;" width="2.48" height="2.48"/>
						<rect x="95.2" y="282.83" style="fill:#F5F5F5;" width="2.48" height="2.48"/>
						<rect x="95.2" y="286.99" style="fill:#F5F5F5;" width="2.48" height="2.48"/>
						<rect x="91.26" y="212.19" style="fill:#F5F5F5;" width="2.48" height="2.48"/>
						<rect x="91.26" y="216.35" style="fill:#F5F5F5;" width="2.48" height="2.48"/>
						<rect x="91.26" y="220.5" style="fill:#F5F5F5;" width="2.48" height="2.48"/>
						<rect x="91.26" y="224.66" style="fill:#F5F5F5;" width="2.48" height="2.48"/>
						<rect x="91.26" y="228.81" style="fill:#F5F5F5;" width="2.48" height="2.48"/>
						<rect x="91.26" y="232.97" style="fill:#F5F5F5;" width="2.48" height="2.48"/>
						<rect x="91.26" y="237.12" style="fill:#F5F5F5;" width="2.48" height="2.48"/>
						<rect x="91.26" y="241.28" style="fill:#F5F5F5;" width="2.48" height="2.48"/>
						<rect x="91.26" y="245.43" style="fill:#F5F5F5;" width="2.48" height="2.48"/>
						<rect x="91.26" y="249.59" style="fill:#F5F5F5;" width="2.48" height="2.48"/>
						<rect x="91.26" y="253.74" style="fill:#F5F5F5;" width="2.48" height="2.48"/>
						<rect x="91.26" y="257.9" style="fill:#F5F5F5;" width="2.48" height="2.48"/>
						<rect x="91.26" y="262.06" style="fill:#F5F5F5;" width="2.48" height="2.48"/>
						<rect x="91.26" y="266.21" style="fill:#F5F5F5;" width="2.48" height="2.48"/>
						<rect x="91.26" y="270.37" style="fill:#F5F5F5;" width="2.48" height="2.48"/>
						<rect x="91.26" y="274.52" style="fill:#F5F5F5;" width="2.48" height="2.48"/>
						<rect x="91.26" y="278.68" style="fill:#F5F5F5;" width="2.48" height="2.48"/>
						<rect x="91.26" y="282.83" style="fill:#F5F5F5;" width="2.48" height="2.48"/>
						<rect x="91.26" y="286.99" style="fill:#F5F5F5;" width="2.48" height="2.48"/>
						<rect x="87.33" y="212.19" style="fill:#F5F5F5;" width="2.48" height="2.48"/>
						<rect x="87.33" y="216.35" style="fill:#F5F5F5;" width="2.48" height="2.48"/>
						<rect x="87.33" y="220.5" style="fill:#F5F5F5;" width="2.48" height="2.48"/>
						<rect x="87.33" y="224.66" style="fill:#F5F5F5;" width="2.48" height="2.48"/>
						<rect x="87.33" y="228.81" style="fill:#F5F5F5;" width="2.48" height="2.48"/>
						<rect x="87.33" y="232.97" style="fill:#F5F5F5;" width="2.48" height="2.48"/>
						<rect x="87.33" y="237.12" style="fill:#F5F5F5;" width="2.48" height="2.48"/>
						<rect x="87.33" y="241.28" style="fill:#F5F5F5;" width="2.48" height="2.48"/>
						<rect x="87.33" y="245.43" style="fill:#F5F5F5;" width="2.48" height="2.48"/>
						<rect x="87.33" y="249.59" style="fill:#F5F5F5;" width="2.48" height="2.48"/>
						<rect x="87.33" y="253.74" style="fill:#F5F5F5;" width="2.48" height="2.48"/>
						<rect x="87.33" y="257.9" style="fill:#F5F5F5;" width="2.48" height="2.48"/>
						<rect x="87.33" y="262.06" style="fill:#F5F5F5;" width="2.48" height="2.48"/>
						<rect x="87.33" y="266.21" style="fill:#F5F5F5;" width="2.48" height="2.48"/>
						<rect x="87.33" y="270.37" style="fill:#F5F5F5;" width="2.48" height="2.48"/>
						<rect x="83.39" y="212.19" style="fill:#F5F5F5;" width="2.48" height="2.48"/>
						<rect x="83.39" y="216.35" style="fill:#F5F5F5;" width="2.48" height="2.48"/>
						<rect x="83.39" y="220.5" style="fill:#F5F5F5;" width="2.48" height="2.48"/>
						<rect x="83.39" y="224.66" style="fill:#F5F5F5;" width="2.48" height="2.48"/>
						<rect x="83.39" y="228.81" style="fill:#F5F5F5;" width="2.48" height="2.48"/>
						<rect x="83.39" y="232.97" style="fill:#F5F5F5;" width="2.48" height="2.48"/>
						<rect x="83.39" y="237.12" style="fill:#F5F5F5;" width="2.48" height="2.48"/>
						<rect x="83.39" y="241.28" style="fill:#F5F5F5;" width="2.48" height="2.48"/>
						<rect x="83.39" y="245.43" style="fill:#F5F5F5;" width="2.48" height="2.48"/>
						<rect x="83.39" y="249.59" style="fill:#F5F5F5;" width="2.48" height="2.48"/>
						<rect x="83.39" y="253.74" style="fill:#F5F5F5;" width="2.48" height="2.48"/>
						<rect x="83.39" y="257.9" style="fill:#F5F5F5;" width="2.48" height="2.48"/>
						<rect x="83.39" y="262.06" style="fill:#F5F5F5;" width="2.48" height="2.48"/>
						<rect x="79.45" y="212.19" style="fill:#F5F5F5;" width="2.48" height="2.48"/>
						<rect x="79.45" y="216.35" style="fill:#F5F5F5;" width="2.48" height="2.48"/>
						<rect x="79.45" y="220.5" style="fill:#F5F5F5;" width="2.48" height="2.48"/>
						<rect x="79.45" y="224.66" style="fill:#F5F5F5;" width="2.48" height="2.48"/>
						<rect x="79.45" y="228.81" style="fill:#F5F5F5;" width="2.48" height="2.48"/>
						<rect x="79.45" y="232.97" style="fill:#F5F5F5;" width="2.48" height="2.48"/>
						<rect x="79.45" y="237.12" style="fill:#F5F5F5;" width="2.48" height="2.48"/>
						<rect x="79.45" y="241.28" style="fill:#F5F5F5;" width="2.48" height="2.48"/>
						<rect x="79.45" y="245.43" style="fill:#F5F5F5;" width="2.48" height="2.48"/>
						<rect x="79.45" y="249.59" style="fill:#F5F5F5;" width="2.48" height="2.48"/>
						<rect x="79.45" y="253.74" style="fill:#F5F5F5;" width="2.48" height="2.48"/>
						<rect x="79.45" y="257.9" style="fill:#F5F5F5;" width="2.48" height="2.48"/>
						<rect x="305.3" y="210.95" style="fill:#F5F5F5;" width="2.48" height="2.48"/>
						<rect x="305.3" y="215.11" style="fill:#F5F5F5;" width="2.48" height="2.48"/>
						<rect x="305.3" y="219.26" style="fill:#F5F5F5;" width="2.48" height="2.48"/>
						<rect x="305.3" y="223.42" style="fill:#F5F5F5;" width="2.48" height="2.48"/>
						<rect x="305.3" y="227.57" style="fill:#F5F5F5;" width="2.48" height="2.48"/>
						<rect x="305.3" y="231.73" style="fill:#F5F5F5;" width="2.48" height="2.48"/>
						<rect x="305.3" y="235.88" style="fill:#F5F5F5;" width="2.48" height="2.48"/>
						<rect x="305.3" y="240.04" style="fill:#F5F5F5;" width="2.48" height="2.48"/>
						<rect x="305.3" y="244.19" style="fill:#F5F5F5;" width="2.48" height="2.48"/>
						<rect x="305.3" y="248.35" style="fill:#F5F5F5;" width="2.48" height="2.48"/>
						<rect x="305.3" y="252.51" style="fill:#F5F5F5;" width="2.48" height="2.48"/>
						<rect x="305.3" y="256.66" style="fill:#F5F5F5;" width="2.48" height="2.48"/>
						<rect x="305.3" y="260.82" style="fill:#F5F5F5;" width="2.48" height="2.48"/>
						<rect x="305.3" y="264.97" style="fill:#F5F5F5;" width="2.48" height="2.48"/>
						<rect x="305.3" y="269.13" style="fill:#F5F5F5;" width="2.48" height="2.48"/>
						<rect x="305.3" y="273.28" style="fill:#F5F5F5;" width="2.48" height="2.48"/>
						<rect x="305.3" y="298.21" style="fill:#F5F5F5;" width="2.48" height="2.48"/>
						<rect x="305.3" y="302.37" style="fill:#F5F5F5;" width="2.48" height="2.48"/>
						<rect x="301.37" y="210.95" style="fill:#F5F5F5;" width="2.48" height="2.48"/>
						<rect x="301.37" y="215.11" style="fill:#F5F5F5;" width="2.48" height="2.48"/>
						<rect x="301.37" y="219.26" style="fill:#F5F5F5;" width="2.48" height="2.48"/>
						<rect x="301.37" y="223.42" style="fill:#F5F5F5;" width="2.48" height="2.48"/>
						<rect x="301.37" y="227.57" style="fill:#F5F5F5;" width="2.48" height="2.48"/>
						<rect x="301.37" y="231.73" style="fill:#F5F5F5;" width="2.48" height="2.48"/>
						<rect x="301.37" y="235.88" style="fill:#F5F5F5;" width="2.48" height="2.48"/>
						<rect x="301.37" y="240.04" style="fill:#F5F5F5;" width="2.48" height="2.48"/>
						<rect x="301.37" y="244.19" style="fill:#F5F5F5;" width="2.48" height="2.48"/>
						<rect x="301.37" y="248.35" style="fill:#F5F5F5;" width="2.48" height="2.48"/>
						<rect x="301.37" y="252.51" style="fill:#F5F5F5;" width="2.48" height="2.48"/>
						<rect x="301.37" y="256.66" style="fill:#F5F5F5;" width="2.48" height="2.48"/>
						<rect x="301.37" y="260.82" style="fill:#F5F5F5;" width="2.48" height="2.48"/>
						<rect x="301.37" y="264.97" style="fill:#F5F5F5;" width="2.48" height="2.48"/>
						<rect x="301.37" y="269.13" style="fill:#F5F5F5;" width="2.48" height="2.48"/>
						<rect x="301.37" y="273.28" style="fill:#F5F5F5;" width="2.48" height="2.48"/>
						<rect x="301.37" y="281.59" style="fill:#F5F5F5;" width="2.48" height="2.48"/>
						<rect x="301.37" y="285.75" style="fill:#F5F5F5;" width="2.48" height="2.48"/>
						<rect x="301.37" y="289.9" style="fill:#F5F5F5;" width="2.48" height="2.48"/>
						<rect x="301.37" y="294.06" style="fill:#F5F5F5;" width="2.48" height="2.48"/>
						<rect x="301.37" y="302.37" style="fill:#F5F5F5;" width="2.48" height="2.48"/>
						<rect x="232.69" y="240.04" style="fill:#F5F5F5;" width="2.48" height="2.48"/>
						<rect x="232.69" y="244.19" style="fill:#F5F5F5;" width="2.48" height="2.48"/>
						<rect x="232.69" y="248.35" style="fill:#F5F5F5;" width="2.48" height="2.48"/>
						<rect x="232.69" y="252.51" style="fill:#F5F5F5;" width="2.48" height="2.48"/>
						<rect x="232.69" y="256.66" style="fill:#F5F5F5;" width="2.48" height="2.48"/>
						<rect x="232.69" y="260.82" style="fill:#F5F5F5;" width="2.48" height="2.48"/>
						<rect x="232.69" y="264.97" style="fill:#F5F5F5;" width="2.48" height="2.48"/>
						<rect x="232.69" y="269.13" style="fill:#F5F5F5;" width="2.48" height="2.48"/>
						<rect x="232.69" y="273.28" style="fill:#F5F5F5;" width="2.48" height="2.48"/>
						<rect x="232.69" y="277.44" style="fill:#F5F5F5;" width="2.48" height="2.48"/>
						<rect x="232.69" y="281.59" style="fill:#F5F5F5;" width="2.48" height="2.48"/>
						<rect x="232.69" y="285.75" style="fill:#F5F5F5;" width="2.48" height="2.48"/>
						<rect x="232.69" y="289.9" style="fill:#F5F5F5;" width="2.48" height="2.48"/>
						<rect x="232.69" y="298.21" style="fill:#F5F5F5;" width="2.48" height="2.48"/>
						<rect x="232.69" y="302.37" style="fill:#F5F5F5;" width="2.48" height="2.48"/>
						<rect x="232.69" y="306.53" style="fill:#F5F5F5;" width="2.48" height="2.48"/>
						<rect x="232.69" y="310.68" style="fill:#F5F5F5;" width="2.48" height="2.48"/>
						<rect x="232.69" y="318.99" style="fill:#F5F5F5;" width="2.48" height="2.48"/>
						<rect x="232.69" y="323.15" style="fill:#F5F5F5;" width="2.48" height="2.48"/>
						<rect x="232.69" y="327.3" style="fill:#F5F5F5;" width="2.48" height="2.48"/>
						<rect x="228.76" y="240.04" style="fill:#F5F5F5;" width="2.48" height="2.48"/>
						<rect x="228.76" y="244.19" style="fill:#F5F5F5;" width="2.48" height="2.48"/>
						<rect x="228.76" y="248.35" style="fill:#F5F5F5;" width="2.48" height="2.48"/>
						<rect x="228.76" y="252.51" style="fill:#F5F5F5;" width="2.48" height="2.48"/>
						<rect x="228.76" y="256.66" style="fill:#F5F5F5;" width="2.48" height="2.48"/>
						<rect x="228.76" y="260.82" style="fill:#F5F5F5;" width="2.48" height="2.48"/>
						<rect x="228.76" y="264.97" style="fill:#F5F5F5;" width="2.48" height="2.48"/>
						<rect x="228.76" y="269.13" style="fill:#F5F5F5;" width="2.48" height="2.48"/>
						<rect x="228.76" y="273.28" style="fill:#F5F5F5;" width="2.48" height="2.48"/>
						<rect x="228.76" y="277.44" style="fill:#F5F5F5;" width="2.48" height="2.48"/>
						<rect x="228.76" y="281.59" style="fill:#F5F5F5;" width="2.48" height="2.48"/>
						<rect x="228.76" y="285.75" style="fill:#F5F5F5;" width="2.48" height="2.48"/>
						<rect x="228.76" y="289.9" style="fill:#F5F5F5;" width="2.48" height="2.48"/>
						<rect x="228.76" y="302.37" style="fill:#F5F5F5;" width="2.48" height="2.48"/>
						<rect x="228.76" y="306.53" style="fill:#F5F5F5;" width="2.48" height="2.48"/>
						<rect x="228.76" y="314.84" style="fill:#F5F5F5;" width="2.48" height="2.48"/>
						<rect x="228.76" y="318.99" style="fill:#F5F5F5;" width="2.48" height="2.48"/>
						<rect x="228.76" y="323.15" style="fill:#F5F5F5;" width="2.48" height="2.48"/>
						<rect x="228.76" y="327.3" style="fill:#F5F5F5;" width="2.48" height="2.48"/>
						<rect x="224.82" y="240.04" style="fill:#F5F5F5;" width="2.48" height="2.48"/>
						<rect x="224.82" y="244.19" style="fill:#F5F5F5;" width="2.48" height="2.48"/>
						<rect x="224.82" y="248.35" style="fill:#F5F5F5;" width="2.48" height="2.48"/>
						<rect x="224.82" y="252.51" style="fill:#F5F5F5;" width="2.48" height="2.48"/>
						<rect x="224.82" y="256.66" style="fill:#F5F5F5;" width="2.48" height="2.48"/>
						<rect x="224.82" y="260.82" style="fill:#F5F5F5;" width="2.48" height="2.48"/>
						<rect x="224.82" y="264.97" style="fill:#F5F5F5;" width="2.48" height="2.48"/>
						<rect x="224.82" y="269.13" style="fill:#F5F5F5;" width="2.48" height="2.48"/>
						<rect x="224.82" y="273.28" style="fill:#F5F5F5;" width="2.48" height="2.48"/>
						<rect x="224.82" y="277.44" style="fill:#F5F5F5;" width="2.48" height="2.48"/>
						<rect x="224.82" y="281.59" style="fill:#F5F5F5;" width="2.48" height="2.48"/>
						<rect x="224.82" y="285.75" style="fill:#F5F5F5;" width="2.48" height="2.48"/>
						<rect x="224.82" y="289.9" style="fill:#F5F5F5;" width="2.48" height="2.48"/>
						<rect x="224.82" y="294.06" style="fill:#F5F5F5;" width="2.48" height="2.48"/>
						<rect x="224.82" y="302.37" style="fill:#F5F5F5;" width="2.48" height="2.48"/>
						<rect x="224.82" y="310.68" style="fill:#F5F5F5;" width="2.48" height="2.48"/>
						<rect x="224.82" y="314.84" style="fill:#F5F5F5;" width="2.48" height="2.48"/>
						<rect x="224.82" y="318.99" style="fill:#F5F5F5;" width="2.48" height="2.48"/>
						<rect x="224.82" y="323.15" style="fill:#F5F5F5;" width="2.48" height="2.48"/>
						<rect x="224.82" y="327.3" style="fill:#F5F5F5;" width="2.48" height="2.48"/>
						<rect x="248.73" y="263.73" style="fill:#F5F5F5;" width="2.48" height="2.48"/>
						<rect x="248.73" y="267.89" style="fill:#F5F5F5;" width="2.48" height="2.48"/>
						<rect x="248.73" y="272.04" style="fill:#F5F5F5;" width="2.48" height="2.48"/>
						<rect x="248.73" y="276.2" style="fill:#F5F5F5;" width="2.48" height="2.48"/>
						<rect x="248.73" y="280.35" style="fill:#F5F5F5;" width="2.48" height="2.48"/>
						<rect x="248.73" y="284.51" style="fill:#F5F5F5;" width="2.48" height="2.48"/>
						<rect x="248.73" y="296.98" style="fill:#F5F5F5;" width="2.48" height="2.48"/>
						<rect x="248.73" y="301.13" style="fill:#F5F5F5;" width="2.48" height="2.48"/>
						<rect x="248.73" y="305.29" style="fill:#F5F5F5;" width="2.48" height="2.48"/>
						<rect x="248.73" y="309.44" style="fill:#F5F5F5;" width="2.48" height="2.48"/>
						<rect x="248.73" y="313.6" style="fill:#F5F5F5;" width="2.48" height="2.48"/>
						<rect x="248.73" y="317.75" style="fill:#F5F5F5;" width="2.48" height="2.48"/>
						<rect x="248.73" y="321.91" style="fill:#F5F5F5;" width="2.48" height="2.48"/>
						<rect x="244.8" y="263.73" style="fill:#F5F5F5;" width="2.48" height="2.48"/>
						<rect x="244.8" y="267.89" style="fill:#F5F5F5;" width="2.48" height="2.48"/>
						<rect x="244.8" y="272.04" style="fill:#F5F5F5;" width="2.48" height="2.48"/>
						<rect x="244.8" y="276.2" style="fill:#F5F5F5;" width="2.48" height="2.48"/>
						<rect x="244.8" y="280.35" style="fill:#F5F5F5;" width="2.48" height="2.48"/>
						<rect x="244.8" y="284.51" style="fill:#F5F5F5;" width="2.48" height="2.48"/>
						<rect x="244.8" y="296.98" style="fill:#F5F5F5;" width="2.48" height="2.48"/>
						<rect x="244.8" y="301.13" style="fill:#F5F5F5;" width="2.48" height="2.48"/>
						<rect x="244.8" y="305.29" style="fill:#F5F5F5;" width="2.48" height="2.48"/>
						<rect x="244.8" y="309.44" style="fill:#F5F5F5;" width="2.48" height="2.48"/>
						<rect x="244.8" y="313.6" style="fill:#F5F5F5;" width="2.48" height="2.48"/>
						<rect x="244.8" y="317.75" style="fill:#F5F5F5;" width="2.48" height="2.48"/>
						<rect x="244.8" y="326.06" style="fill:#F5F5F5;" width="2.48" height="2.48"/>
						<rect x="114.01" y="245.43" style="fill:#F5F5F5;" width="2.48" height="2.48"/>
						<rect x="114.01" y="249.59" style="fill:#F5F5F5;" width="2.48" height="2.48"/>
						<rect x="114.01" y="253.74" style="fill:#F5F5F5;" width="2.48" height="2.48"/>
						<rect x="114.01" y="257.9" style="fill:#F5F5F5;" width="2.48" height="2.48"/>
						<rect x="114.01" y="262.06" style="fill:#F5F5F5;" width="2.48" height="2.48"/>
						<rect x="114.01" y="266.21" style="fill:#F5F5F5;" width="2.48" height="2.48"/>
						<rect x="114.01" y="270.37" style="fill:#F5F5F5;" width="2.48" height="2.48"/>
						<rect x="114.01" y="274.52" style="fill:#F5F5F5;" width="2.48" height="2.48"/>
						<rect x="114.01" y="278.68" style="fill:#F5F5F5;" width="2.48" height="2.48"/>
						<rect x="114.01" y="282.83" style="fill:#F5F5F5;" width="2.48" height="2.48"/>
						<rect x="114.01" y="286.99" style="fill:#F5F5F5;" width="2.48" height="2.48"/>
						<rect x="114.01" y="295.3" style="fill:#F5F5F5;" width="2.48" height="2.48"/>
						<rect x="114.01" y="299.45" style="fill:#F5F5F5;" width="2.48" height="2.48"/>
						<rect x="114.01" y="303.61" style="fill:#F5F5F5;" width="2.48" height="2.48"/>
						<rect x="114.01" y="307.77" style="fill:#F5F5F5;" width="2.48" height="2.48"/>
						<rect x="114.01" y="311.92" style="fill:#F5F5F5;" width="2.48" height="2.48"/>
						<rect x="114.01" y="316.08" style="fill:#F5F5F5;" width="2.48" height="2.48"/>
						<rect x="114.01" y="320.23" style="fill:#F5F5F5;" width="2.48" height="2.48"/>
						<rect x="114.01" y="324.39" style="fill:#F5F5F5;" width="2.48" height="2.48"/>
						<rect x="110.07" y="245.43" style="fill:#F5F5F5;" width="2.48" height="2.48"/>
						<rect x="110.07" y="249.59" style="fill:#F5F5F5;" width="2.48" height="2.48"/>
						<rect x="110.07" y="253.74" style="fill:#F5F5F5;" width="2.48" height="2.48"/>
						<rect x="110.07" y="257.9" style="fill:#F5F5F5;" width="2.48" height="2.48"/>
						<rect x="110.07" y="262.06" style="fill:#F5F5F5;" width="2.48" height="2.48"/>
						<rect x="110.07" y="266.21" style="fill:#F5F5F5;" width="2.48" height="2.48"/>
						<rect x="110.07" y="270.37" style="fill:#F5F5F5;" width="2.48" height="2.48"/>
						<rect x="110.07" y="274.52" style="fill:#F5F5F5;" width="2.48" height="2.48"/>
						<rect x="110.07" y="278.68" style="fill:#F5F5F5;" width="2.48" height="2.48"/>
						<rect x="110.07" y="282.83" style="fill:#F5F5F5;" width="2.48" height="2.48"/>
						<rect x="110.07" y="286.99" style="fill:#F5F5F5;" width="2.48" height="2.48"/>
						<rect x="110.07" y="291.14" style="fill:#F5F5F5;" width="2.48" height="2.48"/>
						<rect x="110.07" y="295.3" style="fill:#F5F5F5;" width="2.48" height="2.48"/>
						<rect x="110.07" y="299.45" style="fill:#F5F5F5;" width="2.48" height="2.48"/>
						<rect x="110.07" y="303.61" style="fill:#F5F5F5;" width="2.48" height="2.48"/>
						<rect x="110.07" y="307.77" style="fill:#F5F5F5;" width="2.48" height="2.48"/>
						<rect x="110.07" y="311.92" style="fill:#F5F5F5;" width="2.48" height="2.48"/>
						<rect x="110.07" y="316.08" style="fill:#F5F5F5;" width="2.48" height="2.48"/>
						<rect x="110.07" y="320.23" style="fill:#F5F5F5;" width="2.48" height="2.48"/>
						<rect x="110.07" y="324.39" style="fill:#F5F5F5;" width="2.48" height="2.48"/>
						<rect x="133.4" y="261.62" style="fill:#F5F5F5;" width="2.48" height="2.48"/>
						<rect x="133.4" y="265.77" style="fill:#F5F5F5;" width="2.48" height="2.48"/>
						<rect x="133.4" y="269.93" style="fill:#F5F5F5;" width="2.48" height="2.48"/>
						<rect x="133.4" y="274.08" style="fill:#F5F5F5;" width="2.48" height="2.48"/>
						<rect x="133.4" y="278.24" style="fill:#F5F5F5;" width="2.48" height="2.48"/>
						<rect x="133.4" y="282.4" style="fill:#F5F5F5;" width="2.48" height="2.48"/>
						<rect x="133.4" y="286.55" style="fill:#F5F5F5;" width="2.48" height="2.48"/>
						<rect x="133.4" y="290.71" style="fill:#F5F5F5;" width="2.48" height="2.48"/>
						<rect x="133.4" y="294.86" style="fill:#F5F5F5;" width="2.48" height="2.48"/>
						<rect x="133.4" y="299.02" style="fill:#F5F5F5;" width="2.48" height="2.48"/>
						<rect x="129.46" y="261.62" style="fill:#F5F5F5;" width="2.48" height="2.48"/>
						<rect x="129.46" y="265.77" style="fill:#F5F5F5;" width="2.48" height="2.48"/>
						<rect x="129.46" y="269.93" style="fill:#F5F5F5;" width="2.48" height="2.48"/>
						<rect x="129.46" y="274.08" style="fill:#F5F5F5;" width="2.48" height="2.48"/>
						<rect x="129.46" y="278.24" style="fill:#F5F5F5;" width="2.48" height="2.48"/>
						<rect x="129.46" y="282.4" style="fill:#F5F5F5;" width="2.48" height="2.48"/>
						<rect x="129.46" y="286.55" style="fill:#F5F5F5;" width="2.48" height="2.48"/>
						<rect x="129.46" y="290.71" style="fill:#F5F5F5;" width="2.48" height="2.48"/>
						<rect x="129.46" y="294.86" style="fill:#F5F5F5;" width="2.48" height="2.48"/>
					</g>
				</g>
				<g>
					<rect x="151.2" y="134.66" style="fill:#EBEBEB;" width="4.16" height="201.76"/>
					<rect x="229.46" y="134.66" style="fill:#EBEBEB;" width="4.16" height="201.76"/>
					<rect x="307.73" y="134.66" style="fill:#EBEBEB;" width="4.44" height="201.76"/>
				</g>
			</g>
		</g>
		<g>
			<rect x="335.36" y="133.36" style="fill:#EBEBEB;" width="92.32" height="248.84"/>
			<rect x="343.51" y="160.73" style="fill:#FAFAFA;" width="21.25" height="92.85"/>
			<circle style="fill:#E0E0E0;" cx="346.47" cy="272.33" r="4.23"/>
		</g>
		<rect x="363.8" y="116.3" style="fill:#F5F5F5;" width="35.44" height="8.36"/>
		<g>
			<circle style="fill:#F0F0F0;" cx="191.12" cy="105.85" r="15.17"/>
			
				<ellipse transform="matrix(0.1602 -0.9871 0.9871 0.1602 56.0192 277.5444)" style="fill:#FAFAFA;" cx="191.12" cy="105.85" rx="12.9" ry="12.9"/>
			
				<polyline style="fill:none;stroke:#E0E0E0;stroke-width:2;stroke-linecap:round;stroke-linejoin:round;stroke-miterlimit:10;" points="
				190.51,97 190.51,106.02 184.53,102.64 			"/>
		</g>
	</g>
</g>
<g id="Background_Simple" style="display:none;">
	<g style="display:inline;">
		<path style="fill:#407BFF;" d="M297.64,205.49c-72.5-20.15-98.98-176.74-205.42-91.94c-75.51,60.17-28.27,208.17,66.79,191.48
			c57.54-10.1,48.64-11.22,97.6,17.15c49.61,28.75,104.14,43.34,156.7-6.86c27.2-25.98,37.58-89.6,10.83-122.69
			C390.69,151.24,341.93,217.79,297.64,205.49z"/>
		<path style="opacity:0.9;fill:#FFFFFF;" d="M297.64,205.49c-72.5-20.15-98.98-176.74-205.42-91.94
			c-75.51,60.17-28.27,208.17,66.79,191.48c57.54-10.1,48.64-11.22,97.6,17.15c49.61,28.75,104.14,43.34,156.7-6.86
			c27.2-25.98,37.58-89.6,10.83-122.69C390.69,151.24,341.93,217.79,297.64,205.49z"/>
	</g>
</g>
<g id="Shadow_1_">
	<ellipse id="_x3C_Path_x3E__359_" style="fill:#F5F5F5;" cx="250" cy="416.24" rx="193.89" ry="11.32"/>
</g>
<g id="Plant">
	<g>
		<path style="fill:#407BFF;" d="M88.6,392.78c0,0,4.75-10.36-0.68-20.58c-5.43-10.22-7-12.62-3.54-14.72s5.05,8.17,5.05,8.17
			s2.92-7.06,0.51-14.45c-2.41-7.39-3.92-19.43-0.63-20.72c3.29-1.29,0.63,15.02,3.48,20.58c0,0,2.4-6.19,2.79-12.13
			c0.39-5.94-0.22-15.42,2.38-17.85s4.26-0.75,1.71,12.35c-2.55,13.1-2.53,23.75-2.53,23.75s5.64-17.19,9.42-17.69
			c3.78-0.5,3.78,5.06,0.54,9.89c-3.24,4.83-9.48,13.48-10.51,17.93c0,0,6.19-12.93,11.75-8.97c5.57,3.96-4.84,11.78-9.48,14.6
			c-4.64,2.82-7.86,20.52-7.86,20.52L88.6,392.78z"/>
		<path style="opacity:0.2;enable-background:new    ;" d="M88.6,392.78c0,0,4.75-10.36-0.68-20.58c-5.43-10.22-7-12.62-3.54-14.72
			s5.05,8.17,5.05,8.17s2.92-7.06,0.51-14.45c-2.41-7.39-3.92-19.43-0.63-20.72c3.29-1.29,0.63,15.02,3.48,20.58
			c0,0,2.4-6.19,2.79-12.13c0.39-5.94-0.22-15.42,2.38-17.85s4.26-0.75,1.71,12.35c-2.55,13.1-2.53,23.75-2.53,23.75
			s5.64-17.19,9.42-17.69c3.78-0.5,3.78,5.06,0.54,9.89c-3.24,4.83-9.48,13.48-10.51,17.93c0,0,6.19-12.93,11.75-8.97
			c5.57,3.96-4.84,11.78-9.48,14.6c-4.64,2.82-7.86,20.52-7.86,20.52L88.6,392.78z"/>
		<path style="fill:#407BFF;" d="M92.34,397.03c0,0-4.63-10.43,0.92-20.57c5.55-10.14,7.15-12.52,3.72-14.66
			c-3.43-2.14-5.14,8.1-5.14,8.1s-2.83-7.11-0.33-14.46c2.5-7.36,4.15-19.37,0.88-20.71c-3.27-1.34-0.81,15.01-3.73,20.52
			c0,0-2.32-6.22-2.65-12.17c-0.32-5.94,0.41-15.41-2.16-17.88c-2.57-2.47-4.25-0.81-1.86,12.33c2.39,13.14,2.25,23.79,2.25,23.79
			s-5.43-17.27-9.21-17.83c-3.78-0.56-3.84,5.01-0.66,9.88c3.18,4.88,9.32,13.62,10.29,18.08c0,0-6.03-13.02-11.64-9.14
			c-5.61,3.88,4.7,11.85,9.31,14.74c4.61,2.89,7.61,20.63,7.61,20.63L92.34,397.03z"/>
		<g>
			<polygon style="fill:#263238;" points="71.01,389.59 109.22,389.59 106.13,416.93 74.1,416.93 			"/>
		</g>
	</g>
</g>
<g id="Document">
	<g>
		<g>
			<path style="fill:#407BFF;" d="M125.6,416.93l171.07,0c2.88,0,4.98-2.33,4.69-5.21l-26.02-258.16c-0.29-2.88-2.86-5.21-5.74-5.21
				H98.53c-2.88,0-4.98,2.33-4.69,5.21l26.02,258.16C120.15,414.6,122.72,416.93,125.6,416.93z"/>
			<path style="fill:#407BFF;" d="M127.4,416.93l171.07,0c2.88,0,4.98-2.33,4.69-5.21l-26.02-258.16c-0.29-2.88-2.86-5.21-5.74-5.21
				H100.33c-2.88,0-4.98,2.33-4.69,5.21l26.02,258.16C121.96,414.6,124.53,416.93,127.4,416.93z"/>
			<path style="opacity:0.4;fill:#FFFFFF;" d="M127.4,416.93l171.07,0c2.88,0,4.98-2.33,4.69-5.21l-26.02-258.16
				c-0.29-2.88-2.86-5.21-5.74-5.21H100.33c-2.88,0-4.98,2.33-4.69,5.21l26.02,258.16C121.96,414.6,124.53,416.93,127.4,416.93z"/>
		</g>
		<g>
			<path style="fill:#263238;" d="M159.82,167.91h56.03c2.31,0,4-1.87,3.76-4.18l-1.57-15.53c-0.04-0.41-0.41-0.75-0.82-0.75h-62.9
				c-0.41,0-0.72,0.34-0.67,0.75l1.57,15.53C155.45,166.04,157.51,167.91,159.82,167.91z"/>
			<path style="fill:#263238;" d="M181.29,144.54l0.66,6.51h8.38l-0.66-6.51c-0.23-2.31-2.3-4.19-4.61-4.19
				C182.75,140.35,181.06,142.23,181.29,144.54z M183.83,144.9c-0.09-0.94,0.59-1.69,1.52-1.69c0.94,0,1.77,0.76,1.86,1.69
				c0.09,0.94-0.59,1.69-1.52,1.69C184.76,146.59,183.92,145.83,183.83,144.9z"/>
			<path style="opacity:0.2;fill:#FFFFFF;" d="M159.82,167.91h56.03c2.31,0,4-1.87,3.76-4.18l-1.57-15.53
				c-0.04-0.41-0.41-0.75-0.82-0.75h-62.9c-0.41,0-0.72,0.34-0.67,0.75l1.57,15.53C155.45,166.04,157.51,167.91,159.82,167.91z"/>
		</g>
		<g>
			<polygon style="fill:#FFFFFF;" points="273.42,156.76 103.67,156.76 128.25,409.31 297.99,409.31 			"/>
			<g>
				<path d="M141.23,179.52h1.41l0.74,7.56h-1.41L141.23,179.52z"/>
				<path d="M150.66,183.78l0.32,3.3h-1.35l-0.3-3.13c-0.1-1.03-0.66-1.52-1.52-1.52c-0.96,0-1.55,0.58-1.44,1.74l0.28,2.91h-1.35
					l-0.56-5.77h1.29l0.07,0.75c0.39-0.53,1.07-0.81,1.91-0.81C149.39,181.25,150.49,182.04,150.66,183.78z"/>
				<path d="M153.6,181.01l0.03,0.35h1.59l0.11,1.08h-1.55l0.45,4.64h-1.35l-0.45-4.64h-0.95l-0.11-1.08h0.95l-0.04-0.37
					c-0.12-1.21,0.53-2,1.87-2c0.47,0,0.93,0.1,1.25,0.31l-0.28,1.01c-0.22-0.14-0.49-0.24-0.77-0.24
					C153.8,180.09,153.54,180.4,153.6,181.01z"/>
				<path d="M155.85,184.2c-0.17-1.73,1.01-2.95,2.79-2.95c1.8,0,3.2,1.22,3.37,2.95c0.17,1.73-1,2.96-2.79,2.96
					C157.43,187.16,156.02,185.93,155.85,184.2z M160.64,184.2c-0.11-1.1-0.91-1.8-1.9-1.8c-0.97,0-1.64,0.7-1.53,1.8
					c0.11,1.1,0.91,1.8,1.88,1.8C160.08,186,160.75,185.3,160.64,184.2z"/>
				<path d="M166.36,181.25l0.13,1.28c-0.12-0.02-0.22-0.03-0.32-0.03c-1.03,0-1.62,0.6-1.5,1.78l0.27,2.8h-1.35l-0.56-5.77h1.29
					l0.08,0.84C164.72,181.55,165.39,181.25,166.36,181.25z"/>
				<path d="M177.41,183.78l0.32,3.3h-1.35l-0.3-3.13c-0.1-1.03-0.62-1.52-1.45-1.52c-0.89,0-1.45,0.58-1.34,1.73l0.28,2.93h-1.35
					l-0.3-3.13c-0.1-1.03-0.62-1.52-1.45-1.52c-0.9,0-1.45,0.58-1.34,1.73l0.28,2.93h-1.35l-0.56-5.77h1.29l0.07,0.73
					c0.38-0.52,1.03-0.8,1.82-0.8c0.84,0,1.58,0.31,2.04,0.96c0.41-0.59,1.15-0.96,2.07-0.96
					C176.19,181.25,177.24,182.04,177.41,183.78z"/>
				<path d="M184.68,184.63h-4.53c0.24,0.84,1,1.38,2.01,1.38c0.65,0,1.14-0.21,1.51-0.63l0.81,0.83c-0.46,0.62-1.24,0.94-2.23,0.94
					c-1.94,0-3.31-1.24-3.48-2.96c-0.17-1.72,0.98-2.95,2.7-2.95c1.69,0,3.04,1.18,3.21,2.98
					C184.68,184.34,184.68,184.5,184.68,184.63z M180.05,183.74h3.28c-0.19-0.83-0.88-1.4-1.77-1.4
					C180.68,182.33,180.1,182.89,180.05,183.74z"/>
				<path d="M191.12,179.07l0.78,8.01h-1.3l-0.07-0.74c-0.4,0.55-1.05,0.82-1.84,0.82c-1.68,0-3.03-1.17-3.21-2.96
					c-0.17-1.79,0.96-2.95,2.63-2.95c0.75,0,1.43,0.25,1.94,0.78l-0.29-2.96H191.12z M190.29,184.2c-0.11-1.1-0.92-1.8-1.9-1.8
					s-1.65,0.7-1.54,1.8c0.11,1.1,0.92,1.8,1.9,1.8C189.72,186,190.39,185.3,190.29,184.2z"/>
				<path d="M195.88,183.3c-0.22-2.26,1.35-3.89,3.68-3.89c1.23,0,2.34,0.44,3.12,1.26l-0.83,0.85c-0.61-0.59-1.32-0.89-2.11-0.89
					c-1.57,0-2.6,1.1-2.45,2.66c0.15,1.56,1.39,2.66,2.96,2.66c0.79,0,1.44-0.29,1.94-0.9l0.99,0.86c-0.62,0.82-1.64,1.26-2.88,1.26
					C197.99,187.19,196.1,185.56,195.88,183.3z"/>
				<path d="M203.55,184.2c-0.17-1.73,1.01-2.95,2.79-2.95c1.8,0,3.2,1.22,3.37,2.95c0.17,1.73-1,2.96-2.8,2.96
					C205.13,187.16,203.71,185.93,203.55,184.2z M208.34,184.2c-0.11-1.1-0.91-1.8-1.9-1.8c-0.97,0-1.64,0.7-1.53,1.8
					c0.11,1.1,0.91,1.8,1.89,1.8C207.78,186,208.45,185.3,208.34,184.2z"/>
				<path d="M216.65,183.78l0.32,3.3h-1.35l-0.3-3.13c-0.1-1.03-0.66-1.52-1.52-1.52c-0.96,0-1.56,0.58-1.44,1.74l0.28,2.91h-1.35
					l-0.56-5.77h1.29l0.07,0.75c0.39-0.53,1.07-0.81,1.91-0.81C215.38,181.25,216.48,182.04,216.65,183.78z"/>
				<path d="M217.97,186.51l0.42-1.03c0.54,0.33,1.34,0.57,2.07,0.57c0.85,0,1.19-0.24,1.15-0.64c-0.11-1.1-3.58-0.06-3.8-2.36
					c-0.11-1.09,0.81-1.8,2.37-1.8c0.77,0,1.66,0.18,2.21,0.5l-0.42,1.03c-0.58-0.32-1.14-0.43-1.7-0.43
					c-0.82,0-1.19,0.27-1.15,0.65c0.11,1.17,3.58,0.13,3.8,2.39c0.11,1.08-0.82,1.78-2.44,1.78
					C219.52,187.16,218.53,186.88,217.97,186.51z"/>
				<path d="M229.43,184.63h-4.53c0.24,0.84,1,1.38,2.01,1.38c0.65,0,1.14-0.21,1.51-0.63l0.81,0.83c-0.46,0.62-1.24,0.94-2.23,0.94
					c-1.94,0-3.31-1.24-3.48-2.96c-0.17-1.72,0.98-2.95,2.7-2.95c1.69,0,3.04,1.18,3.21,2.98
					C229.42,184.34,229.43,184.5,229.43,184.63z M224.8,183.74h3.28c-0.19-0.83-0.88-1.4-1.77-1.4
					C225.43,182.33,224.85,182.89,224.8,183.74z"/>
				<path d="M236.36,183.78l0.32,3.3h-1.35l-0.3-3.13c-0.1-1.03-0.66-1.52-1.52-1.52c-0.96,0-1.55,0.58-1.44,1.74l0.28,2.91h-1.35
					l-0.56-5.77h1.29l0.07,0.75c0.39-0.53,1.07-0.81,1.91-0.81C235.08,181.25,236.19,182.04,236.36,183.78z"/>
				<path d="M241.84,186.77c-0.3,0.26-0.77,0.39-1.26,0.39c-1.27,0-2.06-0.67-2.18-1.94l-0.27-2.77h-0.95l-0.1-1.08h0.95l-0.13-1.32
					h1.35l0.13,1.32h1.55l0.1,1.08h-1.55l0.27,2.74c0.05,0.56,0.37,0.86,0.88,0.86c0.28,0,0.54-0.08,0.73-0.24L241.84,186.77z"/>
			</g>
			<line style="opacity:0.3;stroke:#000000;stroke-miterlimit:10;" x1="111.36" y1="203.31" x2="274.79" y2="203.31"/>
			<polygon style="opacity:0.3;" points="264.28,221.26 125.37,221.26 124.63,213.72 263.55,213.72 			"/>
			<g style="opacity:0.3;">
				<path d="M265.29,233.09H139.98c-0.8,0-1.46-0.65-1.46-1.46c0-0.8,0.65-1.46,1.46-1.46h125.31c0.8,0,1.46,0.65,1.46,1.46
					C266.75,232.44,266.09,233.09,265.29,233.09z"/>
			</g>
			<g style="opacity:0.3;">
				<path d="M266,240.36H127.08c-0.8,0-1.46-0.65-1.46-1.46c0-0.8,0.65-1.46,1.46-1.46H266c0.8,0,1.46,0.65,1.46,1.46
					C267.45,239.7,266.8,240.36,266,240.36z"/>
			</g>
			<g style="opacity:0.3;">
				<path d="M266.7,247.62H127.79c-0.8,0-1.46-0.65-1.46-1.46c0-0.8,0.65-1.46,1.46-1.46H266.7c0.8,0,1.46,0.65,1.46,1.46
					C268.16,246.96,267.51,247.62,266.7,247.62z"/>
			</g>
			<g style="opacity:0.3;">
				<path d="M267.41,254.88H128.5c-0.8,0-1.46-0.65-1.46-1.46c0-0.8,0.65-1.46,1.46-1.46h138.91c0.8,0,1.46,0.65,1.46,1.46
					C268.86,254.22,268.21,254.88,267.41,254.88z"/>
			</g>
			<g style="opacity:0.3;">
				<path d="M268.12,262.14H129.2c-0.8,0-1.46-0.65-1.46-1.46c0-0.8,0.65-1.46,1.46-1.46h138.91c0.8,0,1.46,0.65,1.46,1.46
					C269.57,261.49,268.92,262.14,268.12,262.14z"/>
			</g>
			<g style="opacity:0.3;">
				<path d="M268.82,269.4H129.91c-0.8,0-1.46-0.65-1.46-1.46c0-0.8,0.65-1.46,1.46-1.46h138.91c0.8,0,1.46,0.65,1.46,1.46
					C270.28,268.75,269.63,269.4,268.82,269.4z"/>
			</g>
			<g style="opacity:0.3;">
				<path d="M255.93,276.66H130.62c-0.8,0-1.46-0.65-1.46-1.46c0-0.8,0.65-1.46,1.46-1.46h125.31c0.8,0,1.46,0.65,1.46,1.46
					C257.39,276.01,256.73,276.66,255.93,276.66z"/>
			</g>
			<polygon style="opacity:0.3;" points="271.83,298.89 132.92,298.89 132.19,291.34 271.1,291.34 			"/>
			<g style="opacity:0.3;">
				<path d="M272.84,310.72H147.53c-0.8,0-1.46-0.65-1.46-1.46s0.65-1.46,1.46-1.46h125.31c0.8,0,1.46,0.65,1.46,1.46
					S273.65,310.72,272.84,310.72z"/>
			</g>
			<g style="opacity:0.3;">
				<path d="M273.55,317.98H134.64c-0.8,0-1.46-0.65-1.46-1.46c0-0.8,0.65-1.46,1.46-1.46h138.91c0.8,0,1.46,0.65,1.46,1.46
					C275.01,317.33,274.35,317.98,273.55,317.98z"/>
			</g>
			<g style="opacity:0.3;">
				<path d="M274.26,325.24H135.34c-0.8,0-1.46-0.65-1.46-1.46s0.65-1.46,1.46-1.46h138.91c0.8,0,1.46,0.65,1.46,1.46
					S275.06,325.24,274.26,325.24z"/>
			</g>
			<g style="opacity:0.3;">
				<path d="M274.96,332.5H136.05c-0.8,0-1.46-0.65-1.46-1.46s0.65-1.46,1.46-1.46h138.91c0.8,0,1.46,0.65,1.46,1.46
					S275.77,332.5,274.96,332.5z"/>
			</g>
			<g style="opacity:0.3;">
				<path d="M203.79,339.76h-67.04c-0.8,0-1.46-0.65-1.46-1.46c0-0.8,0.65-1.46,1.46-1.46h67.04c0.8,0,1.46,0.65,1.46,1.46
					C205.25,339.11,204.6,339.76,203.79,339.76z"/>
			</g>
			<g style="opacity:0.3;">
				<rect x="181.09" y="381.74" width="51.26" height="0.97"/>
			</g>
			<g>
				<path style="fill:none;" d="M182.88,365.06c-0.25-0.28-0.52-0.52-0.83-0.73c0.03,0.05,0.06,0.09,0.08,0.14
					c0.33,0.67,0.62,1.34,0.88,2.01c0.08-0.31,0.24-0.62,0.16-0.94C183.13,365.36,183.01,365.2,182.88,365.06z"/>
				<path style="fill:none;" d="M176.35,375.42c-0.02-0.02-0.03-0.05-0.06-0.08c-0.05-0.05-0.17-0.18-0.17-0.18
					c0.03,0.04-0.05-0.09-0.06-0.11c-0.01-0.02-0.01-0.04-0.02-0.06c0.02-0.12,0.04-0.23,0.05-0.35c0.15-1.18,0.18-2.38,0.26-3.56
					l3.66-1.52c-0.31-1.22-0.75-2.44-1.35-3.64c-0.6-1.2-1.31-2.3-2.12-3.32l-17.02,7.07c0,0,0,0.01,0,0.01
					c-0.04,0.33-0.1,0.68-0.35,0.88c-0.26,0.19-0.77,0.05-0.79-0.28l-0.31,0.29c-0.1,0.13-0.21,0.26-0.36,0.34l0.36-0.34
					c0.09-0.12,0.17-0.25,0.24-0.4l-11.44,4.75c0.31,1.22,0.75,2.44,1.35,3.64c0.6,1.2,1.31,2.3,2.12,3.32l3.9-1.62
					c-0.04-0.06-0.08-0.13-0.09-0.22c-0.1-1.28,3.43-2.28,4.34-2.63c0.45-0.18,1.02-0.33,1.43,0.01c-0.2,0.3-0.6,0.38-0.91,0.55
					c-0.3,0.16-0.54,0.41-0.78,0.65l16.3-6.77c-0.02,0.68,0.12,1.44,0.21,1.92c0.08,0.39,0.15,0.84,0.29,1.26
					c-0.05,0.34-0.12,0.67-0.21,0.99c-0.01,0.02-0.02,0.05-0.02,0.07l-6.86,2.85c0,0,0.01,0,0.01,0c0.13,0.08,0.15,0.26,0.08,0.38
					c-0.07,0.12-0.19,0.19-0.31,0.25c-0.71,0.38-3.11,1.99-3.87,1.42c0.2-0.23,0.44-0.43,0.67-0.64l-11.15,4.63
					c5.08,4.13,11.99,5.56,17.93,3.09c0.42-0.17,0.82-0.37,1.22-0.57c0.02-0.13,0.03-0.26,0.05-0.39l0-0.67
					c0.28-0.25,0.62-0.44,0.99-0.54c-0.08,0.37-0.13,0.75-0.19,1.13c4.65-2.82,7.25-7.88,7.19-13.33L176.35,375.42z"/>
				<path style="fill:none;" d="M145.06,382.25c-0.03-0.29-0.07-0.6-0.11-0.99c-0.03-0.3,0-0.59,0.04-0.88
					c-0.07-0.14-0.16-0.27-0.23-0.41c-1.76-3.54-2.48-7.25-2.3-10.78c-0.05,0.02-0.09,0.05-0.14,0.07c-0.12,0.06-0.28,0.1-0.38,0
					c-0.05-0.05-0.07-0.12-0.09-0.19c-0.18-0.85-0.15-1.73,0.1-2.52l0.11-0.32c0.12-0.12,0.26-0.25,0.43-0.3
					c0.12-0.03,0.27-0.01,0.38,0.06c0.56-2.61,1.64-5.05,3.19-7.16c0.33-1.4,0.88-2.74,1.85-2.89c-0.11,0.3-0.13,0.61-0.14,0.92
					c1.66-1.68,3.67-3.09,6.01-4.06c9.23-3.83,20.37-0.02,26.42,8.5c0.09-0.02,0.18-0.03,0.31-0.02c1.15,0.12,2.34,2.72,2.86,3.57
					c0.43,0.69,0.86,1.57,0.47,2.2c-0.1,0.15-0.26,0.28-0.44,0.26c-0.05-0.01-0.09-0.04-0.13-0.06c2.07,6.02,1.36,12.24-1.62,17.09
					c0.34,0.59,0.2,1.9,0.13,2.76c4.83-6.17,5.82-15.1,1.77-23.23c-5.73-11.52-19.41-17.15-30.5-12.55
					c-11.09,4.6-15.45,17.73-9.72,29.25c0.51,1.02,1.08,1.99,1.71,2.92c0.05-0.32,0.06-0.6,0.04-0.92
					C145.08,382.47,145.07,382.36,145.06,382.25z"/>
				<path style="fill:none;" d="M158.52,391.96c0,0.29-0.32,0.52-0.64,0.57c-0.7,0.11-1.49-0.16-2.04-0.68l-0.55-0.52
					c0.51-0.03,1.03-0.03,1.55,0c-4.8-2.04-9.02-5.72-11.68-10.64c-0.11,0.51-0.14,1.03-0.1,1.56c0.01,0.11,0.02,0.22,0.03,0.33
					c0.04,0.42,0.11,0.84,0.2,1.26c6.49,9.28,18.57,13.43,28.56,9.28c2.93-1.22,5.38-3.03,7.31-5.25c0-0.27-0.01-0.54,0-0.8
					c0.03-0.62,0.02-1.39,0.08-2.08c-1.93,2.87-4.67,5.21-8.13,6.65C168.44,393.59,163.27,393.55,158.52,391.96z"/>
				<path style="fill:none;" d="M149.85,369.19l0.59-0.96c0.19-0.29,0.61-0.34,0.97-0.3c0.37,0.04,0.74,0.15,1.1,0.1
					c0.19-0.03,0.37-0.1,0.56-0.06c-0.01,0.02-0.03,0.03-0.04,0.05l9.6-3.99c0.01,0.03,0.03,0.06,0.04,0.09
					c0.01,0.03,0.02,0.06,0.03,0.09c0,0,0,0,0,0c0,0,0,0,0,0.01c0.04,0.13,0.07,0.27,0.08,0.4c0.03,0.32,0.44,0.51,0.7,0.4
					c0.6-0.26,0.98-0.78,1.29-1.33c0.07-0.12,0.14-0.25,0.21-0.37c0.07-0.12,0.16-0.23,0.2-0.36l8.32-3.46
					c-1.17-0.95-2.45-1.76-3.78-2.41c-0.02-0.14-0.05-0.27-0.12-0.4c-0.06-0.11-0.14-0.2-0.23-0.28c-0.06,0.39-0.13,0.78-0.21,1.16
					l-0.51,0.1c-0.28-0.22-0.38-0.61-0.33-0.94c0.03-0.18,0.09-0.34,0.16-0.5c-0.1,0.04-0.2,0.1-0.28,0.18
					c-4.07-1.57-8.57-1.7-12.63-0.02c-5.94,2.47-9.31,8.16-9.24,14.37l4.17-1.73C150.25,369,150.01,369,149.85,369.19z"/>
				<path style="fill:#407BFF;" d="M187.05,378.7c0.01-0.3,0.1-0.58,0.13-0.88c0.04-0.38-0.04-0.79,0.03-1.16
					c0.07-0.42,0.39-0.99,0.81-1.17c0.16-4.05-0.7-8.28-2.72-12.34c-3.34-6.71-9.16-11.58-15.7-13.88
					c-0.07,0.15-0.16,0.29-0.22,0.45c-0.17,0.51-0.97,0.28-0.95-0.26c0.01-0.21-0.04-0.41-0.1-0.6c-5.3-1.58-10.99-1.48-16.16,0.66
					c-1.02,0.42-1.99,0.92-2.9,1.47c0.03,0.41,0.07,0.82,0.1,1.23c-0.39-0.09-0.74-0.34-1.01-0.65
					c-9.17,6.17-12.27,18.63-6.75,29.72c0.81,1.63,1.77,3.15,2.85,4.55c0-0.48,0.12-0.9,0.31-1.37c0.15-0.38,0.24-0.69,0.29-0.99
					c-0.63-0.93-1.2-1.9-1.71-2.92c-5.73-11.52-1.37-24.65,9.72-29.25c11.09-4.6,24.77,1.03,30.5,12.55
					c4.05,8.14,3.06,17.06-1.77,23.23c-0.02,0.24-0.04,0.46-0.04,0.6c0.01,0.49,0.02,0.99,0.02,1.48c0.01,0.35,0,0.7-0.02,1.04
					c2.9-2.93,4.87-6.65,5.75-10.71c-0.04,0-0.07,0.01-0.11,0.01C187.14,379.34,187.04,379,187.05,378.7z"/>
				<path style="fill:#407BFF;" d="M173.85,393.13c-9.98,4.15-22.06-0.01-28.56-9.28c0.11,0.55,0.24,1.1,0.37,1.65
					c0.13,0.57,0.03,1.22-0.17,1.62c3.31,3.83,7.57,6.64,12.16,8.19c0.2-0.22,0.45-0.41,0.74-0.5c0.36-0.11,0.77-0.07,1.16-0.03
					c0.11,0.01,0.22,0.02,0.31,0.08c0.1,0.07,0.16,0.18,0.22,0.29c0.16,0.32,0.31,0.63,0.47,0.95c4.72,1.02,9.66,0.71,14.19-1.17
					c2.49-1.03,4.66-2.46,6.49-4.19c-0.06-0.96-0.09-1.91-0.07-2.86C179.23,390.1,176.77,391.91,173.85,393.13z"/>
				<path style="fill:#407BFF;" d="M183.28,367.26c-0.23-0.13-0.33-0.49-0.26-0.76c0-0.01,0-0.01,0.01-0.02
					c-0.26-0.67-0.55-1.35-0.88-2.01c-0.02-0.05-0.06-0.1-0.08-0.14c-0.02-0.01-0.03-0.03-0.05-0.04c-0.3-0.21-0.65-0.4-0.82-0.73
					c-0.16-0.3-0.16-0.63-0.38-0.91c-0.17-0.21-0.56-0.1-0.71-0.32c-0.33-0.48-0.29-0.92,0.12-1.02c-6.06-8.52-17.2-12.33-26.42-8.5
					c-2.35,0.97-4.35,2.38-6.01,4.06c-0.01,0.24-0.01,0.49-0.06,0.73c-0.09,0.49-0.44,0.85-0.75,1.23c-0.67,0.82-1.18,1.79-1.4,2.85
					c0.11-0.62,0.24-1.74,0.5-2.83c-1.55,2.12-2.63,4.56-3.19,7.16c0.05,0.03,0.09,0.07,0.12,0.12c0.08,0.14,0.05,0.29,0.03,0.44
					c-0.05,0.37,0,0.76,0.13,1.13c0.06,0.16,0.13,0.32,0.15,0.49c0.05,0.49-0.39,0.81-0.83,1.03c-0.18,3.53,0.54,7.23,2.3,10.78
					c0.07,0.14,0.15,0.27,0.23,0.41c0.02-0.14,0.04-0.28,0.07-0.42c0.08-0.41,0.15-0.82,0.23-1.23c0.32,0.55,0.06,1.18-0.09,1.76
					c-0.02,0.06-0.02,0.13-0.04,0.19c2.66,4.91,6.88,8.6,11.68,10.64c0.31,0.02,0.62,0.04,0.93,0.08c0.28,0.04,0.62,0.13,0.73,0.39
					c0.02,0.06,0.01,0.11,0.01,0.16c4.75,1.6,9.91,1.63,14.58-0.31c3.46-1.44,6.2-3.78,8.13-6.65c0.03-0.33,0.07-0.65,0.15-0.92
					c0.12,0.05,0.2,0.14,0.27,0.26C184.64,379.5,185.34,373.28,183.28,367.26z M155.59,356.41c4.05-1.68,8.56-1.55,12.63,0.02
					c0.08-0.08,0.18-0.14,0.28-0.18c0.07-0.14,0.14-0.27,0.22-0.4c0.18-0.3,0.43-0.64,0.8-0.59c-0.03,0.39-0.08,0.78-0.13,1.16
					c0.09,0.08,0.17,0.17,0.23,0.28c0.07,0.12,0.1,0.26,0.12,0.4c1.33,0.65,2.61,1.45,3.78,2.41l-8.32,3.46
					c-0.04,0.13-0.13,0.24-0.2,0.36c-0.07,0.12-0.14,0.25-0.21,0.37c-0.32,0.55-0.69,1.07-1.29,1.33c-0.26,0.11-0.67-0.08-0.7-0.4
					c-0.01-0.14-0.05-0.27-0.08-0.4c0-0.01,0-0.01,0-0.01c0,0,0,0,0,0c-0.01-0.03-0.02-0.06-0.03-0.09
					c-0.01-0.03-0.03-0.06-0.04-0.09l-9.6,3.99c-0.45,0.62-1.04,1.27-1.84,1.18c-0.21-0.02-0.45-0.1-0.67-0.14l-4.17,1.73
					C146.28,364.57,149.65,358.88,155.59,356.41z M173.37,387c-0.05,0.27-0.1,0.55-0.14,0.82c-0.13,0.91-0.25,1.91-0.94,2.47
					c0.03-0.95,0.12-1.89,0.24-2.83c-0.39,0.21-0.8,0.4-1.22,0.57c-5.94,2.47-12.85,1.04-17.93-3.09l11.15-4.63
					c0.35-0.31,0.71-0.6,1.05-0.9c0.23-0.2,0.46-0.4,0.74-0.51c0.44-0.18,0.96-0.12,1.45-0.06c0.06,0.01,0.12,0.02,0.17,0.05
					l6.86-2.85c0.01-0.02,0.02-0.05,0.02-0.07c0.09-0.32,0.16-0.65,0.21-0.99c-0.13-0.42-0.21-0.87-0.29-1.26
					c-0.1-0.48-0.24-1.24-0.21-1.92l-16.3,6.77c-0.05,0.05-0.11,0.11-0.16,0.16c-0.48,0.44-3.32,2.18-3.83,1.5l-3.9,1.62
					c-0.8-1.02-1.52-2.13-2.12-3.32c-0.6-1.2-1.03-2.42-1.35-3.64l11.44-4.75c0.27-0.54,0.46-1.17,1.02-1.36
					c0.24,0.21,0.23,0.56,0.19,0.86l17.02-7.07c0.8,1.02,1.52,2.13,2.12,3.32c0.6,1.2,1.03,2.42,1.35,3.64l-3.66,1.52
					c-0.08,1.19-0.11,2.39-0.26,3.56c-0.01,0.12-0.04,0.23-0.05,0.35c0.01,0.02,0.01,0.04,0.02,0.06c0.01,0.03,0.09,0.16,0.06,0.11
					c0,0,0.12,0.12,0.17,0.18c0.02,0.02,0.04,0.05,0.06,0.08l4.21-1.75C180.62,379.12,178.03,384.18,173.37,387z"/>
			</g>
			<path style="fill:none;stroke:#000000;stroke-miterlimit:10;" d="M191.17,371.4c5.63-3.26,10.04,10.42,0.35,18.44
				c-9.68,8.03-22.99,1.51-15.9-14.41c7.09-15.92,21.44-16.5,26.32-11.7c4.88,4.8,3.72,16.51,0.21,15.93
				c-3.51-0.58,3.08-11.71,7.96-10.94c4.87,0.77,3.85,11.97,1.05,10.78c-2.8-1.19,2.71-7.71,6.56-7.52
				c3.86,0.19,2.87,7.75,0.73,7.52c-2.13-0.23,1.7-6.18,10-5.79"/>
		</g>
		<g>
			<g>
				<path style="fill:#263238;" d="M214.23,164.08h-22.69c-0.44,0-0.82-0.32-0.89-0.76c-0.29-1.78-1.91-3.18-3.69-3.18
					c-0.82,0-1.56,0.3-2.09,0.86c-0.54,0.56-0.81,1.32-0.78,2.14c0.01,0.24-0.08,0.48-0.25,0.66c-0.17,0.18-0.4,0.28-0.65,0.28
					H160.5c-0.46,0-0.85-0.35-0.9-0.81l-1.13-11.24c-0.03-0.25,0.06-0.51,0.23-0.69c0.17-0.19,0.41-0.3,0.67-0.3h53.73
					c0.46,0,0.85,0.35,0.9,0.81l1.13,11.24c0.03,0.25-0.06,0.51-0.23,0.69C214.73,163.97,214.48,164.08,214.23,164.08z
					 M192.25,162.28h20.98l-0.95-9.43h-51.92l0.95,9.43h21.02c0.14-0.96,0.57-1.83,1.23-2.53c0.88-0.91,2.08-1.41,3.39-1.41
					C189.34,158.34,191.53,160.02,192.25,162.28z"/>
			</g>
			<g style="opacity:0.6;">
				<path style="fill:#FFFFFF;" d="M214.23,164.08h-22.69c-0.44,0-0.82-0.32-0.89-0.76c-0.29-1.78-1.91-3.18-3.69-3.18
					c-0.82,0-1.56,0.3-2.09,0.86c-0.54,0.56-0.81,1.32-0.78,2.14c0.01,0.24-0.08,0.48-0.25,0.66c-0.17,0.18-0.4,0.28-0.65,0.28
					H160.5c-0.46,0-0.85-0.35-0.9-0.81l-1.13-11.24c-0.03-0.25,0.06-0.51,0.23-0.69c0.17-0.19,0.41-0.3,0.67-0.3h53.73
					c0.46,0,0.85,0.35,0.9,0.81l1.13,11.24c0.03,0.25-0.06,0.51-0.23,0.69C214.73,163.97,214.48,164.08,214.23,164.08z
					 M192.25,162.28h20.98l-0.95-9.43h-51.92l0.95,9.43h21.02c0.14-0.96,0.57-1.83,1.23-2.53c0.88-0.91,2.08-1.41,3.39-1.41
					C189.34,158.34,191.53,160.02,192.25,162.28z"/>
			</g>
			<path style="fill:#263238;" d="M163.61,152c-0.1-0.94-0.71-1.23-0.71-1.23h46.87c0,0,0.61,0.28,0.71,1.23
				c0.1,0.97-0.46,1.23-0.46,1.23h-46.87C163.14,153.23,163.7,152.98,163.61,152z"/>
			<path style="opacity:0.3;fill:#FFFFFF;" d="M163.61,152c-0.1-0.94-0.71-1.23-0.71-1.23h46.87c0,0,0.61,0.28,0.71,1.23
				c0.1,0.97-0.46,1.23-0.46,1.23h-46.87C163.14,153.23,163.7,152.98,163.61,152z"/>
		</g>
	</g>
</g>
<g id="Sign">
	<g>
		<polygon style="fill:#407BFF;" points="243.14,345.4 218.69,363.26 243.14,381.11 243.14,375.21 304.93,375.21 304.93,351.3 
			243.14,351.3 		"/>
		<g>
			<path style="fill:#FFFFFF;" d="M249.3,365.36l0.43-0.97c0.54,0.43,1.39,0.74,2.22,0.74c1.05,0,1.49-0.38,1.49-0.87
				c0-1.45-4-0.5-4-3c0-1.09,0.87-2.01,2.71-2.01c0.81,0,1.65,0.21,2.24,0.6l-0.39,0.97c-0.61-0.36-1.27-0.53-1.85-0.53
				c-1.04,0-1.46,0.4-1.46,0.91c0,1.43,3.99,0.5,3.99,2.97c0,1.08-0.87,2-2.72,2C250.9,366.16,249.86,365.84,249.3,365.36z"/>
			<path style="fill:#FFFFFF;" d="M255.64,359.37c0-0.4,0.33-0.72,0.77-0.72c0.44,0,0.77,0.3,0.77,0.69c0,0.42-0.32,0.75-0.77,0.75
				C255.96,360.09,255.64,359.77,255.64,359.37z M255.8,360.93h1.2v5.13h-1.2V360.93z"/>
			<path style="fill:#FFFFFF;" d="M263.67,360.93v4.36c0,1.86-0.97,2.71-2.77,2.71c-0.96,0-1.91-0.25-2.5-0.73l0.54-0.9
				c0.45,0.38,1.18,0.62,1.89,0.62c1.13,0,1.63-0.52,1.63-1.56v-0.27c-0.42,0.46-1.03,0.68-1.72,0.68c-1.47,0-2.6-1-2.6-2.49
				c0-1.49,1.13-2.47,2.6-2.47c0.72,0,1.36,0.23,1.78,0.74v-0.68H263.67z M262.49,363.35c0-0.87-0.65-1.45-1.56-1.45
				c-0.91,0-1.57,0.59-1.57,1.45c0,0.88,0.65,1.47,1.57,1.47C261.84,364.82,262.49,364.22,262.49,363.35z"/>
			<path style="fill:#FFFFFF;" d="M270.31,363.13v2.94h-1.2v-2.79c0-0.91-0.45-1.36-1.22-1.36c-0.86,0-1.43,0.52-1.43,1.55v2.6h-1.2
				v-5.13h1.14v0.66c0.39-0.47,1.02-0.72,1.77-0.72C269.39,360.88,270.31,361.58,270.31,363.13z"/>
			<path style="fill:#FFFFFF;" d="M279.54,363.13v2.94h-1.2v-2.79c0-0.91-0.45-1.36-1.22-1.36c-0.86,0-1.43,0.52-1.43,1.55v2.6h-1.2
				v-7.13h1.2v2.6c0.39-0.42,1-0.65,1.71-0.65C278.63,360.88,279.54,361.58,279.54,363.13z"/>
			<path style="fill:#FFFFFF;" d="M285.93,363.88h-4.03c0.14,0.75,0.77,1.23,1.66,1.23c0.58,0,1.03-0.18,1.39-0.56l0.64,0.74
				c-0.46,0.55-1.18,0.84-2.07,0.84c-1.72,0-2.84-1.11-2.84-2.63c0-1.53,1.13-2.63,2.65-2.63c1.5,0,2.6,1.05,2.6,2.65
				C285.95,363.63,285.94,363.77,285.93,363.88z M281.89,363.09h2.91c-0.1-0.74-0.66-1.25-1.45-1.25
				C282.57,361.84,282.01,362.34,281.89,363.09z"/>
			<path style="fill:#FFFFFF;" d="M290.07,360.88v1.14c-0.11-0.02-0.19-0.03-0.28-0.03c-0.91,0-1.49,0.54-1.49,1.59v2.49h-1.2v-5.13
				h1.14v0.75C288.59,361.15,289.22,360.88,290.07,360.88z"/>
			<path style="fill:#FFFFFF;" d="M295.85,363.88h-4.03c0.14,0.75,0.77,1.23,1.66,1.23c0.58,0,1.03-0.18,1.39-0.56l0.64,0.74
				c-0.46,0.55-1.18,0.84-2.07,0.84c-1.72,0-2.84-1.11-2.84-2.63c0-1.53,1.13-2.63,2.65-2.63c1.5,0,2.6,1.05,2.6,2.65
				C295.87,363.63,295.86,363.77,295.85,363.88z M291.81,363.09h2.91c-0.1-0.74-0.66-1.25-1.45-1.25
				C292.49,361.84,291.93,362.34,291.81,363.09z"/>
		</g>
	</g>
</g>
<g id="Speech_bubble">
	<g>
		<g>
			<path style="fill:#407BFF;" d="M378.01,110.98h-27.89c-4.74,0-8.59,3.84-8.59,8.59v24.27c0,4.74,3.84,8.59,8.59,8.59h17.85
				l5.8,9.61l-0.03-9.61h4.26c4.74,0,8.59-3.84,8.59-8.59v-24.27C386.6,114.83,382.76,110.98,378.01,110.98z"/>
		</g>
		<g>
			<g style="enable-background:new    ;">
				
					<ellipse transform="matrix(0.2298 -0.9732 0.9732 0.2298 152.3431 455.6951)" style="opacity:0.7;fill:#FFFFFF;" cx="364.07" cy="131.6" rx="13.84" ry="13.84"/>
			</g>
			<g>
				<path style="fill:#407BFF;" d="M362.62,137.78c-0.37,0-0.73-0.16-0.97-0.45l-5.43-6.4c-0.45-0.54-0.39-1.34,0.15-1.79
					c0.53-0.45,1.34-0.39,1.79,0.15l4.46,5.26l7.37-8.68c0.45-0.54,1.26-0.6,1.79-0.15c0.54,0.45,0.6,1.26,0.15,1.79l-8.34,9.82
					C363.34,137.62,362.99,137.78,362.62,137.78z"/>
			</g>
		</g>
	</g>
</g>
<g id="Character">
	<g>
		<g>
			<g>
				<g>
					<path style="fill:#DC897C;" d="M379.29,222.61c-3.67,3.05-7.41,5.81-11.38,8.45c-1.97,1.33-4.01,2.6-6.18,3.79
						c-1.09,0.6-2.21,1.18-3.44,1.71c-0.62,0.27-1.25,0.53-1.96,0.77c-0.34,0.12-0.73,0.24-1.13,0.34
						c-0.12,0.03-0.15,0.05-0.34,0.09l-0.5,0.1c-0.32,0.05-0.65,0.09-0.95,0.1c-2.44,0.04-3.97-0.69-5.31-1.34
						c-1.33-0.68-2.43-1.44-3.47-2.22c-2.06-1.57-3.83-3.26-5.51-4.99c-3.35-3.48-6.25-7.15-8.94-11.1l3.6-3
						c3.28,3.07,6.69,6.12,10.12,8.88c1.72,1.37,3.47,2.67,5.2,3.72c0.86,0.52,1.72,0.98,2.48,1.27c0.74,0.31,1.46,0.37,1.33,0.3
						c-0.02-0.01-0.05-0.01-0.09,0c-0.03,0-0.05,0-0.08,0.01c-0.04,0.01,0.06-0.02,0.08-0.03c0.16-0.06,0.31-0.12,0.51-0.21
						c0.36-0.16,0.79-0.37,1.21-0.6c0.85-0.46,1.75-0.99,2.65-1.56c1.8-1.14,3.61-2.41,5.42-3.7c1.81-1.29,3.6-2.66,5.39-4.02
						c1.8-1.34,3.59-2.76,5.33-4.1L379.29,222.61z"/>
				</g>
				<path style="fill:#407BFF;" d="M382.33,216.51c0.81,9.66-18.37,19.02-18.37,19.02l-6.38-10.4c0,0,6.04-7.55,11.95-12.6
					C375.71,207.25,381.79,210.09,382.33,216.51z"/>
				<path style="opacity:0.7;fill:#FFFFFF;" d="M375.78,227.75c-1.54,1.35-3.19,2.56-4.76,3.62c-3.8,2.55-7.07,4.15-7.07,4.15
					l-6.38-10.4c0,0,6.04-7.55,11.95-12.6c6.18-5.28,12.27-2.45,12.8,3.98C382.67,220.53,379.54,224.5,375.78,227.75z"/>
			</g>
			<g>
				<path style="fill:#E4897B;" d="M333.7,215.7l-5.32-7.22l-5.48,5.6c0,0,3.01,5.57,8.19,4.92L333.7,215.7z"/>
				<polygon style="fill:#E4897B;" points="322.62,205.73 319.53,210.89 322.89,214.09 328.37,208.49 				"/>
			</g>
			<path style="opacity:0.2;" d="M375.78,227.75c-1.54,1.35-3.19,2.56-4.76,3.62c1.08-3.85,3.3-7.29,3.3-7.29
				C375.22,225.12,375.65,226.39,375.78,227.75z"/>
			<g>
				<path style="fill:#263238;" d="M366.85,409.27l7.53-0.2c0.28-0.01,0.53,0.18,0.6,0.45l1.58,6.06c0.16,0.63-0.3,1.24-0.95,1.25
					c-2.72,0.03-6.65-0.03-10.06,0.07c-3.99,0.11-6.53-0.09-11.21,0.04c-2.83,0.08-3.72-2.75-2.54-3.04
					c5.35-1.32,8.85-1.06,13.41-4.04C365.7,409.52,366.26,409.28,366.85,409.27z"/>
				<g style="opacity:0.4;">
					<path style="fill:#FFFFFF;" d="M366.85,409.27l7.53-0.2c0.28-0.01,0.53,0.18,0.6,0.45l1.58,6.06c0.16,0.63-0.3,1.24-0.95,1.25
						c-2.72,0.03-6.65-0.03-10.06,0.07c-3.99,0.11-6.53-0.09-11.21,0.04c-2.83,0.08-3.72-2.75-2.54-3.04
						c5.35-1.32,8.85-1.06,13.41-4.04C365.7,409.52,366.26,409.28,366.85,409.27z"/>
				</g>
			</g>
			<g>
				<path style="fill:#263238;" d="M405.16,409.27l7.53-0.2c0.28-0.01,0.53,0.18,0.6,0.45l1.58,6.06c0.16,0.63-0.3,1.24-0.95,1.25
					c-2.72,0.03-6.65-0.03-10.06,0.07c-3.99,0.11-6.53-0.09-11.21,0.04c-2.83,0.08-3.72-2.75-2.54-3.04
					c5.35-1.32,8.85-1.06,13.41-4.04C404.01,409.52,404.56,409.28,405.16,409.27z"/>
				<g style="opacity:0.4;">
					<path style="fill:#FFFFFF;" d="M405.16,409.27l7.53-0.2c0.28-0.01,0.53,0.18,0.6,0.45l1.58,6.06c0.16,0.63-0.3,1.24-0.95,1.25
						c-2.72,0.03-6.65-0.03-10.06,0.07c-3.99,0.11-6.53-0.09-11.21,0.04c-2.83,0.08-3.72-2.75-2.54-3.04
						c5.35-1.32,8.85-1.06,13.41-4.04C404.01,409.52,404.56,409.28,405.16,409.27z"/>
				</g>
			</g>
			<path style="fill:#263238;" d="M418.01,260.56c3.62,15.7-3.58,149.66-3.58,149.66l-11.89-0.37l-4.27-113.01l-22.65,114.05
				l-11.56-1.73c8.39-79.72,18.27-137.66,18.27-137.66l-0.02-6.01L418.01,260.56z"/>
			<g>
				<path style="fill:#407BFF;" d="M411.55,202.42c-0.43,7.69-0.1,15.36,0.57,22.5c0.5,5.23,1.19,10.17,1.93,14.62
					c1.73,10.45,3.69,18.28,3.97,21.01c-5.23,0.72-24.95,3.44-35.7,4.92c-13.02-36.4-8.11-55.71-8.11-55.71l8.18-4.66
					c0,0,1.2-0.32,1.81-0.46c3.96-0.92,10.59-1.68,15.18-2.09c0.97-0.09,1.95-0.15,2.9-0.19
					C407.15,202.15,411.55,202.42,411.55,202.42z"/>
			</g>
			<g style="opacity:0.7;">
				<path style="fill:#FFFFFF;" d="M418.02,260.56c-5.23,0.73-24.95,3.45-35.69,4.92c-13.02-36.39-8.12-55.71-8.12-55.71l8.17-4.66
					c0,0,1.2-0.32,1.82-0.47c3.96-0.91,10.58-1.68,15.17-2.09c0.97-0.09,1.95-0.16,2.9-0.19c4.88-0.22,9.27,0.05,9.27,0.05
					c-0.27,4.87-0.23,9.74-0.01,14.45c0.14,2.75,0.34,5.44,0.58,8.06c0.01,0.13,0.02,0.25,0.04,0.37c0.49,5.09,1.17,9.9,1.89,14.25
					C415.77,250,417.73,257.83,418.02,260.56z"/>
			</g>
			<g>
				<path style="fill:#E4897B;" d="M398.11,202.39c0,0-8.19,6.46-10.65,6.43c-1.73-0.02-4.23-2.85-4.23-2.85
					c1.26-0.64,2.14-1.37,2.7-2.16c1.71-2.34,0.72-5.19-0.67-7.8l7.18-9.98c0.1,2,0.37,4.64,0.92,7.24c0,0.01,0,0.01,0,0.01
					C394.17,197.17,395.63,200.96,398.11,202.39z"/>
				<path style="opacity:0.2;" d="M393.36,193.28C393.36,193.29,393.36,193.29,393.36,193.28c-0.75,4.37-2.65,9.4-7.43,10.54
					c1.71-2.34,0.72-5.19-0.67-7.8l7.18-9.98C392.54,188.04,392.81,190.68,393.36,193.28z"/>
			</g>
			<g>
				<g>
					<path style="fill:#407BFF;" d="M387.46,208.83c0,0,1.99,1.81,4.28,3.57c2.74-1.83,9.1-6.59,8.32-10.2
						c-0.53-1.01-3.39-1.35-3.39-1.35S394.12,205.14,387.46,208.83z"/>
				</g>
				<g>
					<path style="fill:#407BFF;" d="M387.46,208.83c0,0-2.07,2.04-3.28,4.47c-2.32-1.13-2.04-8.05-1.34-8.89
						c1.58-1.23,3.58-1.41,3.58-1.41S385.26,206.26,387.46,208.83z"/>
				</g>
				<g style="opacity:0.5;">
					<g>
						<path style="fill:#FFFFFF;" d="M387.46,208.83c0,0,1.99,1.81,4.28,3.57c2.74-1.83,9.1-6.59,8.32-10.2
							c-0.53-1.01-3.39-1.35-3.39-1.35S394.12,205.14,387.46,208.83z"/>
					</g>
					<g>
						<path style="fill:#FFFFFF;" d="M387.46,208.83c0,0-2.07,2.04-3.28,4.47c-2.32-1.13-2.04-8.05-1.34-8.89
							c1.58-1.23,3.58-1.41,3.58-1.41S385.26,206.26,387.46,208.83z"/>
					</g>
				</g>
			</g>
			<path style="opacity:0.2;" d="M394.25,318.74l4.02-21.9l-0.78-11.59C397.5,285.26,391.98,305.35,394.25,318.74z"/>
			<g>
				<path style="fill:#263238;" d="M374.18,178.92c-0.79,2.77-0.16,8.41,3.63,6.47C381.6,183.44,375.54,174.15,374.18,178.92z"/>
				<path style="fill:#E4897B;" d="M394.09,182.08c0.62,7.05,1.34,11.16-1.66,15.24c-4.52,6.15-13.66,4.15-16.38-2.59
					c-2.45-6.07-3.05-16.59,3.4-20.33C385.8,170.71,393.48,175.03,394.09,182.08z"/>
				<path style="fill:#263238;" d="M383.75,185.53c0.09,0.57-0.15,1.07-0.52,1.13c-0.37,0.05-0.75-0.37-0.83-0.94
					c-0.09-0.57,0.15-1.07,0.52-1.13C383.29,184.54,383.66,184.96,383.75,185.53z"/>
				<path style="fill:#263238;" d="M377.29,186.43c0.09,0.57-0.15,1.07-0.52,1.13c-0.37,0.05-0.75-0.37-0.83-0.94
					c-0.09-0.57,0.15-1.07,0.52-1.13C376.83,185.44,377.21,185.86,377.29,186.43z"/>
				<path style="fill:#DE5753;" d="M379.39,186.42c0,0-0.86,3.35-2.07,5.09c1.13,0.75,2.78,0.08,2.78,0.08L379.39,186.42z"/>
				<path style="fill:#263238;" d="M385.43,183.17c-0.11,0.03-0.24,0-0.33-0.09c-1.08-1.06-2.3-0.82-2.32-0.82
					c-0.18,0.04-0.36-0.08-0.4-0.26c-0.04-0.18,0.08-0.36,0.26-0.4c0.06-0.01,1.6-0.32,2.94,1c0.13,0.13,0.14,0.35,0.01,0.48
					C385.53,183.12,385.48,183.15,385.43,183.17z"/>
				<path style="fill:#263238;" d="M374.18,184.6c-0.06,0.02-0.13,0.02-0.2,0c-0.18-0.06-0.28-0.25-0.22-0.43
					c0.56-1.78,2.06-2.19,2.13-2.22c0.18-0.05,0.37,0.06,0.42,0.24c0.05,0.18-0.05,0.36-0.23,0.41c-0.06,0.01-1.22,0.35-1.67,1.78
					C374.37,184.49,374.28,184.57,374.18,184.6z"/>
				<path style="fill:#263238;" d="M382.32,177.98c0,0,1.74-1.64,2.82-0.28c1.08,1.36,1.58,5.35,1.58,5.35l0.29-0.76
					c0,0,3.7,8.51,7,5.78c3.3-2.73,7.37-12.43-1.69-15.86c0,0-1.19-2.01-6.9-2.3c-5.71-0.29-11.97,4.07-12.62,7.91
					c-0.65,3.84,1.25,5.67,1.25,5.67c0.12-1.38,0.77-2.33,0.77-2.33c0.29,1.17,1.62,1.5,1.62,1.5c-0.23-1.45,0.16-2.23,0.16-2.23
					c0.21,0.77,1.17,1.64,1.17,1.64c-0.12-3.85,2.35-4.97,3.17-5.05C381.95,176.92,382.32,177.98,382.32,177.98z"/>
				<path style="fill:#E4897B;" d="M397.67,187.5c-0.29,1.88-1.43,3.45-2.71,4.35c-1.93,1.35-3.69-0.19-3.83-2.43
					c-0.12-2.01,0.74-5.13,3-5.59C396.36,183.38,398,185.35,397.67,187.5z"/>
				<g>
					<path style="fill:#263238;" d="M380.64,193.91c0.78,0.56,1.94,1.78,1.94,1.78c0.13-0.08,0.26-0.17,0.38-0.26
						c1.73-1.19,2.14-2.32,2.06-3.2c-0.04-0.48-0.23-0.9-0.43-1.21c-0.22-0.36-0.47-0.57-0.47-0.57c-0.54,1.18-2.06,2.42-2.91,3.04
						C380.88,193.76,380.64,193.91,380.64,193.91z"/>
					<path style="fill:#FFFFFF;" d="M381.23,193.49l0.58,0.51c1.63-1.13,2.62-2.14,2.79-2.99c-0.22-0.36-0.47-0.57-0.47-0.57
						C383.6,191.63,382.07,192.87,381.23,193.49z"/>
					<path style="fill:#A24E3F;" d="M382.96,195.43c1.73-1.19,2.14-2.32,2.06-3.2c-0.57,0.43-1.22,1.01-1.66,1.71
						C383.03,194.46,382.95,194.98,382.96,195.43z"/>
				</g>
			</g>
			<polygon style="fill:#263238;" points="382.32,267.3 381.63,263.52 418.01,258.17 418.57,264.78 			"/>
			<g>
				<polygon points="384.57,264.1 384.89,266.19 381.98,266.54 381.63,264.47 				"/>
				<polygon points="404.86,261.56 405.19,263.77 386.21,266.04 385.88,263.93 				"/>
				<polygon points="418.57,262.16 406.51,263.61 406.17,261.41 418.36,259.88 				"/>
				<path style="fill:none;stroke:#FFFFFF;stroke-width:0.5;stroke-linecap:round;stroke-linejoin:round;stroke-miterlimit:10;" d="
					M392.31,263.9l0.14,0.73c0.07,0.36,0.41,0.61,0.78,0.57l3.15-0.38c0.39-0.05,0.67-0.4,0.62-0.79l-0.09-0.75
					c-0.05-0.39-0.4-0.67-0.79-0.62l-3.2,0.4C392.51,263.11,392.23,263.5,392.31,263.9z"/>
				
					<line style="fill:none;stroke:#FFFFFF;stroke-width:0.5;stroke-linecap:round;stroke-linejoin:round;stroke-miterlimit:10;" x1="395.3" y1="263.82" x2="396.29" y2="263.7"/>
			</g>
			<g>
				<path style="fill:#E4897B;" d="M423.04,254.61l-8.95-0.6l0.73,7.81c0,0,6.2,1.3,9.05-3.08L423.04,254.61z"/>
				<polygon style="fill:#E4897B;" points="408.27,256.63 410.21,262.32 414.83,261.82 414.1,254.01 				"/>
			</g>
			<path style="opacity:0.2;" d="M412.15,225.3c-2.44-3.62-3.09-9.66-3.09-9.66c0.88,0.16,1.71,0.6,2.47,1.23
				c0.14,2.75,0.34,5.44,0.58,8.06C412.12,225.05,412.13,225.18,412.15,225.3z"/>
			<g>
				<g>
					<path style="fill:#DC897C;" d="M415.28,204.9c3.56,3.49,6.85,7.07,10.05,10.89c1.61,1.9,3.16,3.86,4.65,5.96
						c0.74,1.05,1.48,2.13,2.18,3.32c0.7,1.22,1.38,2.39,1.99,4.2c0.36,1.18,0.43,2.16,0.44,3.02c0,0.87-0.07,1.64-0.18,2.38
						c-0.22,1.47-0.55,2.79-0.92,4.06c-0.74,2.54-1.69,4.89-2.68,7.19c-2.02,4.59-4.35,8.89-6.98,13.11l-4.19-2.09
						c1.6-4.46,3.16-9.01,4.5-13.47c0.67-2.23,1.25-4.47,1.66-6.62c0.21-1.07,0.35-2.12,0.4-3.05c0.02-0.46,0.02-0.9-0.01-1.24
						c-0.02-0.34-0.11-0.58-0.12-0.54c-0.21-0.47-0.75-1.39-1.34-2.22c-0.6-0.85-1.26-1.74-1.96-2.62
						c-1.42-1.76-2.94-3.51-4.49-5.27c-1.56-1.75-3.18-3.46-4.8-5.19c-1.6-1.73-3.28-3.45-4.87-5.12L415.28,204.9z"/>
				</g>
				<path style="fill:#407BFF;" d="M409.1,202.4c9.58-1.48,20.26,17,20.26,17l-9.93,7.1c0,0-7.96-5.5-13.4-11.04
					C400.32,209.65,402.73,203.39,409.1,202.4z"/>
				<path style="opacity:0.7;fill:#FFFFFF;" d="M409.1,202.4c9.58-1.48,20.26,17,20.26,17l-9.93,7.1c0,0-7.96-5.5-13.4-11.04
					C400.32,209.65,402.73,203.39,409.1,202.4z"/>
			</g>
		</g>
		<g>
			<polygon style="fill:#263238;" points="324.01,414.99 324.75,416.93 325.51,415 325.61,404.86 324.11,404.84 			"/>
			<path style="fill:#263238;" d="M323.12,201.58l7.41,0.07l0.2-20.47c0.01-0.76-0.6-1.39-1.37-1.39l-4.65-0.04
				c-0.76-0.01-1.39,0.6-1.39,1.37L323.12,201.58z"/>
			<path style="opacity:0.3;fill:#FFFFFF;enable-background:new    ;" d="M323.12,201.58l7.41,0.07l0.2-20.51
				c0.01-0.74-0.59-1.34-1.33-1.35l-4.73-0.05c-0.74-0.01-1.34,0.59-1.35,1.33L323.12,201.58z"/>
			<path style="fill:#263238;" d="M321.83,196.58l10.09,0.1c1.87,0.02,3.4,1.52,3.44,3.39c1.66,63.96,1,128-1.97,191.91h0
				c0,0-1.69,12.87-7.36,21.13l-2.49-0.02c-5.5-8.36-6.95-21.26-6.95-21.26l0,0c-1.74-63.96-1.16-128,1.73-191.92
				C318.4,198.03,319.95,196.57,321.83,196.58z"/>
			<path style="fill:#263238;" d="M314.78,193.9l17.01,0.16c0.57,0.01,1.03,0.47,1.03,1.05l-0.02,1.71l-17.3-0.17
				c-1.46,25.75-0.6,47.23-0.6,47.23l1.26,0.62l-1.36,5c-3.05-8.59-1.52-47.32-1.21-54.47C313.62,194.39,314.15,193.89,314.78,193.9
				z"/>
			
				<rect x="315.67" y="289.15" transform="matrix(-1 -9.648572e-03 9.648572e-03 -1 649.0963 585.3939)" style="fill:#263238;" width="20.58" height="3.95"/>
			<path style="fill:#263238;" d="M336.56,325.99c-0.41,19.03-1,38.04-1.82,56.98c-0.04,0.86-0.75,1.54-1.61,1.53l-16.13-0.16
				c-0.86-0.01-1.56-0.7-1.58-1.56c-0.45-18.95-0.67-37.97-0.72-57.01c0-0.89,0.73-1.61,1.62-1.6l18.67,0.18
				C335.86,324.36,336.58,325.1,336.56,325.99z"/>
			
				<rect x="315.67" y="289.15" transform="matrix(-1 -9.648572e-03 9.648572e-03 -1 649.0963 585.3939)" style="opacity:0.2;enable-background:new    ;" width="20.58" height="3.95"/>
			<path style="opacity:0.6;fill:#FFFFFF;enable-background:new    ;" d="M314.78,193.9l17.01,0.16c0.57,0.01,1.03,0.47,1.03,1.05
				l-0.02,1.71l-17.3-0.17c-1.46,25.75-0.6,47.23-0.6,47.23l1.26,0.62l-1.36,5c-3.05-8.59-1.52-47.32-1.21-54.47
				C313.62,194.39,314.15,193.89,314.78,193.9z"/>
			<path style="opacity:0.3;fill:#FFFFFF;enable-background:new    ;" d="M336.56,325.99c-0.41,19.03-1,38.04-1.82,56.98
				c-0.04,0.86-0.75,1.54-1.61,1.53l-16.13-0.16c-0.86-0.01-1.56-0.7-1.58-1.56c-0.45-18.95-0.67-37.97-0.72-57.01
				c0-0.89,0.73-1.61,1.62-1.6l18.67,0.18C335.86,324.36,336.58,325.1,336.56,325.99z"/>
		</g>
	</g>
</g>
</svg>
