<?xml version="1.0" encoding="utf-8"?>
<!-- Generator: Adobe Illustrator 23.0.6, SVG Export Plug-In . SVG Version: 6.00 Build 0)  -->
<svg version="1.1" id="Layer_1" xmlns="http://www.w3.org/2000/svg" xmlns:xlink="http://www.w3.org/1999/xlink" x="0px" y="0px"
	 viewBox="0 0 989.2 265.3" style="enable-background:new 0 0 989.2 265.3;" xml:space="preserve">
<style type="text/css">
	.st0{fill:#004587;stroke:#231F20;stroke-miterlimit:10;}
	.st1{fill:#97E7FF;stroke:#231F20;stroke-miterlimit:10;}
	.st2{fill:#00A5FF;stroke:#231F20;stroke-miterlimit:10;}
	.st3{fill:url(#SVGID_1_);}
	.st4{fill:url(#SVGID_2_);}
	.st5{fill:url(#SVGID_3_);}
	.st6{fill:url(#SVGID_4_);}
	.st7{fill:url(#SVGID_5_);}
	.st8{fill:url(#SVGID_6_);}
	.st9{fill:url(#SVGID_7_);}
</style>
<g>
	<g>
		<path class="st0" d="M482.5,18.19l-91.62,39.39v95.53c0,0,23.88,65.99,91.97,95.11c0,0,79.82-37.29,90.51-92.39V57.57L482.5,18.19
			z"/>
		<path class="st1" d="M483.15,45.14l-71.6,30.45l-0.14,72.07c0,0,7.82,47.91,71.02,75.21c0,0,61.15-24.93,71.81-75.21l-0.14-72.07
			L483.15,45.14z"/>
		<g>
			<polygon class="st2" points="483.36,79.59 483.36,134.5 439.84,134.5 439.91,98.24 			"/>
			<path class="st0" d="M483.32,188.42l0.04-53.92h-43.52l-0.02,7.87C439.83,142.37,442.05,168.45,483.32,188.42z"/>
			<polygon class="st0" points="483.1,79.59 483.1,134.5 526.62,134.5 526.55,98.24 			"/>
			<path class="st2" d="M483.15,188.42l-0.04-53.92h43.52l0.02,7.87C526.64,142.37,524.41,168.45,483.15,188.42z"/>
		</g>
	</g>
	<g>
		<linearGradient id="SVGID_1_" gradientUnits="userSpaceOnUse" x1="-16.7213" y1="131.5954" x2="389.4526" y2="133.9432">
			<stop  offset="0.1788" style="stop-color:#024481"/>
			<stop  offset="0.2996" style="stop-color:#024C8B"/>
			<stop  offset="0.5083" style="stop-color:#0162A7"/>
			<stop  offset="0.778" style="stop-color:#0184D5"/>
			<stop  offset="1" style="stop-color:#00A5FF"/>
		</linearGradient>
		<path class="st3" d="M56.77,194.42L25.28,70.31h16.94l14.73,62.79c3.68,15.47,7,30.94,9.21,42.91h0.37
			c2.03-12.34,5.89-27.07,10.13-43.09l16.57-62.61h16.76l15.1,62.98c3.5,14.73,6.81,29.46,8.65,42.54h0.37
			c2.58-13.63,6.08-27.44,9.94-42.91l16.39-62.61h16.39l-35.17,124.11H124.9l-15.65-64.63c-3.87-15.84-6.45-27.99-8.1-40.51h-0.37
			c-2.21,12.34-4.97,24.49-9.58,40.51l-17.68,64.63H56.77z"/>
		<linearGradient id="SVGID_2_" gradientUnits="userSpaceOnUse" x1="-16.7177" y1="130.9653" x2="389.4562" y2="133.3132">
			<stop  offset="0.1788" style="stop-color:#024481"/>
			<stop  offset="0.2996" style="stop-color:#024C8B"/>
			<stop  offset="0.5083" style="stop-color:#0162A7"/>
			<stop  offset="0.778" style="stop-color:#0184D5"/>
			<stop  offset="1" style="stop-color:#00A5FF"/>
		</linearGradient>
		<path class="st4" d="M256.56,136.23h-48.25v44.75h53.77v13.44H192.3V70.31h67.03v13.44h-51.01v39.22h48.25V136.23z"/>
		<linearGradient id="SVGID_3_" gradientUnits="userSpaceOnUse" x1="-16.7154" y1="130.5716" x2="389.4585" y2="132.9195">
			<stop  offset="0.1788" style="stop-color:#024481"/>
			<stop  offset="0.2996" style="stop-color:#024C8B"/>
			<stop  offset="0.5083" style="stop-color:#0162A7"/>
			<stop  offset="0.778" style="stop-color:#0184D5"/>
			<stop  offset="1" style="stop-color:#00A5FF"/>
		</linearGradient>
		<path class="st5" d="M282.89,71.97c7-1.47,18.05-2.58,29.28-2.58c16.02,0,26.33,2.76,34.07,9.02
			c6.45,4.79,10.31,12.15,10.31,21.91c0,11.97-7.92,22.47-20.99,27.25v0.37c11.79,2.95,25.6,12.71,25.6,31.12
			c0,10.68-4.24,18.78-10.5,24.86c-8.65,7.92-22.65,11.6-42.91,11.6c-11.05,0-19.52-0.74-24.86-1.47V71.97z M298.91,122.79h14.55
			c16.94,0,26.88-8.84,26.88-20.81c0-14.55-11.05-20.26-27.25-20.26c-7.37,0-11.6,0.55-14.18,1.1V122.79z M298.91,182.27
			c3.13,0.55,7.73,0.74,13.44,0.74c16.57,0,31.86-6.08,31.86-24.12c0-16.94-14.55-23.94-32.04-23.94h-13.26V182.27z"/>
	</g>
	<g>
		<linearGradient id="SVGID_4_" gradientUnits="userSpaceOnUse" x1="581.2439" y1="131.4204" x2="1010.8961" y2="130.2464">
			<stop  offset="0.0168" style="stop-color:#00A5FF"/>
			<stop  offset="0.321" style="stop-color:#0180CE"/>
			<stop  offset="0.7033" style="stop-color:#025597"/>
			<stop  offset="0.8883" style="stop-color:#024481"/>
		</linearGradient>
		<path class="st6" d="M601.22,173.9c7.18,4.42,17.68,8.1,28.73,8.1c16.39,0,25.96-8.65,25.96-21.18c0-11.6-6.63-18.23-23.39-24.67
			c-20.26-7.18-32.78-17.68-32.78-35.17c0-19.33,16.02-33.7,40.14-33.7c12.71,0,21.91,2.95,27.44,6.08l-4.42,13.07
			c-4.05-2.21-12.34-5.89-23.57-5.89c-16.94,0-23.39,10.13-23.39,18.6c0,11.6,7.55,17.31,24.68,23.94
			c20.99,8.1,31.67,18.23,31.67,36.46c0,19.15-14.18,35.72-43.46,35.72c-11.97,0-25.04-3.5-31.67-7.92L601.22,173.9z"/>
		<linearGradient id="SVGID_5_" gradientUnits="userSpaceOnUse" x1="581.2451" y1="131.8497" x2="1010.8973" y2="130.6758">
			<stop  offset="0.0168" style="stop-color:#00A5FF"/>
			<stop  offset="0.321" style="stop-color:#0180CE"/>
			<stop  offset="0.7033" style="stop-color:#025597"/>
			<stop  offset="0.8883" style="stop-color:#024481"/>
		</linearGradient>
		<path class="st7" d="M714.29,154.39l-12.89,39.04h-16.57l42.17-124.11h19.33l42.35,124.11h-17.13l-13.26-39.04H714.29z
			 M754.98,141.86l-12.15-35.72c-2.76-8.1-4.6-15.47-6.45-22.65h-0.37c-1.84,7.37-3.87,14.92-6.26,22.47l-12.15,35.91H754.98z"/>
		<linearGradient id="SVGID_6_" gradientUnits="userSpaceOnUse" x1="581.2455" y1="132.0057" x2="1010.8977" y2="130.8318">
			<stop  offset="0.0168" style="stop-color:#00A5FF"/>
			<stop  offset="0.321" style="stop-color:#0180CE"/>
			<stop  offset="0.7033" style="stop-color:#025597"/>
			<stop  offset="0.8883" style="stop-color:#024481"/>
		</linearGradient>
		<path class="st8" d="M806.91,69.31h66.84v13.44h-50.82V124h46.96v13.26h-46.96v56.16h-16.02V69.31z"/>
		<linearGradient id="SVGID_7_" gradientUnits="userSpaceOnUse" x1="581.2464" y1="132.3241" x2="1010.8986" y2="131.1502">
			<stop  offset="0.0168" style="stop-color:#00A5FF"/>
			<stop  offset="0.321" style="stop-color:#0180CE"/>
			<stop  offset="0.7033" style="stop-color:#025597"/>
			<stop  offset="0.8883" style="stop-color:#024481"/>
		</linearGradient>
		<path class="st9" d="M960.85,135.23H912.6v44.75h53.77v13.44h-69.79V69.31h67.03v13.44H912.6v39.22h48.25V135.23z"/>
	</g>
</g>
<g>
</g>
<g>
</g>
<g>
</g>
<g>
</g>
<g>
</g>
<g>
</g>
</svg>
