<?xml version="1.0" encoding="utf-8"?>
<!-- Generator: Adobe Illustrator 23.0.6, SVG Export Plug-In . SVG Version: 6.00 Build 0)  -->
<svg version="1.1" id="Layer_1" xmlns="http://www.w3.org/2000/svg" xmlns:xlink="http://www.w3.org/1999/xlink" x="0px" y="0px"
	 viewBox="0 0 1190.55 841.89" style="enable-background:new 0 0 1190.55 841.89;" xml:space="preserve">
<style type="text/css">
	.st0{fill:#004587;stroke:#231F20;stroke-miterlimit:10;}
	.st1{fill:#97E7FF;stroke:#231F20;stroke-miterlimit:10;}
	.st2{fill:#00A5FF;stroke:#231F20;stroke-miterlimit:10;}
	.st3{fill:url(#SVGID_1_);}
	.st4{fill:url(#SVGID_2_);}
	.st5{fill:url(#SVGID_3_);}
	.st6{fill:url(#SVGID_4_);}
	.st7{fill:url(#SVGID_5_);}
	.st8{fill:url(#SVGID_6_);}
	.st9{fill:url(#SVGID_7_);}
</style>
<g>
	<g>
		<path class="st0" d="M595.31,304.93l-91.62,39.39v95.53c0,0,23.88,65.99,91.97,95.11c0,0,79.82-37.29,90.51-92.39v-98.26
			L595.31,304.93z"/>
		<path class="st1" d="M595.96,331.88l-71.6,30.45l-0.14,72.07c0,0,7.82,47.91,71.02,75.21c0,0,61.15-24.93,71.81-75.21l-0.14-72.07
			L595.96,331.88z"/>
		<g>
			<polygon class="st2" points="596.17,366.33 596.17,421.24 552.65,421.24 552.72,384.98 			"/>
			<path class="st0" d="M596.13,475.16l0.04-53.92h-43.52l-0.02,7.87C552.64,429.11,554.86,455.19,596.13,475.16z"/>
			<polygon class="st0" points="595.91,366.33 595.91,421.24 639.43,421.24 639.36,384.98 			"/>
			<path class="st2" d="M595.95,475.16l-0.04-53.92h43.52l0.02,7.87C639.44,429.11,637.22,455.19,595.95,475.16z"/>
		</g>
	</g>
	<g>
		<linearGradient id="SVGID_1_" gradientUnits="userSpaceOnUse" x1="96.0863" y1="418.3344" x2="502.2602" y2="420.6823">
			<stop  offset="0.1788" style="stop-color:#024481"/>
			<stop  offset="0.2996" style="stop-color:#024C8B"/>
			<stop  offset="0.5083" style="stop-color:#0162A7"/>
			<stop  offset="0.778" style="stop-color:#0184D5"/>
			<stop  offset="1" style="stop-color:#00A5FF"/>
		</linearGradient>
		<path class="st3" d="M169.58,481.16l-31.49-124.11h16.94l14.73,62.79c3.68,15.47,7,30.94,9.21,42.91h0.37
			c2.03-12.34,5.89-27.07,10.13-43.09l16.57-62.61h16.76l15.1,62.98c3.5,14.73,6.81,29.46,8.65,42.54h0.37
			c2.58-13.63,6.08-27.44,9.94-42.91l16.39-62.61h16.39l-35.17,124.11h-16.76l-15.65-64.63c-3.87-15.84-6.45-27.99-8.1-40.51h-0.37
			c-2.21,12.34-4.97,24.49-9.58,40.51l-17.68,64.63H169.58z"/>
		<linearGradient id="SVGID_2_" gradientUnits="userSpaceOnUse" x1="96.0899" y1="417.7044" x2="502.2638" y2="420.0522">
			<stop  offset="0.1788" style="stop-color:#024481"/>
			<stop  offset="0.2996" style="stop-color:#024C8B"/>
			<stop  offset="0.5083" style="stop-color:#0162A7"/>
			<stop  offset="0.778" style="stop-color:#0184D5"/>
			<stop  offset="1" style="stop-color:#00A5FF"/>
		</linearGradient>
		<path class="st4" d="M369.37,422.97h-48.25v44.75h53.77v13.44H305.1V357.05h67.03v13.44h-51.01v39.22h48.25V422.97z"/>
		<linearGradient id="SVGID_3_" gradientUnits="userSpaceOnUse" x1="96.0922" y1="417.3107" x2="502.2661" y2="419.6585">
			<stop  offset="0.1788" style="stop-color:#024481"/>
			<stop  offset="0.2996" style="stop-color:#024C8B"/>
			<stop  offset="0.5083" style="stop-color:#0162A7"/>
			<stop  offset="0.778" style="stop-color:#0184D5"/>
			<stop  offset="1" style="stop-color:#00A5FF"/>
		</linearGradient>
		<path class="st5" d="M395.7,358.71c7-1.47,18.05-2.58,29.28-2.58c16.02,0,26.33,2.76,34.07,9.02
			c6.45,4.79,10.31,12.15,10.31,21.91c0,11.97-7.92,22.47-20.99,27.25v0.37c11.79,2.95,25.6,12.71,25.6,31.12
			c0,10.68-4.24,18.78-10.5,24.86c-8.65,7.92-22.65,11.6-42.91,11.6c-11.05,0-19.52-0.74-24.86-1.47V358.71z M411.72,409.53h14.55
			c16.94,0,26.88-8.84,26.88-20.81c0-14.55-11.05-20.26-27.25-20.26c-7.37,0-11.6,0.55-14.18,1.1V409.53z M411.72,469.01
			c3.13,0.55,7.73,0.74,13.44,0.74c16.57,0,31.86-6.08,31.86-24.12c0-16.94-14.55-23.94-32.04-23.94h-13.26V469.01z"/>
	</g>
	<g>
		<linearGradient id="SVGID_4_" gradientUnits="userSpaceOnUse" x1="694.0515" y1="418.1594" x2="1123.7037" y2="416.9855">
			<stop  offset="0.0168" style="stop-color:#00A5FF"/>
			<stop  offset="0.321" style="stop-color:#0180CE"/>
			<stop  offset="0.7033" style="stop-color:#025597"/>
			<stop  offset="0.8883" style="stop-color:#024481"/>
		</linearGradient>
		<path class="st6" d="M714.03,460.64c7.18,4.42,17.68,8.1,28.73,8.1c16.39,0,25.96-8.65,25.96-21.18c0-11.6-6.63-18.23-23.39-24.67
			c-20.26-7.18-32.78-17.68-32.78-35.17c0-19.33,16.02-33.7,40.14-33.7c12.71,0,21.91,2.95,27.44,6.08l-4.42,13.07
			c-4.05-2.21-12.34-5.89-23.57-5.89c-16.94,0-23.39,10.13-23.39,18.6c0,11.6,7.55,17.31,24.68,23.94
			c20.99,8.1,31.67,18.23,31.67,36.46c0,19.15-14.18,35.72-43.46,35.72c-11.97,0-25.04-3.5-31.67-7.92L714.03,460.64z"/>
		<linearGradient id="SVGID_5_" gradientUnits="userSpaceOnUse" x1="694.0527" y1="418.5887" x2="1123.7048" y2="417.4148">
			<stop  offset="0.0168" style="stop-color:#00A5FF"/>
			<stop  offset="0.321" style="stop-color:#0180CE"/>
			<stop  offset="0.7033" style="stop-color:#025597"/>
			<stop  offset="0.8883" style="stop-color:#024481"/>
		</linearGradient>
		<path class="st7" d="M827.09,441.12l-12.89,39.04h-16.57l42.17-124.11h19.33l42.35,124.11h-17.13l-13.26-39.04H827.09z
			 M867.79,428.6l-12.15-35.72c-2.76-8.1-4.6-15.47-6.45-22.65h-0.37c-1.84,7.37-3.87,14.92-6.26,22.47l-12.15,35.91H867.79z"/>
		<linearGradient id="SVGID_6_" gradientUnits="userSpaceOnUse" x1="694.0531" y1="418.7447" x2="1123.7053" y2="417.5708">
			<stop  offset="0.0168" style="stop-color:#00A5FF"/>
			<stop  offset="0.321" style="stop-color:#0180CE"/>
			<stop  offset="0.7033" style="stop-color:#025597"/>
			<stop  offset="0.8883" style="stop-color:#024481"/>
		</linearGradient>
		<path class="st8" d="M919.71,356.05h66.84v13.44h-50.82v41.25h46.96V424h-46.96v56.16h-16.02V356.05z"/>
		<linearGradient id="SVGID_7_" gradientUnits="userSpaceOnUse" x1="694.054" y1="419.0632" x2="1123.7062" y2="417.8893">
			<stop  offset="0.0168" style="stop-color:#00A5FF"/>
			<stop  offset="0.321" style="stop-color:#0180CE"/>
			<stop  offset="0.7033" style="stop-color:#025597"/>
			<stop  offset="0.8883" style="stop-color:#024481"/>
		</linearGradient>
		<path class="st9" d="M1073.66,421.97h-48.25v44.75h53.77v13.44h-69.79V356.05h67.03v13.44h-51.01v39.22h48.25V421.97z"/>
	</g>
</g>
</svg>
